<svg width="32" height="32" viewBox="0 0 32 32" fill="none" xmlns="http://www.w3.org/2000/svg">
<g clip-path="url(#clip0)">
<path d="M31.7214 10.5128C32.0563 10.8529 32.0944 11.3896 31.8041 11.7685C30.7875 13.0951 31.2331 13.933 29.7175 15.4262C27.9806 17.1374 27.1427 16.2868 25.4059 17.998C23.6694 19.7089 24.5075 20.5595 22.7709 22.2704C21.0344 23.9813 20.1965 23.1308 18.4599 24.8417C16.7233 26.5529 17.5615 27.4035 15.8249 29.1144C14.3093 30.6076 13.478 30.1496 12.1366 31.1464C11.7536 31.4311 11.2175 31.3852 10.8825 31.0448L5.02947 25.1046C4.59905 24.6679 4.67986 23.9425 5.19866 23.6159C6.37834 22.873 7.195 23.1647 8.59929 21.7809C10.3359 20.07 9.49797 19.2194 11.2345 17.5084C12.9709 15.7975 13.809 16.6481 15.5456 14.9372C17.2822 13.2262 16.444 12.3756 18.1806 10.6647C19.9172 8.95352 20.7553 9.8041 22.4919 8.09292C23.8964 6.70913 23.6169 5.88809 24.3774 4.71963C24.7118 4.20571 25.4379 4.13564 25.8683 4.57266L31.7214 10.5128Z" fill="#EA4444"/>
<path d="M31.8044 11.7676C30.7878 13.0947 31.2332 13.9321 29.7178 15.4255C27.9807 17.1365 27.1428 16.2861 25.4062 17.9971C23.6699 19.708 24.5073 20.5586 22.771 22.2695C21.0347 23.9807 20.1965 23.1301 18.4602 24.8413C16.7239 26.5522 17.5613 27.4028 15.825 29.1138C14.3098 30.6072 13.478 30.1489 12.137 31.1458C11.7534 31.4304 11.218 31.3845 10.8828 31.0442L9.98828 30.1365C10.3225 30.3889 10.7903 30.4002 11.1353 30.1443C12.4766 29.1475 13.3081 29.6057 14.8235 28.1123C16.5598 26.4014 15.7222 25.5508 17.4587 23.8398C19.1951 22.1287 20.0332 22.9792 21.7695 21.2683C23.5066 19.5571 22.6685 18.7068 24.4048 16.9956C26.1411 15.2847 26.9792 16.1353 28.7163 14.4241C30.2314 12.9307 29.7861 12.0933 30.803 10.7661C31.0933 10.3875 31.0549 9.85083 30.72 9.5105L25.7603 4.47705C25.7979 4.50537 25.8345 4.53711 25.8687 4.57202L31.7212 10.5117C32.0564 10.8523 32.0947 11.3889 31.8044 11.7676Z" fill="#D93131"/>
<path d="M30.0579 8.823C28.3213 10.5339 29.1594 11.3845 27.4226 13.0957C25.686 14.8069 24.8479 13.9563 23.1113 15.6672C21.3748 17.3784 22.2129 18.229 20.4763 19.9399C18.7397 21.6509 17.9016 20.8003 16.1653 22.5112C14.4287 24.2222 15.2666 25.0728 13.53 26.7837C11.7937 28.4946 10.9556 27.644 9.21899 29.355L6.58594 26.6826C8.32251 24.9717 9.1604 25.8223 10.897 24.1113C12.6335 22.4004 11.7957 21.5498 13.5322 19.8389C15.2686 18.1279 16.1067 18.9785 17.8433 17.2676C19.5798 15.5564 18.7417 14.7061 20.4783 12.9949C22.2148 11.2839 23.053 12.1345 24.7896 10.4233C26.5264 8.71216 25.6882 7.86182 27.4248 6.15063L30.0579 8.823Z" fill="#FDD79B"/>
<path d="M30.0564 8.82324C28.3196 10.5342 29.1577 11.3848 27.4211 13.0957C25.6843 14.8069 24.8462 13.9563 23.1096 15.6672C21.3733 17.3784 22.2109 18.2288 20.4744 19.9399C18.738 21.6509 17.8999 20.8003 16.1636 22.5115C14.4272 24.2224 15.2646 25.073 13.5283 26.7839C11.792 28.4944 10.9539 27.644 9.21753 29.355L8.07617 28.1965C9.80664 26.4968 10.6448 27.3413 12.3784 25.6338C14.1147 23.9229 13.2771 23.0725 15.0134 21.3613C16.75 19.6504 17.5881 20.5007 19.3245 18.7898C21.0608 17.0786 20.2234 16.2283 21.9597 14.5171C23.696 12.8062 24.5342 13.6567 26.2712 11.9456C28.0076 10.2346 27.1694 9.38403 28.9065 7.6731L27.4148 6.15894C27.4172 6.15601 27.4202 6.15381 27.4231 6.15088L30.0564 8.82324Z" fill="#FCCD7F"/>
<path d="M14.9865 2.43755C15.4535 2.53643 15.7812 2.96318 15.7479 3.43926C15.6312 5.10649 16.465 5.55986 16.0238 7.64141C15.5187 10.0264 14.3505 9.7791 13.8454 12.1641C13.34 14.5491 14.5082 14.7964 14.0028 17.1814C13.4977 19.5662 12.3295 19.3189 11.8244 21.7037C11.319 24.0887 12.4872 24.336 11.9818 26.721C11.5409 28.8023 10.5951 28.8787 10.0255 30.4498C9.86294 30.8987 9.39028 31.1558 8.92324 31.0567L0.765036 29.3284C0.165183 29.2012 -0.167337 28.5518 0.0853487 27.9932C0.659567 26.7229 1.50185 26.5159 1.91054 24.5872C2.41567 22.2024 1.2477 21.9549 1.75283 19.5701C2.2582 17.1851 3.42617 17.4327 3.93154 15.0477C4.43667 12.6629 3.2687 12.4153 3.77383 10.0303C4.2792 7.64531 5.44741 7.89287 5.95254 5.50786C6.36123 3.57891 5.67519 3.04814 5.66543 1.65386C5.66103 1.04082 6.22817 0.581835 6.82803 0.709033L14.9865 2.43755Z" fill="#EA4444"/>
<path d="M15.748 3.43872C15.6313 5.10645 16.4646 5.55957 16.0242 7.64087C15.5185 10.0261 14.3503 9.77881 13.8452 12.1636C13.3401 14.5483 14.5078 14.7961 14.0027 17.1809C13.4975 19.5659 12.3296 19.3186 11.8245 21.7034C11.3193 24.0881 12.4868 24.3359 11.9817 26.7207C11.5413 28.802 10.5947 28.8784 10.0254 30.4495C9.86279 30.8984 9.39062 31.1555 8.92358 31.0562L7.67651 30.7922C8.09472 30.8186 8.49121 30.5701 8.63769 30.1663C9.20703 28.595 10.1536 28.5188 10.594 26.4375C11.0991 24.0527 9.93164 23.8049 10.4368 21.4202C10.9419 19.0352 12.1099 19.2827 12.615 16.8977C13.1206 14.5127 11.9524 14.2651 12.4575 11.8804C12.9626 9.49536 14.1308 9.74292 14.6365 7.35767C15.0771 5.27637 14.2439 4.82324 14.3603 3.15552C14.3935 2.67969 14.0657 2.25293 13.5986 2.15381L6.68555 0.689453C6.73267 0.692383 6.78076 0.698731 6.82837 0.70874L14.9863 2.43701C15.4534 2.53613 15.7812 2.96289 15.748 3.43872Z" fill="#D93131"/>
<path d="M12.667 1.94531C12.1616 4.33032 13.3296 4.57788 12.8245 6.96289C12.3191 9.3479 11.1511 9.10034 10.6458 11.4854C10.1406 13.8704 11.3086 14.1179 10.8035 16.5029C10.2981 18.8877 9.13013 18.6401 8.62476 21.0251C8.11963 23.4099 9.2876 23.6575 8.78247 26.0422C8.2771 28.4272 7.10889 28.1797 6.60376 30.5647L2.93359 29.7871C3.43896 27.4021 4.60693 27.6497 5.1123 25.2649C5.61743 22.8799 4.44946 22.6323 4.95459 20.2476C5.45996 17.8626 6.62793 18.1101 7.1333 15.7253C7.63843 13.3403 6.47046 13.0928 6.97559 10.708C7.48096 8.32275 8.64917 8.57031 9.1543 6.1853C9.65967 3.80029 8.49146 3.55273 8.99683 1.16772L12.667 1.94531Z" fill="#FDD79B"/>
<path d="M12.6663 1.94531C12.1606 4.33057 13.3289 4.57788 12.8237 6.96289C12.3181 9.3479 11.1499 9.10059 10.6448 11.4854C10.1396 13.8704 11.3074 14.1179 10.8022 16.5029C10.2971 18.8877 9.12891 18.6404 8.62378 21.0251C8.11865 23.4099 9.28638 23.6577 8.78125 26.0425C8.27588 28.427 7.10767 28.1797 6.60254 30.5645L5.01172 30.2273C5.51807 27.855 6.68311 28.0974 7.18774 25.7173C7.69287 23.3325 6.52515 23.0847 7.03027 20.7C7.5354 18.3149 8.70337 18.5625 9.2085 16.1775C9.71362 13.7927 8.54614 13.5449 9.05127 11.1602C9.5564 8.77515 10.7244 9.02271 11.23 6.63745C11.7351 4.25269 10.5669 4.00513 11.0725 1.62012L8.99341 1.17944C8.99365 1.17554 8.99487 1.17212 8.99561 1.16797L12.6663 1.94531Z" fill="#FCCD7F"/>
</g>
<defs>
<clipPath id="clip0">
<rect width="32" height="32" fill="white"/>
</clipPath>
</defs>
</svg>
