<svg width="38" height="38" viewBox="0 0 38 38" fill="none" xmlns="http://www.w3.org/2000/svg">
<g clip-path="url(#clip0)">
<path d="M35.4345 29.649H2.56545C1.14861 29.649 0 28.5005 0 27.0836V26.5785C0 25.1616 1.14861 24.013 2.56545 24.013H35.4346C36.8515 24.013 38.0001 25.1616 38.0001 26.5785V27.0836C38 28.5005 36.8515 29.649 35.4345 29.649Z" fill="#E94444"/>
<path d="M37.9998 26.5782V27.0834C37.9998 28.5005 36.8517 29.6494 35.4345 29.6494H33.9333C35.3505 29.6494 36.4986 28.5005 36.4986 27.0834V26.5782C36.4986 25.1618 35.3505 24.0129 33.9333 24.0129H35.4345C36.8517 24.0129 37.9998 25.1618 37.9998 26.5782Z" fill="#D83131"/>
<path d="M35.4345 29.649H19H2.56543C2.56543 29.649 1.43191 35.1224 7.88228 37.2757C8.98724 37.6445 10.1408 37.8163 11.2976 37.8163H19.0001H26.7025C27.8593 37.8163 29.0129 37.6445 30.1178 37.2757C36.568 35.1224 35.4345 29.649 35.4345 29.649Z" fill="#FE9738"/>
<path d="M30.1176 37.2755C29.0124 37.6447 27.8589 37.8167 26.7024 37.8167H24.9612C26.1185 37.8167 27.2719 37.6447 28.3771 37.2755C34.8268 35.1223 33.6933 29.6494 33.6933 29.6494H35.4346C35.4346 29.6494 36.5681 35.1223 30.1176 37.2755Z" fill="#FE860A"/>
<path d="M35.4946 25.0349C35.4946 26.3157 34.0063 27.0101 33.0167 26.1968C32.61 25.8625 32.1296 25.5976 31.3683 25.5976C29.3055 25.5976 29.3055 27.2316 27.2426 27.2316C25.1797 27.2316 25.1797 25.5976 23.1168 25.5976C21.054 25.5976 21.054 27.2316 18.9912 27.2316C16.9285 27.2316 16.9285 25.5976 14.8657 25.5976C12.8028 25.5976 12.8028 27.2316 10.7399 27.2316C8.6771 27.2316 8.6771 25.5976 6.61429 25.5976C5.85334 25.5976 5.37311 25.8624 4.96644 26.1965C3.97684 27.0098 2.48853 26.3156 2.48853 25.0347V22.0034H35.4944V25.0349H35.4946Z" fill="#BBEC6C"/>
<path d="M35.4952 22.0035V25.0349C35.4952 26.2335 34.192 26.9183 33.2144 26.3351C33.6462 26.0828 33.9565 25.6204 33.9565 25.0349V22.0035H35.4952Z" fill="#A2E62E"/>
<path d="M2.50537 19.5745V22.0259H6.04377C6.77987 22.0259 7.37663 22.6227 7.37663 23.3588V30.419C7.37663 31.3601 8.13958 32.1231 9.08071 32.1231C10.0218 32.1231 10.7847 31.3601 10.7847 30.419V23.3588C10.7847 22.6227 11.3815 22.0259 12.1176 22.0259H35.4949V19.5745H2.50537Z" fill="#FEE45A"/>
<path d="M33.9561 19.5743H35.4948V22.0257H33.9561V19.5743Z" fill="#FEDF30"/>
<path d="M35.4345 19.7423H2.56545C1.14861 19.7423 0 18.5938 0 17.1769V16.6718C0 15.2549 1.14861 14.1063 2.56545 14.1063H35.4346C36.8515 14.1063 38.0001 15.2549 38.0001 16.6718V17.1769C38 18.5938 36.8515 19.7423 35.4345 19.7423Z" fill="#9E5528"/>
<path d="M37.9998 16.6716V17.1768C37.9998 18.594 36.8517 19.7421 35.4345 19.7421H33.9333C35.3505 19.7421 36.4986 18.594 36.4986 17.1768V16.6716C36.4986 15.2552 35.3505 14.1064 33.9333 14.1064H35.4345C36.8517 14.1065 37.9998 15.2553 37.9998 16.6716Z" fill="#904D24"/>
<path d="M18.9999 0.183716C6.18665 0.369145 1.8816 7.31964 0.460389 11.3582C-0.0266403 12.742 1.01172 14.1902 2.47873 14.1902H18.9999H35.5208C36.9987 14.1902 38.0237 12.7274 37.5308 11.3341C36.101 7.29211 31.7877 0.368775 18.9999 0.183716Z" fill="#FE9738"/>
<path d="M35.5209 14.1904H35.3382C35.8358 13.6354 36.0406 12.8275 35.7632 12.0417C34.3331 7.99898 30.0198 1.07616 17.232 0.891178C13.9238 0.938534 11.182 1.4377 8.91187 2.22115C11.4863 1.03865 14.7822 0.244469 18.9999 0.18335C31.7878 0.369075 36.1011 7.29197 37.5312 11.3339C38.0234 12.7274 36.9983 14.1904 35.5209 14.1904Z" fill="#FE860A"/>
<path d="M13.711 6.05938C13.6219 6.05938 13.5316 6.03785 13.4477 5.99256C13.178 5.84687 13.0776 5.51012 13.2233 5.24049L13.7206 4.3203C13.8663 4.05066 14.2031 3.95025 14.4727 4.09595C14.7424 4.24164 14.8428 4.57839 14.6971 4.84802L14.1998 5.76821C14.0994 5.95394 13.9084 6.05938 13.711 6.05938Z" fill="#E57917"/>
<path d="M18.9932 6.1222C18.6867 6.1222 18.4382 5.87373 18.4382 5.56725V4.52126C18.4382 4.21478 18.6867 3.96631 18.9932 3.96631C19.2997 3.96631 19.5481 4.21478 19.5481 4.52126V5.56725C19.5481 5.87373 19.2997 6.1222 18.9932 6.1222Z" fill="#E57917"/>
<path d="M24.2888 6.05167C24.0974 6.05167 23.9112 5.95252 23.8083 5.77501L23.2835 4.87013C23.1297 4.60501 23.22 4.26546 23.4851 4.1117C23.7502 3.95794 24.0898 4.04821 24.2436 4.31333L24.7683 5.2182C24.9221 5.48332 24.8318 5.82288 24.5667 5.97664C24.4791 6.02755 24.3834 6.05167 24.2888 6.05167Z" fill="#E57917"/>
</g>
<defs>
<clipPath id="clip0">
<rect width="38" height="38" fill="white"/>
</clipPath>
</defs>
</svg>
