<svg width="24" height="24" viewBox="0 0 24 24" fill="none" xmlns="http://www.w3.org/2000/svg">
<path d="M22.875 0.75H20.625C20.5255 0.75 20.4302 0.789509 20.3598 0.859835C20.2895 0.930161 20.25 1.02554 20.25 1.125V1.26825L19.4509 0.8685C19.2946 0.790704 19.1225 0.750145 18.948 0.75H13.452C13.1968 0.750242 12.9492 0.837254 12.75 0.99675L11.1821 2.25H4.875C4.77554 2.25 4.68016 2.28951 4.60984 2.35984C4.53951 2.43016 4.5 2.52554 4.5 2.625V8.625C4.5 8.72446 4.53951 8.81984 4.60984 8.89017C4.68016 8.96049 4.77554 9 4.875 9H16.125C16.2245 9 16.3198 8.96049 16.3902 8.89017C16.4605 8.81984 16.5 8.72446 16.5 8.625V5.793C16.982 5.98318 17.5012 6.06017 18.0176 6.01804C18.534 5.97591 19.0339 5.81578 19.4786 5.55L19.98 5.25H20.25V5.625C20.25 5.72446 20.2895 5.81984 20.3598 5.89016C20.4302 5.96049 20.5255 6 20.625 6H22.875C22.9745 6 23.0698 5.96049 23.1402 5.89016C23.2105 5.81984 23.25 5.72446 23.25 5.625V1.125C23.25 1.02554 23.2105 0.930161 23.1402 0.859835C23.0698 0.789509 22.9745 0.75 22.875 0.75ZM5.25 8.25V3H14.2234L13.803 3.42075C13.5981 3.63293 13.4847 3.9171 13.4872 4.21208C13.4898 4.50705 13.6081 4.78921 13.8167 4.9978C14.0253 5.20638 14.3075 5.3247 14.6024 5.32726C14.8974 5.32982 15.1816 5.21643 15.3937 5.0115L15.75 4.65525V8.25H5.25ZM19.8727 4.5C19.8054 4.5003 19.7395 4.51883 19.6819 4.55362L19.0928 4.90688C18.7432 5.11567 18.35 5.24065 17.944 5.27201C17.538 5.30337 17.1303 5.24026 16.7528 5.08763L16.5 4.98488V3.90525L16.9762 3.429L17.1698 3.4935C17.7089 3.67199 18.2911 3.67199 18.8302 3.4935L19.2428 3.35588C19.3372 3.32445 19.4154 3.25677 19.4599 3.16774C19.5045 3.07871 19.5119 2.97561 19.4805 2.88112C19.4491 2.78664 19.3814 2.70851 19.2924 2.66393C19.2033 2.61934 19.1002 2.61195 19.0057 2.64337L18.5933 2.78137C18.2083 2.90886 17.7925 2.90886 17.4075 2.78137L16.995 2.64337C16.9289 2.6214 16.8581 2.61825 16.7903 2.63427C16.7225 2.6503 16.6606 2.68488 16.6114 2.73412L15.8614 3.48413L14.8635 4.48125C14.7932 4.55155 14.6978 4.59104 14.5984 4.59104C14.4989 4.59104 14.4036 4.55155 14.3333 4.48125C14.2629 4.41093 14.2235 4.31556 14.2235 4.21613C14.2235 4.11669 14.2629 4.02132 14.3333 3.951L15.7905 2.49338C15.8588 2.42265 15.8966 2.32792 15.8958 2.2296C15.8949 2.13128 15.8555 2.03722 15.7859 1.96769C15.7164 1.89816 15.6223 1.85873 15.524 1.85787C15.4257 1.85702 15.331 1.89482 15.2603 1.96312L14.9734 2.25H12.3829L13.2176 1.58212C13.2842 1.52892 13.3668 1.49996 13.452 1.5H18.948C19.0061 1.5002 19.0635 1.51367 19.1156 1.53938L20.25 2.10675V4.49738L19.8727 4.5ZM22.5 5.25H21V1.5H22.5V5.25Z" fill="black"/>
<path d="M10.5 4.5C10.5995 4.5 10.6948 4.53951 10.7652 4.60984C10.8355 4.68016 10.875 4.77554 10.875 4.875H11.625C11.624 4.64315 11.5515 4.41726 11.4172 4.22824C11.283 4.03921 11.0936 3.89628 10.875 3.819V3.375H10.125V3.819C9.87499 3.90706 9.66422 4.08075 9.53001 4.30932C9.3958 4.5379 9.34681 4.80659 9.39173 5.06782C9.43665 5.32904 9.57256 5.56595 9.77541 5.73656C9.97826 5.90718 10.2349 6.0005 10.5 6C10.5742 6 10.6467 6.02199 10.7083 6.0632C10.77 6.1044 10.8181 6.16297 10.8465 6.23149C10.8748 6.30002 10.8823 6.37542 10.8678 6.44816C10.8533 6.5209 10.8176 6.58772 10.7652 6.64017C10.7127 6.69261 10.6459 6.72833 10.5732 6.74279C10.5004 6.75726 10.425 6.74984 10.3565 6.72145C10.288 6.69307 10.2294 6.64501 10.1882 6.58334C10.147 6.52167 10.125 6.44917 10.125 6.375H9.375C9.37596 6.60685 9.44853 6.83274 9.58278 7.02176C9.71703 7.21079 9.90641 7.35372 10.125 7.431V7.875H10.875V7.431C11.125 7.34294 11.3358 7.16925 11.47 6.94068C11.6042 6.7121 11.6532 6.44341 11.6083 6.18218C11.5634 5.92096 11.4274 5.68405 11.2246 5.51344C11.0217 5.34282 10.7651 5.2495 10.5 5.25C10.4005 5.25 10.3052 5.21049 10.2348 5.14016C10.1645 5.06984 10.125 4.97446 10.125 4.875C10.125 4.77554 10.1645 4.68016 10.2348 4.60984C10.3052 4.53951 10.4005 4.5 10.5 4.5Z" fill="black"/>
<path d="M8.25 5.25H7.5C7.40054 5.25 7.30516 5.28951 7.23483 5.35984C7.16451 5.43016 7.125 5.52554 7.125 5.625C7.125 5.72446 7.16451 5.81984 7.23483 5.89016C7.30516 5.96049 7.40054 6 7.5 6H8.25C8.34946 6 8.44484 5.96049 8.51517 5.89016C8.58549 5.81984 8.625 5.72446 8.625 5.625C8.625 5.52554 8.58549 5.43016 8.51517 5.35984C8.44484 5.28951 8.34946 5.25 8.25 5.25Z" fill="black"/>
<path d="M13.5 5.25H12.75C12.6505 5.25 12.5552 5.28951 12.4848 5.35984C12.4145 5.43016 12.375 5.52554 12.375 5.625C12.375 5.72446 12.4145 5.81984 12.4848 5.89016C12.5552 5.96049 12.6505 6 12.75 6H13.5C13.5995 6 13.6948 5.96049 13.7652 5.89016C13.8355 5.81984 13.875 5.72446 13.875 5.625C13.875 5.52554 13.8355 5.43016 13.7652 5.35984C13.6948 5.28951 13.5995 5.25 13.5 5.25Z" fill="black"/>
<path d="M16.2968 18.6649C16.2233 18.5364 16.1252 18.4237 16.008 18.3333C15.8908 18.2429 15.7569 18.1766 15.6139 18.1383C15.471 18.0999 15.3219 18.0903 15.1752 18.1099C15.0285 18.1294 14.8871 18.1779 14.7593 18.2524L12.3491 19.6399C12.2953 19.3882 12.1569 19.1626 11.9569 19.0006C11.7569 18.8387 11.5074 18.7502 11.25 18.75H8.3625L8.2875 18.6998C7.61697 18.251 6.82928 18.0094 6.02247 18.005C5.21567 18.0006 4.42538 18.2336 3.75 18.675V18.375C3.75 18.2755 3.71049 18.1802 3.64016 18.1098C3.56984 18.0395 3.47446 18 3.375 18H1.125C1.02554 18 0.930161 18.0395 0.859835 18.1098C0.789509 18.1802 0.75 18.2755 0.75 18.375V22.875C0.75 22.9745 0.789509 23.0698 0.859835 23.1402C0.930161 23.2105 1.02554 23.25 1.125 23.25H3.375C3.47446 23.25 3.56984 23.2105 3.64016 23.1402C3.71049 23.0698 3.75 22.9745 3.75 22.875V22.824L4.10025 23.0565C4.2856 23.1826 4.50458 23.25 4.72875 23.25H10.2975C10.4951 23.2516 10.6895 23.1998 10.86 23.1L15.885 20.2013C16.056 20.1018 16.198 19.9592 16.2967 19.7877C16.3954 19.6162 16.4474 19.4219 16.4475 19.224C16.4474 19.0276 16.3954 18.8347 16.2968 18.6649ZM3 22.5H1.5V18.75H3V22.5ZM15.51 19.5503L10.4794 22.4524C10.4242 22.4846 10.3613 22.5011 10.2975 22.5H4.72875C4.65414 22.5002 4.58127 22.4775 4.51988 22.4351L3.75 21.924V19.5C3.82391 19.5001 3.89618 19.4783 3.95775 19.4374L4.128 19.3249C4.68198 18.9541 5.33358 18.7562 6.00019 18.7562C6.6668 18.7562 7.31839 18.9541 7.87238 19.3249L8.04225 19.4374C8.10382 19.4783 8.17609 19.5001 8.25 19.5H11.25C11.3495 19.5 11.4448 19.5395 11.5152 19.6098C11.5855 19.6802 11.625 19.7755 11.625 19.875C11.625 19.9745 11.5855 20.0698 11.5152 20.1402C11.4448 20.2105 11.3495 20.25 11.25 20.25H9C8.90054 20.25 8.80516 20.2895 8.73483 20.3598C8.66451 20.4302 8.625 20.5255 8.625 20.625C8.625 20.7245 8.66451 20.8198 8.73483 20.8902C8.80516 20.9605 8.90054 21 9 21H11.25C11.5244 20.9991 11.7889 20.8971 11.9929 20.7135L15.138 18.9C15.1798 18.8754 15.226 18.8594 15.2741 18.8529C15.3221 18.8465 15.371 18.8498 15.4177 18.8625C15.4658 18.8752 15.5109 18.8974 15.5502 18.9278C15.5896 18.9582 15.6224 18.9962 15.6469 19.0395C15.6797 19.0949 15.6972 19.1581 15.6975 19.2225C15.6976 19.2888 15.6804 19.3539 15.6475 19.4114C15.6146 19.4689 15.5672 19.5168 15.51 19.5503Z" fill="black"/>
<path d="M15.375 10.5H5.625C5.52554 10.5 5.43016 10.5395 5.35984 10.6098C5.28951 10.6802 5.25 10.7755 5.25 10.875V17.625C5.25 17.7245 5.28951 17.8198 5.35984 17.8902C5.43016 17.9605 5.52554 18 5.625 18H15.375C15.4745 18 15.5698 17.9605 15.6402 17.8902C15.7105 17.8198 15.75 17.7245 15.75 17.625V10.875C15.75 10.7755 15.7105 10.6802 15.6402 10.6098C15.5698 10.5395 15.4745 10.5 15.375 10.5ZM10.875 11.25V12.75H10.125V11.25H10.875ZM15 17.25H6V11.25H9.375V13.125C9.375 13.2245 9.41451 13.3198 9.48483 13.3902C9.55516 13.4605 9.65054 13.5 9.75 13.5H11.25C11.3495 13.5 11.4448 13.4605 11.5152 13.3902C11.5855 13.3198 11.625 13.2245 11.625 13.125V11.25H15V17.25Z" fill="black"/>
<path d="M8.25 15H6.75C6.65054 15 6.55516 15.0395 6.48483 15.1098C6.41451 15.1802 6.375 15.2755 6.375 15.375C6.375 15.4745 6.41451 15.5698 6.48483 15.6402C6.55516 15.7105 6.65054 15.75 6.75 15.75H8.25C8.34946 15.75 8.44484 15.7105 8.51517 15.6402C8.58549 15.5698 8.625 15.4745 8.625 15.375C8.625 15.2755 8.58549 15.1802 8.51517 15.1098C8.44484 15.0395 8.34946 15 8.25 15Z" fill="black"/>
<path d="M9.75 15H9.375C9.27554 15 9.18016 15.0395 9.10983 15.1098C9.03951 15.1802 9 15.2755 9 15.375C9 15.4745 9.03951 15.5698 9.10983 15.6402C9.18016 15.7105 9.27554 15.75 9.375 15.75H9.75C9.84946 15.75 9.94484 15.7105 10.0152 15.6402C10.0855 15.5698 10.125 15.4745 10.125 15.375C10.125 15.2755 10.0855 15.1802 10.0152 15.1098C9.94484 15.0395 9.84946 15 9.75 15Z" fill="black"/>
<path d="M8.25 16.125H6.75C6.65054 16.125 6.55516 16.1645 6.48483 16.2348C6.41451 16.3052 6.375 16.4005 6.375 16.5C6.375 16.5995 6.41451 16.6948 6.48483 16.7652C6.55516 16.8355 6.65054 16.875 6.75 16.875H8.25C8.34946 16.875 8.44484 16.8355 8.51517 16.7652C8.58549 16.6948 8.625 16.5995 8.625 16.5C8.625 16.4005 8.58549 16.3052 8.51517 16.2348C8.44484 16.1645 8.34946 16.125 8.25 16.125Z" fill="black"/>
<path d="M9.75 16.125H9.375C9.27554 16.125 9.18016 16.1645 9.10983 16.2348C9.03951 16.3052 9 16.4005 9 16.5C9 16.5995 9.03951 16.6948 9.10983 16.7652C9.18016 16.8355 9.27554 16.875 9.375 16.875H9.75C9.84946 16.875 9.94484 16.8355 10.0152 16.7652C10.0855 16.6948 10.125 16.5995 10.125 16.5C10.125 16.4005 10.0855 16.3052 10.0152 16.2348C9.94484 16.1645 9.84946 16.125 9.75 16.125Z" fill="black"/>
</svg>
