<svg width="32" height="32" viewBox="0 0 32 32" fill="none" xmlns="http://www.w3.org/2000/svg">
<path d="M23.857 15.9165C23.7022 15.8354 23.5152 15.8474 23.3718 15.947L21.0146 17.5866C20.8887 17.6743 20.8135 17.8183 20.8135 17.9719V25.0095C20.8135 25.9182 21.5527 26.6572 22.4612 26.6572C23.3696 26.6572 24.1089 25.9182 24.1089 25.0095V16.3322C24.1089 16.1577 24.0117 15.9973 23.857 15.9165Z" fill="#FFEBA1"/>
<path d="M18.6226 19.5581C18.4675 19.477 18.2808 19.489 18.1372 19.5886L15.7803 21.2282C15.6541 21.3159 15.5791 21.4599 15.5791 21.6135V24.0141C15.5791 24.9226 16.3181 25.6618 17.2268 25.6618C18.1352 25.6618 18.8745 24.9226 18.8745 24.0141V19.9738C18.8745 19.799 18.7773 19.6389 18.6226 19.5581Z" fill="#FFEBA1"/>
<path d="M9.87257 25.6444C9.71754 25.5636 9.53077 25.5753 9.38721 25.6751L7.03027 27.3145C6.9043 27.4024 6.8291 27.5462 6.8291 27.6998V30.3521C6.8291 31.2606 7.56812 31.9998 8.47681 31.9998C9.38526 31.9998 10.1245 31.2606 10.1245 30.3521V26.0604C10.1245 25.8856 10.0274 25.7254 9.87257 25.6444Z" fill="#FFEBA1"/>
<path d="M23.8572 15.9165C23.7024 15.8354 23.5154 15.8474 23.3721 15.947L22.4614 16.5805V25.0095C22.4614 25.6181 22.1296 26.1504 21.6377 26.4355C21.8801 26.5764 22.1614 26.6572 22.4614 26.6572C23.3699 26.6572 24.1091 25.9182 24.1091 25.0095V16.3322C24.1091 16.1577 24.012 15.9973 23.8572 15.9165Z" fill="#F7D36F"/>
<path d="M18.6221 19.5588C18.467 19.4777 18.2803 19.4897 18.1367 19.5893L17.2263 20.2229V24.0149C17.2263 24.6235 16.8943 25.1555 16.4023 25.4409C16.645 25.5815 16.9263 25.6626 17.2263 25.6626C18.1348 25.6626 18.874 24.9236 18.874 24.0149V19.9746C18.874 19.7998 18.7769 19.6396 18.6221 19.5588Z" fill="#F7D36F"/>
<path d="M9.87208 25.6444C9.71705 25.5636 9.53028 25.5753 9.38672 25.6751L8.47632 26.3084V30.3521C8.47632 30.9605 8.14429 31.4928 7.65234 31.7782C7.89502 31.9188 8.17627 31.9996 8.47632 31.9996C9.38477 31.9996 10.124 31.2606 10.124 30.3521V26.0601C10.124 25.8856 10.0269 25.7254 9.87208 25.6444Z" fill="#F7D36F"/>
<path d="M26.2947 14.4859C26.233 14.3973 26.1866 14.3011 26.1573 14.2008C26.1536 14.1891 25.7972 13.0003 24.565 11.3092C23.399 9.70908 21.2207 7.38754 17.4656 5.41537C13.7102 3.4432 10.5628 2.96761 8.58351 2.9161C6.49293 2.86092 5.31104 3.24251 5.29932 3.24642C5.20093 3.27865 5.09717 3.29501 4.99048 3.29501C4.98829 3.29501 4.98585 3.29501 4.98414 3.29501C4.86036 3.29501 4.74146 3.34383 4.65381 3.43099C4.56519 3.51864 4.51539 3.63778 4.5149 3.76229L4.40821 29.382C4.40747 29.557 4.50415 29.7179 4.65918 29.7995C4.72779 29.8354 4.80274 29.8532 4.8772 29.8532C4.97144 29.8532 5.06519 29.8249 5.14527 29.7692L26.1773 15.139C26.3899 14.9911 26.4427 14.6986 26.2947 14.4859Z" fill="#FFDB57"/>
<path d="M4.65918 29.7998C4.72779 29.836 4.8025 29.8536 4.8772 29.8536C4.97144 29.8536 5.06519 29.8252 5.14527 29.7696L26.1773 15.1394C26.3899 14.9915 26.4424 14.699 26.2945 14.4863C26.233 14.3977 26.1866 14.3015 26.157 14.2012C26.1548 14.1934 25.9896 13.6438 25.5001 12.7642L4.41651 27.3821L4.40821 29.3826C4.40747 29.5574 4.50415 29.7185 4.65918 29.7998Z" fill="#F6C134"/>
<path d="M12.4895 9.99243C10.8669 9.99243 9.54688 11.3125 9.54688 12.9348C9.54688 14.5574 10.8669 15.8772 12.4895 15.8772C14.1121 15.8772 15.4319 14.5574 15.4319 12.9348C15.4319 11.3123 14.1121 9.99243 12.4895 9.99243Z" fill="#F2433B"/>
<path d="M12.4895 13.8098C11.2307 13.8098 10.1543 13.0149 9.73486 11.9011C9.61377 12.2229 9.54688 12.571 9.54688 12.9348C9.54688 14.5574 10.8669 15.8772 12.4893 15.8772C14.1118 15.8772 15.4319 14.5574 15.4319 12.9348C15.4319 12.5713 15.365 12.2229 15.2439 11.9011C14.8245 13.0149 13.7483 13.8098 12.4895 13.8098Z" fill="#D83636"/>
<path d="M6.98122 14.7972C6.44215 14.2457 5.72096 13.9312 4.95045 13.9122C4.82472 13.9104 4.7024 13.9568 4.61182 14.0445C4.52149 14.1324 4.47022 14.253 4.46973 14.3792L4.44923 19.3231C4.44849 19.4493 4.49879 19.5701 4.58863 19.6587C4.67652 19.7457 4.79493 19.7942 4.91822 19.7942H4.92603C6.52125 19.7676 7.81886 18.448 7.81886 16.8528C7.81886 16.0799 7.52126 15.3497 6.98122 14.7972Z" fill="#F2433B"/>
<path d="M4.92627 17.6978C4.92359 17.698 4.92115 17.698 4.91846 17.698C4.79517 17.698 4.67676 17.6494 4.58863 17.5625C4.52051 17.4951 4.4751 17.4089 4.45752 17.3162L4.44922 19.3235C4.44873 19.4497 4.49903 19.5706 4.58863 19.6592C4.67652 19.7461 4.79493 19.7947 4.91846 19.7947H4.92627C6.52125 19.7681 7.81886 18.4485 7.81886 16.8533C7.81886 16.4878 7.75172 16.1323 7.62452 15.8005C7.20582 16.8899 6.15455 17.6775 4.92627 17.6978Z" fill="#D83636"/>
<path d="M19.3359 14.7571C17.7134 14.7571 16.3936 16.0772 16.3936 17.6995C16.3936 18.8938 17.1067 19.961 18.2102 20.4185C18.2681 20.4424 18.3291 20.4541 18.3899 20.4541C18.4844 20.4541 18.5779 20.4258 18.6577 20.3701L22.075 17.9932C22.2058 17.9019 22.2818 17.7505 22.2759 17.5908C22.218 16.0017 20.9265 14.7571 19.3359 14.7571Z" fill="#F2433B"/>
<path d="M23.1929 9.66903C22.2744 8.69906 21.2119 7.79158 20.0344 6.972C19.9216 6.89363 19.7808 6.86873 19.6482 6.90291C18.3528 7.23982 17.4482 8.41097 17.4482 9.75057C17.4482 11.3731 18.7683 12.6932 20.3906 12.6932C21.9138 12.6932 23.1729 11.5511 23.3191 10.0367C23.3321 9.90145 23.2862 9.76742 23.1929 9.66903Z" fill="#F2433B"/>
<path d="M22.8079 9.27564C22.2757 10.0417 21.3902 10.5332 20.3906 10.5332C19.1489 10.5332 18.0852 9.75977 17.6538 8.66968C17.5208 9.00659 17.4482 9.37207 17.4482 9.75098C17.4482 11.3735 18.7683 12.6934 20.3906 12.6934C21.9138 12.6934 23.1729 11.5515 23.3191 10.0369C23.3321 9.90186 23.2862 9.76782 23.1929 9.66919C23.0674 9.53687 22.9387 9.40576 22.8079 9.27564Z" fill="#D83636"/>
<path d="M13.2266 3.91724C13.1831 3.75708 13.0586 3.63208 12.8987 3.58765C11.4194 3.17847 9.96754 2.95264 8.58277 2.9165C8.48316 2.91382 8.38623 2.9126 8.29102 2.91187C8.2898 2.91187 8.28858 2.91187 8.28736 2.91187C8.12573 2.91187 7.9751 2.99512 7.88941 3.13257C7.59814 3.59912 7.44434 4.13721 7.44434 4.68824C7.44434 6.3108 8.76441 7.63063 10.3867 7.63063C12.0093 7.63063 13.3294 6.3108 13.3294 4.68824C13.3294 4.42823 13.2947 4.16895 13.2266 3.91724Z" fill="#F2433B"/>
<path d="M13.0906 3.69482C12.6397 4.74219 11.5977 5.47754 10.3867 5.47754C9.1438 5.47754 8.0791 4.7024 7.64868 3.6106C7.5144 3.95191 7.44434 4.31665 7.44434 4.68775C7.44434 6.31031 8.76441 7.63038 10.3867 7.63038C12.0093 7.63038 13.3291 6.31031 13.3291 4.68775C13.3291 4.42798 13.2947 4.16846 13.2263 3.91675C13.2029 3.82983 13.1548 3.75366 13.0906 3.69482Z" fill="#D83636"/>
<path d="M14.4561 22.843C13.999 21.7383 12.9317 21.0247 11.7366 21.0247C10.114 21.0247 8.79395 22.3445 8.79395 23.967C8.79395 24.7832 9.13794 25.5701 9.73731 26.1255C9.82691 26.2083 9.94116 26.2505 10.0564 26.2505C10.1497 26.2505 10.2432 26.2229 10.3242 26.1665L14.2905 23.4075C14.4714 23.2817 14.5403 23.0469 14.4561 22.843Z" fill="#F2433B"/>
<path d="M28.9539 13.3794C28.8799 13.1272 27.0469 7.15747 18.8262 2.83764C18.823 2.83593 18.8201 2.83422 18.8169 2.83276C10.593 -1.48464 4.63695 0.39525 4.38744 0.477282C3.37816 0.809314 2.82714 1.90087 3.15917 2.91015C3.32006 3.39916 3.66161 3.79614 4.12108 4.02807C4.58056 4.26025 5.10302 4.29931 5.58642 4.14013C5.59716 4.13671 6.6875 3.80615 8.55835 3.85473C10.438 3.9038 13.4331 4.35864 17.0286 6.24683C20.6241 8.13501 22.6985 10.3428 23.8057 11.8623C24.9078 13.3748 25.2542 14.4605 25.2559 14.4656C25.4012 14.9595 25.7298 15.3672 26.1817 15.6138C26.469 15.7708 26.784 15.8504 27.1023 15.8504C27.2847 15.8504 27.4683 15.8242 27.6482 15.7713C28.1421 15.6262 28.5499 15.2974 28.7967 14.8455C29.043 14.3938 29.0989 13.8731 28.9539 13.3794Z" fill="#FF9F34"/>
<path d="M27.8306 14.3315C27.8286 14.3252 27.4155 13.0315 26.1026 11.2292C24.783 9.41842 22.3108 6.78755 18.0264 4.5373C13.7417 2.2873 10.1726 1.7453 7.93284 1.68671C5.70309 1.62885 4.40402 2.02289 4.39108 2.02704C3.96261 2.16791 3.50851 2.17816 3.07882 2.06024C3.04244 2.33759 3.06588 2.62714 3.15914 2.9101C3.32003 3.39911 3.66159 3.79609 4.12106 4.02802C4.58053 4.2602 5.103 4.29926 5.5864 4.14008C5.59714 4.13667 6.68747 3.8061 8.55833 3.85468C10.438 3.90375 13.4331 4.35859 17.0286 6.24678C20.624 8.13497 22.6985 10.3427 23.8057 11.8623C24.9077 13.3747 25.2542 14.4604 25.2559 14.4655C25.4011 14.9594 25.7298 15.3672 26.1817 15.6137C26.469 15.7707 26.784 15.8503 27.1023 15.8503C27.2847 15.8503 27.4683 15.8242 27.6482 15.7712C27.9441 15.6843 28.209 15.531 28.427 15.3249C28.1489 15.0537 27.9431 14.7146 27.8306 14.3315Z" fill="#FB8F2D"/>
<path d="M18.2097 20.4185C18.2676 20.4424 18.3286 20.4541 18.3894 20.4541C18.4839 20.4541 18.5774 20.4258 18.6572 20.3701L22.0745 17.9932C22.2053 17.9019 22.2812 17.7505 22.2754 17.5908C22.2468 16.8091 21.9194 16.1111 21.405 15.603L16.6484 18.9011C16.9487 19.5742 17.4978 20.1233 18.2097 20.4185Z" fill="#D83636"/>
<path d="M9.73731 26.1258C9.82666 26.2085 9.94116 26.2508 10.0562 26.2508C10.1494 26.2508 10.2432 26.2232 10.324 26.1668L14.2903 23.4077C14.4712 23.282 14.54 23.0469 14.4558 22.8433C14.1853 22.1892 13.7007 21.6724 13.1023 21.3594L8.81738 24.3303C8.90308 25.0132 9.2273 25.6533 9.73731 26.1258Z" fill="#D83636"/>
</svg>
