<svg width="35" height="41" viewBox="0 0 35 41" fill="none" xmlns="http://www.w3.org/2000/svg">
<path d="M24.4801 2.81129e-07C23.4379 -0.000562464 22.5927 0.843796 22.5921 1.88592L22.5899 6.11165C22.5896 6.60872 22.5586 7.10257 22.5 7.59015L30.2576 7.59328C30.1996 7.1057 30.1691 6.61177 30.1693 6.11471L30.1716 1.88897C30.1722 0.846851 29.3278 0.00160812 28.2857 0.00104538L24.4801 2.81129e-07Z" fill="url(#paint0_linear)"/>
<path d="M30.7858 11.1249L30.7891 5.01224L21.9582 5.00854L21.9549 11.1212C21.9538 13.2379 21.296 15.3021 20.0723 17.0293C18.8486 18.7564 18.1908 20.8206 18.1897 22.9374L18.1816 38.0085C18.1808 39.6568 19.5162 40.9938 21.1646 40.9946L31.5443 40.9991C33.1926 41 34.5296 39.6645 34.5304 38.0161L34.5385 22.945C34.5396 20.8283 33.884 18.7633 32.6621 17.0349C31.4403 15.3065 30.7847 13.2416 30.7858 11.1249Z" fill="url(#paint1_linear)"/>
<path d="M21.9586 5.00977L21.9553 11.1224C21.955 11.6194 21.9172 12.1133 21.8457 12.6008L30.8942 12.6046C30.8232 12.117 30.7859 11.6231 30.7862 11.126L30.7895 5.01338L21.9586 5.00977Z" fill="url(#paint2_linear)"/>
<path d="M30.8934 12.604L28.673 12.6032L21.957 5.88723L21.9578 5.00854L30.7881 5.01256L30.7849 11.1248C30.7849 11.6224 30.8219 12.116 30.8934 12.604Z" fill="url(#paint3_linear)"/>
<path d="M30.0478 6.07839L22.6969 6.0755C21.8553 6.07502 21.1734 5.39249 21.1738 4.55086C21.1743 3.70932 21.8568 3.02743 22.6985 3.02783L30.0494 3.03073C30.891 3.03121 31.5729 3.71374 31.5725 4.55536C31.572 5.39699 30.8894 6.07888 30.0478 6.07839Z" fill="url(#paint4_linear)"/>
<path d="M34.5304 38.0169L34.536 27.6584L18.1872 27.6506L18.1816 38.0092C18.1808 39.6575 19.5163 40.9944 21.1646 40.9953L31.5443 40.9999C33.1926 41.0008 34.5296 39.6652 34.5304 38.0169Z" fill="url(#paint5_linear)"/>
<path d="M21.1645 40.9953L31.5443 40.9998C33.1925 41.0006 34.5295 39.6651 34.5304 38.0168L34.5305 37.6858L20.5727 23.7279C20.1732 23.286 19.7021 22.9099 19.1775 22.6185C18.8741 22.4499 18.5529 22.31 18.2175 22.2017C18.1997 22.4461 18.1898 22.6916 18.1897 22.9381L18.1816 38.0092C18.1808 39.6574 19.5162 40.9944 21.1645 40.9953Z" fill="url(#paint6_linear)"/>
<path d="M33.337 25.9831C32.7244 25.3705 31.7313 25.3705 31.1187 25.9831L25.3716 31.7303C24.759 32.3429 24.759 33.336 25.3716 33.9485L32.3204 40.8974C33.5923 40.5562 34.5293 39.3963 34.53 38.0167L34.5358 27.1819L33.337 25.9831Z" fill="url(#paint7_linear)"/>
<path d="M33.215 25.8621L27.4678 20.115C26.8552 19.5024 25.8622 19.5024 25.2496 20.115L19.5024 25.8621C18.8898 26.4747 18.8898 27.4679 19.5024 28.0804L25.2496 33.8275C25.8622 34.4401 26.8552 34.4401 27.4678 33.8275L33.215 28.0804C33.8276 27.4679 33.8276 26.4747 33.215 25.8621Z" fill="url(#paint8_linear)"/>
<path d="M21.1041 24.26L19.5024 25.8616C18.8898 26.4742 18.8898 27.4673 19.5024 28.0798L25.2496 33.827C25.8622 34.4396 26.8552 34.4396 27.4678 33.827L29.0695 32.2253L21.1041 24.26Z" fill="url(#paint9_linear)"/>
<path d="M29.0906 29.077L26.7256 31.442C26.5239 31.6438 26.1956 31.6438 25.9938 31.442L23.6289 29.077C23.3934 28.8416 23.0116 28.8416 22.7762 29.077C22.5407 29.3125 22.5407 29.6943 22.7762 29.9297L25.1412 32.2946C25.4772 32.6307 25.9183 32.7986 26.3598 32.7986C26.801 32.7986 27.2424 32.6306 27.5784 32.2946L29.9433 29.9297C30.1788 29.6942 30.1788 29.3124 29.9433 29.077C29.7079 28.8415 29.3261 28.8416 29.0906 29.077Z" fill="url(#paint10_linear)"/>
<path d="M27.5783 32.2958L28.3589 31.5152L27.5062 30.6626L26.7256 31.4432C26.5239 31.645 26.1956 31.645 25.9938 31.4432L23.6288 29.0782C23.3934 28.8427 23.0116 28.8427 22.7762 29.0782C22.5407 29.3137 22.5407 29.6955 22.7762 29.9309L25.1412 32.2958C25.4772 32.6319 25.9183 32.7998 26.3598 32.7998C26.801 32.7998 27.2423 32.6318 27.5783 32.2958Z" fill="url(#paint11_linear)"/>
<path d="M23.6288 24.8659L25.9938 22.5009C26.1956 22.2991 26.5239 22.2991 26.7256 22.5009L29.0906 24.8659C29.2083 24.9836 29.3627 25.0425 29.5169 25.0425C29.6712 25.0425 29.8256 24.9836 29.9433 24.8659C30.1787 24.6304 30.1787 24.2486 29.9433 24.0132L27.5783 21.6482C26.9064 20.9763 25.813 20.9763 25.1412 21.6482L22.7762 24.0132C22.5407 24.2487 22.5407 24.6305 22.7762 24.8659C23.0116 25.1013 23.3935 25.1013 23.6288 24.8659Z" fill="url(#paint12_linear)"/>
<path d="M30.0361 28.4966L22.6851 28.4937C21.8436 28.4932 21.1617 27.8107 21.1621 26.9691C21.1626 26.1275 21.8451 25.4456 22.6867 25.446L30.0377 25.4489C30.8793 25.4494 31.5612 26.132 31.5608 26.9736C31.5603 27.8151 30.8777 28.497 30.0361 28.4966Z" fill="url(#paint13_linear)"/>
<path d="M22.3327 25.4897C21.6611 25.6485 21.1606 26.2503 21.1602 26.9704C21.1597 27.812 21.8416 28.4946 22.6831 28.4951L25.3389 28.4961L22.3327 25.4897Z" fill="url(#paint14_linear)"/>
<path d="M11.608 26.4184C10.4654 31.4832 6.51221 35.4828 1.47331 36.6933C0.337445 36.9661 0.0850138 38.4772 1.08815 39.0759C2.99312 40.2128 5.19771 40.8999 7.55538 40.9898C15.272 41.2842 21.7566 35.0555 21.7621 27.3334C21.7621 27.2853 21.762 27.2373 21.7615 27.1893C21.7381 24.7617 19.6722 22.8562 17.2503 23.0253L15.4578 23.1505C13.5979 23.2803 12.0183 24.5996 11.608 26.4184Z" fill="url(#paint15_linear)"/>
<path d="M21.7633 27.3333C21.7633 27.2852 21.7632 27.2372 21.7627 27.1893C21.7393 24.7617 19.6734 22.8562 17.2515 23.0253L15.459 23.1505C13.5991 23.2803 12.0195 24.5996 11.6092 26.4184C11.5529 26.6681 11.4877 26.9143 11.418 27.1586V28.3744L18.8169 35.7732C20.6557 33.4491 21.7611 30.5186 21.7633 27.3333Z" fill="url(#paint16_linear)"/>
<path d="M18.2419 24.0668L18.2386 21.3332C18.238 20.3542 17.444 19.561 16.465 19.5615C15.486 19.5621 14.6929 20.3561 14.6934 21.3351L14.6967 24.0686C14.6972 25.0476 15.4913 25.8408 16.4703 25.8403C17.4493 25.8398 18.2424 25.0457 18.2419 24.0668Z" fill="url(#paint17_linear)"/>
<path d="M21.8911 27.2829C21.8911 27.4233 21.8858 27.5625 21.8753 27.7002C21.838 28.1906 21.4329 28.5814 20.9411 28.5828C20.9382 28.5828 20.9353 28.5828 20.9325 28.5828C19.8356 28.5828 18.8741 27.9431 18.3383 26.9836C17.9512 27.9431 17.2582 28.5828 16.467 28.5828C15.6759 28.5828 14.9829 27.9431 14.5957 26.9836C14.0598 27.9431 13.0985 28.5828 12.0016 28.5828C11.9987 28.5828 11.9958 28.5828 11.993 28.5828C11.5011 28.5813 11.0961 28.1906 11.0588 27.7002C11.0484 27.5625 11.043 27.4233 11.043 27.2829C11.043 25.2414 12.1708 23.4637 13.8373 22.5378C14.6163 22.1048 15.5122 21.8589 16.467 21.8589C17.4219 21.8589 18.3177 22.1048 19.0968 22.5378C20.7633 23.4637 21.8911 25.2415 21.8911 27.2829Z" fill="url(#paint18_linear)"/>
<path d="M2.91257 36.2603C2.44404 36.4294 1.96402 36.5746 1.47331 36.6924C0.337445 36.9653 0.0850134 38.4763 1.08815 39.075C2.99312 40.212 5.19772 40.8991 7.55538 40.9889C11.862 41.1532 15.7843 39.2852 18.4114 36.2603H2.91257Z" fill="url(#paint19_linear)"/>
<defs>
<linearGradient id="paint0_linear" x1="26.631" y1="0.515965" x2="26.5046" y2="3.03139" gradientUnits="userSpaceOnUse">
<stop stop-color="#FFE177"/>
<stop offset="0.207" stop-color="#FFD970"/>
<stop offset="0.5288" stop-color="#FFC35E"/>
<stop offset="0.9233" stop-color="#FE9F3F"/>
<stop offset="1" stop-color="#FE9738"/>
</linearGradient>
<linearGradient id="paint1_linear" x1="22.1896" y1="23.0038" x2="30.8211" y2="23.0038" gradientUnits="userSpaceOnUse">
<stop stop-color="#FE646F"/>
<stop offset="1" stop-color="#FB2B3A"/>
</linearGradient>
<linearGradient id="paint2_linear" x1="22.4311" y1="8.80717" x2="29.91" y2="8.80717" gradientUnits="userSpaceOnUse">
<stop stop-color="#22B27F"/>
<stop offset="1" stop-color="#017B4E"/>
</linearGradient>
<linearGradient id="paint3_linear" x1="26.4252" y1="9.3785" x2="26.4252" y2="4.55184" gradientUnits="userSpaceOnUse">
<stop stop-color="#017B4E" stop-opacity="0"/>
<stop offset="1" stop-color="#026841"/>
</linearGradient>
<linearGradient id="paint4_linear" x1="24.0117" y1="2.31681" x2="28.4349" y2="6.74883" gradientUnits="userSpaceOnUse">
<stop stop-color="#FE646F"/>
<stop offset="1" stop-color="#FB2B3A"/>
</linearGradient>
<linearGradient id="paint5_linear" x1="26.3588" y1="34.89" x2="26.3588" y2="39.7999" gradientUnits="userSpaceOnUse">
<stop stop-color="#F82814" stop-opacity="0"/>
<stop offset="1" stop-color="#C0272D"/>
</linearGradient>
<linearGradient id="paint6_linear" x1="31.9646" y1="36.1957" x2="19.6913" y2="31.6937" gradientUnits="userSpaceOnUse">
<stop stop-color="#C0272D" stop-opacity="0"/>
<stop offset="1" stop-color="#C0272D"/>
</linearGradient>
<linearGradient id="paint7_linear" x1="37.8155" y1="38.4271" x2="29.0384" y2="29.65" gradientUnits="userSpaceOnUse">
<stop stop-color="#C0272D" stop-opacity="0"/>
<stop offset="1" stop-color="#C0272D"/>
</linearGradient>
<linearGradient id="paint8_linear" x1="22.8014" y1="23.4139" x2="28.9526" y2="29.5651" gradientUnits="userSpaceOnUse">
<stop stop-color="#EDF5FF"/>
<stop offset="1" stop-color="#C7E9FF"/>
</linearGradient>
<linearGradient id="paint9_linear" x1="31.0873" y1="36.9539" x2="17.9444" y2="23.8111" gradientUnits="userSpaceOnUse">
<stop stop-color="white" stop-opacity="0"/>
<stop offset="0.3432" stop-color="#CDE0F3" stop-opacity="0.343"/>
<stop offset="0.7872" stop-color="#92BAE4" stop-opacity="0.787"/>
<stop offset="1" stop-color="#7BACDF"/>
</linearGradient>
<linearGradient id="paint10_linear" x1="20.759" y1="23.9027" x2="28.8497" y2="31.9934" gradientUnits="userSpaceOnUse">
<stop stop-color="#FE646F"/>
<stop offset="1" stop-color="#FB2B3A"/>
</linearGradient>
<linearGradient id="paint11_linear" x1="32.67" y1="37.8256" x2="20.4462" y2="25.6018" gradientUnits="userSpaceOnUse">
<stop stop-color="#C0272D" stop-opacity="0"/>
<stop offset="1" stop-color="#C0272D"/>
</linearGradient>
<linearGradient id="paint12_linear" x1="23.2914" y1="21.3712" x2="31.3822" y2="29.4619" gradientUnits="userSpaceOnUse">
<stop stop-color="#FE646F"/>
<stop offset="1" stop-color="#FB2B3A"/>
</linearGradient>
<linearGradient id="paint13_linear" x1="23.9894" y1="24.735" x2="28.4126" y2="29.167" gradientUnits="userSpaceOnUse">
<stop stop-color="#22B27F"/>
<stop offset="1" stop-color="#017B4E"/>
</linearGradient>
<linearGradient id="paint14_linear" x1="27.7633" y1="32.563" x2="19.5412" y2="24.3409" gradientUnits="userSpaceOnUse">
<stop stop-color="#017B4E" stop-opacity="0"/>
<stop offset="1" stop-color="#026841"/>
</linearGradient>
<linearGradient id="paint15_linear" x1="9.5934" y1="30.4783" x2="16.6387" y2="37.5237" gradientUnits="userSpaceOnUse">
<stop stop-color="#FE646F"/>
<stop offset="1" stop-color="#FB2B3A"/>
</linearGradient>
<linearGradient id="paint16_linear" x1="23.5952" y1="33.9345" x2="13.1486" y2="23.4878" gradientUnits="userSpaceOnUse">
<stop stop-color="#C0272D" stop-opacity="0"/>
<stop offset="1" stop-color="#C0272D"/>
</linearGradient>
<linearGradient id="paint17_linear" x1="15.0233" y1="21.126" x2="17.9687" y2="24.0657" gradientUnits="userSpaceOnUse">
<stop stop-color="#22B27F"/>
<stop offset="1" stop-color="#017B4E"/>
</linearGradient>
<linearGradient id="paint18_linear" x1="13.5127" y1="23.7033" x2="19.9343" y2="29.7509" gradientUnits="userSpaceOnUse">
<stop stop-color="#22B27F"/>
<stop offset="1" stop-color="#017B4E"/>
</linearGradient>
<linearGradient id="paint19_linear" x1="9.43616" y1="36.8837" x2="9.43616" y2="42.2011" gradientUnits="userSpaceOnUse">
<stop stop-color="#C0272D" stop-opacity="0"/>
<stop offset="1" stop-color="#C0272D"/>
</linearGradient>
</defs>
</svg>
