<svg width="32" height="32" viewBox="0 0 32 32" fill="none" xmlns="http://www.w3.org/2000/svg">
<path d="M29.1284 22.3277L28.679 21.2418L23.5099 8.75646C23.4621 8.64153 23.3711 8.55053 23.2562 8.50278L9.67377 2.87796C9.55402 2.82803 9.4192 2.83021 9.30077 2.88415C9.18277 2.93765 9.09214 3.03796 9.05064 3.16084L8.20827 5.64996L0.0984532 29.6103L0.0962657 29.6178C-0.124734 30.272 0.0410157 30.9822 0.529391 31.4705C0.773766 31.7149 1.07345 31.8785 1.39383 31.9532C1.71427 32.0278 2.05545 32.0137 2.38245 31.9032L17.7526 26.704L18.6038 25.8245L22.5159 25.0927L26.3573 23.7933L28.846 22.9513C28.9688 22.9098 29.0683 22.8192 29.1221 22.7007C29.1757 22.5827 29.1779 22.448 29.1284 22.3277Z" fill="#F9D11F"/>
<path d="M28.846 22.9517L26.3574 23.7936L22.5159 25.093L18.6038 25.8249L17.7526 26.7044L2.38243 31.9036C2.05536 32.0141 1.71418 32.0282 1.3938 31.9535C1.07336 31.8788 0.773738 31.7153 0.529363 31.4709C0.0409883 30.9825 -0.124699 30.2723 0.0962383 29.6182L0.0984258 29.6107C0.759613 30.1826 1.67836 30.3669 2.51499 30.0845L28.6789 21.2422L29.1283 22.3281C29.1778 22.4482 29.1756 22.5831 29.1221 22.7011C29.0683 22.8196 28.9689 22.9101 28.846 22.9517Z" fill="#FFA402"/>
<path d="M28.8458 22.9513L26.3571 23.7933C26.2364 23.2802 26.0876 22.7405 25.9046 22.1792C24.9597 19.2817 23.1057 15.7951 19.5838 12.2723C15.3773 8.06834 11.3874 6.40746 8.2257 5.66678L8.20801 5.64996L9.05038 3.16084C9.09195 3.03796 9.18251 2.93765 9.30051 2.88415C9.41895 2.83021 9.55376 2.82803 9.67351 2.87796L23.2559 8.50278C23.3709 8.55053 23.4619 8.64153 23.5096 8.75646L28.6787 21.2418L29.1281 22.3277C29.1776 22.4479 29.1754 22.5827 29.1219 22.7007C29.0681 22.8192 28.9686 22.9098 28.8458 22.9513Z" fill="#FDEDA5"/>
<path d="M28.8465 22.9517L26.3578 23.7936C26.2371 23.2805 26.0883 22.7409 25.9053 22.1796L28.6794 21.2422L29.1288 22.3281C29.1783 22.4482 29.1762 22.5831 29.1227 22.7011C29.0688 22.8196 28.9693 22.9101 28.8465 22.9517Z" fill="#FBDF63"/>
<path d="M31.9593 21.8392C31.2628 18.5192 29.3049 13.434 23.9339 8.06288C18.562 2.6935 13.4761 0.736564 10.1553 0.0400012C9.179 -0.164624 8.21732 0.435564 7.96407 1.38888C7.95569 1.42113 7.94813 1.45338 7.94106 1.48613C7.83806 1.97538 7.93225 2.47438 8.20581 2.89288C8.27744 3.00338 8.36006 3.10456 8.45106 3.19563C8.70519 3.44975 9.02738 3.62519 9.38713 3.70038C12.2112 4.29263 16.5679 5.98881 21.2893 10.7076C26.0089 15.4282 27.706 19.7841 28.2986 22.6069C28.3729 22.9631 28.5483 23.2871 28.8051 23.5439L28.8056 23.5443C29.2541 23.9929 29.8928 24.1834 30.5128 24.053C30.5455 24.0459 30.5787 24.0384 30.6105 24.0296C31.0578 23.9111 31.4401 23.6358 31.6946 23.2459C31.9681 22.8274 32.0618 22.328 31.9593 21.8392Z" fill="#F79E60"/>
<path d="M31.96 21.8392C31.2635 18.5192 29.3057 13.434 23.9347 8.06288C18.5628 2.6935 13.4768 0.736564 10.156 0.0400012C9.17978 -0.164624 8.21809 0.435564 7.96484 1.38888C8.23884 1.3155 8.53366 1.30356 8.83016 1.36588C12.151 2.06244 17.2369 4.01938 22.6088 9.38875C27.9798 14.7599 29.9377 19.8451 30.6342 23.1651C30.6952 23.4559 30.6868 23.7507 30.6112 24.0296C31.0585 23.9111 31.4408 23.6358 31.6953 23.2459C31.9689 22.8274 32.0626 22.328 31.96 21.8392Z" fill="#D77D41"/>
<path d="M14.8408 12.4153C14.8408 11.627 14.5338 10.8859 13.9764 10.3284C13.9763 10.3283 13.9762 10.3282 13.9761 10.3282C12.8251 9.1774 10.9522 9.1774 9.80121 10.3282C9.24359 10.8857 8.93652 11.6268 8.93652 12.4153C8.93652 13.2037 9.24352 13.9447 9.80096 14.5022C9.80102 14.5023 9.80115 14.5024 9.80121 14.5025C10.9523 15.6533 12.8251 15.6533 13.9761 14.5025C14.5337 13.945 14.8408 13.2037 14.8408 12.4153Z" fill="#ED2061"/>
<path d="M12.3866 19.6081C12.3865 19.6081 12.3864 19.608 12.3864 19.6079C11.2353 18.4572 9.36243 18.4572 8.21143 19.6079C7.6538 20.1654 7.34668 20.9067 7.34668 21.6951C7.34668 22.4834 7.65368 23.2245 8.21112 23.782C8.21118 23.7821 8.2113 23.7822 8.21143 23.7822C9.36249 24.933 11.2354 24.933 12.3864 23.7822C12.944 23.2247 13.2511 22.4836 13.2511 21.6951C13.2511 20.9067 12.9441 20.1657 12.3866 19.6081Z" fill="#ED2061"/>
<path d="M22.516 25.0929L17.7486 26.6932L17.5431 26.4877C17.1931 26.1377 16.9421 25.7152 16.8033 25.2547C16.7211 24.9815 16.6787 24.6943 16.6787 24.4008C16.6787 23.6124 16.9858 22.8712 17.5431 22.3139C18.119 21.7389 18.8752 21.4512 19.6309 21.4512C20.3867 21.4512 21.1428 21.7389 21.7182 22.3143C22.0227 22.6188 22.2517 22.9759 22.3975 23.3639C22.5672 23.8156 22.6237 24.3079 22.5552 24.8052L22.516 25.0929Z" fill="#ED2061"/>
<path d="M22.5164 25.0934L17.749 26.6938L17.5435 26.4883C17.1935 26.1382 16.9425 25.7157 16.8037 25.2552L22.3979 23.3645C22.5676 23.8162 22.6242 24.3085 22.5557 24.8058L22.5164 25.0934Z" fill="#C71E54"/>
<path d="M7.0626 25.3436C7.03285 25.1382 6.87154 24.9769 6.66617 24.9472C6.62917 24.9418 6.29229 24.8958 5.86236 24.936C5.24629 24.9937 4.73992 25.2049 4.39786 25.5468C4.05579 25.8888 3.84448 26.3952 3.78686 27.0112C3.74661 27.4411 3.79267 27.7779 3.79805 27.8149C3.81292 27.9175 3.86073 28.0092 3.93042 28.0789C4.00011 28.1487 4.09179 28.1964 4.19448 28.2114C4.23142 28.2167 4.56829 28.2627 4.99829 28.2224C5.61436 28.1648 6.12073 27.9536 6.46279 27.6117C6.80485 27.2697 7.01617 26.7634 7.07379 26.1474C7.11398 25.7174 7.06798 25.3806 7.0626 25.3436Z" fill="#68C044"/>
<path d="M17.8583 20.265C17.872 20.2302 17.9937 19.9127 18.0525 19.485C18.137 18.8721 18.0467 18.3309 17.7917 17.9199C17.5367 17.5089 17.0918 17.1878 16.505 16.9913C16.0955 16.8541 15.7571 16.8221 15.7199 16.8189C15.5132 16.8011 15.3194 16.9213 15.2435 17.1145C15.2298 17.1492 15.1082 17.4667 15.0493 17.8944C14.9649 18.5073 15.0551 19.0485 15.3101 19.4595C15.3817 19.5749 15.4682 19.6831 15.5686 19.7834C15.826 20.0408 16.1747 20.2467 16.5967 20.3881C17.0062 20.5254 17.3447 20.5574 17.3818 20.5606C17.5887 20.5783 17.7825 20.4581 17.8583 20.265Z" fill="#68C044"/>
<path d="M9.31878 16.9545L8.6036 15.8396C8.46378 15.6214 8.17385 15.5583 7.95597 15.6981C7.73804 15.8379 7.67472 16.1278 7.81447 16.3458L8.52966 17.4607C8.54828 17.4898 8.56953 17.5161 8.59297 17.5395C8.74541 17.692 8.98841 17.7234 9.17728 17.6022C9.39522 17.4624 9.45853 17.1725 9.31878 16.9545Z" fill="#FDEDA5"/>
<path d="M19.3208 15.7144L18.3148 14.8525C18.1182 14.6841 17.8223 14.7069 17.6538 14.9035C17.4934 15.0908 17.5064 15.3681 17.6779 15.5396C17.6865 15.5482 17.6954 15.5565 17.7048 15.5645L18.7108 16.4264C18.9074 16.5948 19.2033 16.572 19.3718 16.3754C19.5403 16.1788 19.5178 15.882 19.3208 15.7144Z" fill="#FDEDA5"/>
<path d="M15.1616 24.697L15.2878 23.4886C15.3146 23.2313 15.1276 23.0006 14.8702 22.9738C14.6127 22.9469 14.3822 23.1338 14.3553 23.3914L14.2291 24.5998C14.2139 24.746 14.2676 24.8836 14.3641 24.9801C14.4375 25.0535 14.5356 25.1031 14.6468 25.1146C14.9043 25.1415 15.1347 24.9546 15.1616 24.697Z" fill="#FDEDA5"/>
</svg>
