<svg width="32" height="32" viewBox="0 0 32 32" fill="none" xmlns="http://www.w3.org/2000/svg">
<g clip-path="url(#clip0)">
<path d="M8.39552 24.3062V27.6593C8.39552 28.3214 8.93238 28.8583 9.5945 28.8583C10.2566 28.8583 10.7935 28.3214 10.7935 27.6593V19.3055L13.6797 21.2723V25.3099C13.6797 25.972 14.2166 26.5086 14.8787 26.5086C15.5408 26.5086 16.0774 25.972 16.0774 25.3099V22.9063L22.1964 27.0758V30.1588C22.1964 30.8212 22.7332 31.3578 23.3953 31.3578C24.0575 31.3578 24.5941 30.8209 24.5941 30.1588V28.7098L28.5089 31.3771V4.90137C19.4166 4.90137 11.395 9.48488 6.62793 16.4671L8.39552 17.6714V19.3057" fill="#FFE192"/>
<path d="M28.5091 4.90205V1.87982C28.5091 1.16644 27.9144 0.596122 27.2015 0.626396C22.6356 0.82 18.1636 2.02606 14.1133 4.16303C10.0637 6.29952 6.54639 9.30856 3.81322 12.9653C3.38548 13.5373 3.52147 14.3508 4.11181 14.7529L6.62842 16.4678C11.3953 9.48557 19.4168 4.90205 28.5091 4.90205Z" fill="#FF6E37"/>
<path d="M17.0646 14.2245C16.4594 12.8178 14.8285 12.1681 13.4218 12.7733C12.015 13.3786 11.3654 15.0094 11.9706 16.4162C12.5756 17.8229 14.2067 18.4726 15.6134 17.8674C17.0202 17.2624 17.6699 15.6313 17.0646 14.2245Z" fill="#FF5A5A"/>
<path d="M26.3234 15.5055C25.7184 14.0988 24.0873 13.4491 22.6806 14.0543C21.2738 14.6596 20.6242 16.2904 21.2294 17.6972C21.8346 19.1039 23.4655 19.7538 24.8722 19.1486C26.279 18.5434 26.9286 16.9123 26.3234 15.5055Z" fill="#FF5A5A"/>
<path d="M27.8905 21.9136C26.484 22.5188 25.8341 24.1497 26.4393 25.5564C26.8229 26.448 27.6185 27.0349 28.5079 27.1914V21.7295C28.2999 21.7661 28.0929 21.8264 27.8905 21.9136Z" fill="#FF5A5A"/>
<path d="M22.8174 23.4698C22.2122 22.0633 20.5813 21.4134 19.1746 22.0187C18.3372 22.379 17.7683 23.1027 17.5723 23.9259L21.8531 26.8429C22.9146 26.1068 23.3477 24.7023 22.8174 23.4698Z" fill="#FF5A5A"/>
<path d="M24.1513 5.25952C22.655 5.50733 21.2011 5.88062 19.8007 6.36817C19.5395 7.02662 19.5287 7.78468 19.831 8.48659C20.4362 9.89333 22.0671 10.5432 23.4738 9.93801C24.8806 9.33278 25.5302 7.70167 24.925 6.29493C24.7461 5.87915 24.4773 5.53027 24.1513 5.25952Z" fill="#FF5A5A"/>
<path d="M28.5547 0.522474C28.1814 0.164562 27.6914 -0.0202534 27.1748 0.00147516C22.5403 0.198253 17.9226 1.44582 13.8212 3.60989C9.72062 5.77347 6.08657 8.87896 3.31214 12.5906C3.00233 13.005 2.87855 13.5145 2.96375 14.025C3.0492 14.5357 3.33167 14.9776 3.75941 15.2691L6.27602 16.984L6.27627 16.9842L7.77041 18.0023V19.3062C7.77041 19.6515 8.0502 19.9313 8.39542 19.9313C8.74063 19.9313 9.02042 19.6515 9.02042 19.3062V17.672C9.02042 17.4652 8.91812 17.2718 8.74747 17.1554L7.50381 16.3079C8.05508 15.5406 8.64835 14.8053 9.27897 14.1016C9.92716 13.3782 10.6176 12.6893 11.3464 12.0465C12.0478 11.4278 12.7782 10.8433 13.5409 10.3016C14.3334 9.73882 15.1577 9.22417 16.0068 8.75127C16.8574 8.27715 17.7397 7.85576 18.6401 7.48466C18.7529 7.43828 18.8662 7.39238 18.9797 7.34721C18.9736 7.81792 19.0654 8.28838 19.2568 8.73345C19.6154 9.56719 20.2773 10.2115 21.1206 10.5472C21.5276 10.7095 21.9533 10.7903 22.3786 10.7903C22.8344 10.7903 23.2898 10.6973 23.7209 10.512C24.5547 10.1531 25.1987 9.49126 25.5347 8.64824C25.8706 7.80498 25.8579 6.88163 25.4993 6.04789C25.4514 5.93632 25.397 5.82792 25.3376 5.7222C26.1826 5.61771 27.0327 5.55546 27.8838 5.53495V21.2479C26.8689 21.5961 26.0708 22.4156 25.7466 23.4386C25.3877 24.5712 25.6623 25.84 26.4538 26.725C26.8398 27.1566 27.3362 27.4845 27.8838 27.672V30.1952L24.9463 28.1935C24.7546 28.0631 24.5068 28.049 24.302 28.1574C24.0974 28.2658 23.9692 28.4784 23.9692 28.7101V30.1591C23.9692 30.4757 23.7116 30.7331 23.3952 30.7331C23.0788 30.7331 22.8213 30.4755 22.8213 30.1591V27.0761C22.8213 26.9994 22.8071 26.9247 22.781 26.8551C23.6611 25.8876 23.926 24.4637 23.3918 23.2223C22.6516 21.5013 20.6489 20.7035 18.9277 21.444C18.216 21.7501 17.6357 22.2941 17.2753 22.9664L16.4294 22.39C16.238 22.2596 15.9902 22.2457 15.7853 22.3539C15.5805 22.4623 15.4523 22.6749 15.4523 22.9064V25.3102C15.4523 25.6266 15.195 25.8839 14.8786 25.8839C14.5622 25.8839 14.3046 25.6263 14.3046 25.3102V21.2726C14.3046 21.0658 14.2023 20.8724 14.0317 20.756L11.1452 18.7894C10.954 18.659 10.706 18.6449 10.5011 18.7533C10.2963 18.8614 10.1684 19.0743 10.1684 19.3058V27.6596C10.1684 27.9762 9.9108 28.2335 9.5944 28.2335C9.27799 28.2335 9.02066 27.976 9.02066 27.6596V24.3065C9.02066 23.9613 8.74063 23.6815 8.39542 23.6815C8.0502 23.6815 7.77041 23.9613 7.77041 24.3065V27.6596C7.77041 28.6654 8.58878 29.4835 9.5944 29.4835C10.6 29.4835 11.4184 28.6654 11.4184 27.6596V20.4881L13.0546 21.6029V25.3102C13.0546 26.3158 13.8727 27.1339 14.8786 27.1339C15.8842 27.1339 16.7026 26.3158 16.7026 25.3102V24.0887L17.2202 24.4415C17.2204 24.4415 17.2204 24.4418 17.2207 24.4418L21.5014 27.3588L21.5713 27.4064V30.1591C21.5713 31.1647 22.3894 31.9831 23.3952 31.9831C24.4009 31.9831 25.2192 31.1647 25.2192 30.1591V29.892L28.157 31.894C28.5647 32.1718 29.134 31.8686 29.134 31.3773V1.87966C29.1338 1.36232 28.9282 0.880385 28.5547 0.522474ZM18.3151 23.6749C18.5334 23.1913 18.9216 22.8072 19.4216 22.5922C20.5097 22.1241 21.7754 22.6283 22.2436 23.7162C22.5898 24.5214 22.4052 25.4479 21.8142 26.0592L19.5017 24.4835L18.3151 23.6749ZM4.19691 13.8194C4.16835 13.6483 4.20985 13.4779 4.31337 13.3389C6.97744 9.77496 10.467 6.79301 14.4045 4.71536C18.3432 2.63723 22.7771 1.43923 27.2275 1.2505C27.2368 1.25002 27.2461 1.24977 27.2551 1.24977C27.4177 1.24977 27.5713 1.3113 27.6897 1.42482C27.8147 1.54494 27.8835 1.70632 27.8835 1.87941V4.28372C26.8843 4.30643 25.886 4.38553 24.8955 4.51834C24.613 4.55643 24.3301 4.59622 24.0491 4.64261C22.5378 4.89285 21.0393 5.27469 19.5952 5.77762C18.5734 6.13334 17.5739 6.56132 16.6005 7.03276C15.6127 7.51079 14.654 8.05742 13.7353 8.65752C12.8317 9.24786 11.9638 9.88897 11.1342 10.5792C10.2973 11.2757 9.50773 12.0274 8.75968 12.8182C8.0253 13.5948 7.3417 14.4207 6.70596 15.2794C6.62637 15.3868 6.54751 15.4947 6.46963 15.6031L4.46327 14.2359C4.3202 14.1385 4.22548 13.9906 4.19691 13.8194ZM24.3733 8.18535C24.1609 8.71831 23.7539 9.13677 23.2268 9.36358C22.6997 9.59014 22.1162 9.5982 21.5832 9.3858C21.0503 9.17364 20.6318 8.76641 20.405 8.23931C20.2163 7.80034 20.1794 7.32182 20.2951 6.86625C21.2329 6.5518 22.1899 6.28739 23.1584 6.08622C23.4231 6.03129 23.688 5.9788 23.9538 5.93119C24.1199 6.10941 24.2529 6.31376 24.3508 6.54179C24.5776 7.06889 24.5854 7.65239 24.3733 8.18535ZM27.0144 25.309C26.7876 24.7821 26.7798 24.1984 26.9919 23.6654C27.1687 23.2218 27.4805 22.8578 27.8838 22.6173V26.3031C27.5019 26.0748 27.1958 25.7306 27.0144 25.309Z" fill="black"/>
<path d="M13.2614 18.4771C13.6684 18.6392 14.0942 18.72 14.5195 18.72C14.9753 18.72 15.4306 18.6272 15.8618 18.4417C17.5827 17.7012 18.3806 15.6985 17.6401 13.9776C17.2814 13.1438 16.6196 12.4995 15.7763 12.1638C14.9333 11.8279 14.0097 11.8403 13.176 12.1992C12.3422 12.5579 11.6982 13.2197 11.3622 14.063C11.0263 14.906 11.039 15.8296 11.3976 16.6634C11.7563 17.4971 12.4181 18.1411 13.2614 18.4771ZM12.5236 14.5256C12.7358 13.9927 13.143 13.5742 13.6701 13.3474C13.9426 13.2302 14.2304 13.1714 14.5185 13.1714C14.7873 13.1714 15.0563 13.2227 15.3137 13.3252C15.8466 13.5374 16.2651 13.9446 16.4919 14.4714C16.9599 15.5593 16.4555 16.8252 15.3676 17.2932C14.8408 17.52 14.257 17.5279 13.7241 17.3157C13.1911 17.1033 12.7726 16.6961 12.5461 16.1692C12.3193 15.6421 12.3112 15.0584 12.5236 14.5256Z" fill="black"/>
<path d="M22.5191 19.7573C22.9261 19.9196 23.3519 20.0004 23.7772 20.0004C24.233 20.0004 24.6883 19.9074 25.1195 19.7219C25.9532 19.3632 26.5973 18.7014 26.9332 17.8583C27.2692 17.0151 27.2567 16.0917 26.8978 15.2577C26.5392 14.4242 25.8773 13.7799 25.0343 13.444C24.191 13.1081 23.2674 13.1208 22.4339 13.4794C21.6002 13.8381 20.9559 14.4999 20.6199 15.3432C20.2842 16.1865 20.2967 17.1098 20.6553 17.9435C21.014 18.7773 21.6759 19.4216 22.5191 19.7573ZM21.7813 15.8058C21.9935 15.2729 22.4007 14.8547 22.9278 14.6279C23.2003 14.5107 23.4881 14.4518 23.7762 14.4518C24.045 14.4518 24.3141 14.5029 24.5714 14.6054C25.1043 14.8178 25.5228 15.225 25.7496 15.7519C25.9762 16.279 25.9842 16.8627 25.7718 17.3957C25.5594 17.9284 25.1524 18.3469 24.6253 18.5737C24.0985 18.8002 23.5147 18.8083 22.9818 18.5959C22.4488 18.3837 22.0303 17.9765 21.8035 17.4496C21.577 16.9225 21.5692 16.3388 21.7813 15.8058Z" fill="black"/>
<path d="M8.39508 22.4317C8.65949 22.4317 8.90021 22.2582 8.9859 22.0089C9.07184 21.7591 8.98639 21.4706 8.77545 21.3102C8.57306 21.1564 8.2923 21.141 8.0738 21.2706C7.84772 21.4047 7.7298 21.6764 7.78327 21.9335C7.84308 22.2198 8.10212 22.4317 8.39508 22.4317Z" fill="black"/>
</g>
<defs>
<clipPath id="clip0">
<rect width="32" height="32" fill="white"/>
</clipPath>
</defs>
</svg>
