<svg width="24" height="24" viewBox="0 0 24 24" fill="none" xmlns="http://www.w3.org/2000/svg">
<g clip-path="url(#clip0)">
<path d="M22.7263 7.40503H18.6563C17.954 7.40503 17.3826 7.97672 17.3826 8.67947V13.3639H15.8603C15.9449 13.0563 15.9763 12.6936 15.9557 12.2714V12.2714C15.9226 10.4873 15.5989 8.98378 14.9934 7.80244C14.5233 6.88523 13.9746 6.33534 13.5038 6.00661C14.0564 5.43844 14.3759 4.63017 14.3759 3.69797C14.3759 2.02073 13.038 0.65625 11.3934 0.65625C9.74892 0.65625 8.41097 2.02073 8.41097 3.69797C8.41097 3.89217 8.56838 4.04953 8.76253 4.04953H9.00141C8.97942 4.18219 8.9677 4.31737 8.9677 4.45467C8.9677 5.63667 9.8123 6.62456 10.929 6.84595C10.8119 7.28058 10.7537 7.79306 10.754 8.37525L9.87712 9.12942L7.74361 9.30197L5.28253 8.48841C5.05697 8.41341 4.80131 8.32866 4.5795 8.48859C4.36092 8.64633 4.36092 8.92247 4.36092 9.01317V10.8429C4.36092 11.0371 4.51833 11.1945 4.71248 11.1945H5.13103L4.48908 13.4128C4.43512 13.5993 4.54256 13.7943 4.72908 13.8482C4.91569 13.9025 5.11055 13.7947 5.16455 13.6083L5.86308 11.1945H6.86255C5.61942 14.9854 6.32873 17.5158 7.419 20.0766H6.78703L4.15486 17.1335L4.71145 15.2107C4.76545 15.0242 4.65802 14.8292 4.4715 14.7753C4.28498 14.7213 4.09003 14.8288 4.03603 15.0152L3.50367 16.8545C1.85714 16.827 0.384329 17.9622 0.00900052 19.5955C-0.0344526 19.7847 0.0836255 19.9733 0.272766 20.0168L0.771844 20.1316C0.644344 21.456 1.51645 22.7054 2.84648 23.0115C3.04847 23.0581 3.25219 23.0811 3.4545 23.0811C3.95344 23.0811 4.44361 22.9412 4.87716 22.6695C5.38598 22.3506 5.76511 21.8819 5.97028 21.3279L6.36408 21.4185C6.48141 21.4456 6.59269 21.4594 6.70388 21.3995C6.80733 21.3438 6.87609 21.2433 6.90188 21.1298C6.92663 21.0147 6.94547 20.8978 6.95855 20.7797H14.3113C14.5464 22.2416 15.7902 23.3436 17.2757 23.3436C18.7612 23.3436 20.0051 22.2416 20.2402 20.7797H20.5086C20.5086 20.7797 20.5618 20.7803 20.574 20.7803C20.6745 20.7803 20.8197 20.7692 20.939 20.6479C20.9986 20.5872 21.0687 20.4786 21.0633 20.306C21.0534 19.9759 21.0038 19.6569 20.9193 19.3537C21.1993 17.6536 20.9299 16.6182 20.5305 15.8079C20.783 15.6424 20.9504 15.3572 20.9504 15.0332V14.067H22.7262C23.4285 14.067 23.9999 13.4953 23.9999 12.7925V8.67942C24 7.97672 23.4286 7.40503 22.7263 7.40503ZM4.5038 22.0738C4.05375 22.3558 3.52125 22.4455 3.00431 22.3265H3.00427C2.0528 22.1075 1.41802 21.235 1.46428 20.2916L5.2777 21.1693C5.11992 21.5407 4.85297 21.855 4.5038 22.0738ZM6.26292 20.6738L0.79425 19.4154C1.21627 18.2597 2.35195 17.4947 3.59334 17.5605L6.2723 20.5559C6.26995 20.5954 6.26686 20.6347 6.26292 20.6738ZM11.5732 14.5475C11.4711 14.8166 11.4711 15.1485 11.4711 15.6078V16.9344H10.1838V15.1144C10.1838 13.0567 11.3068 12.69 11.8108 12.6294H15.2575C15.2436 13.0965 15.1382 13.4284 14.9382 13.6391C14.705 13.8847 14.3061 14.0043 13.7184 14.0048L12.4565 14.0062C12.0065 14.0062 11.7093 14.1883 11.5732 14.5475ZM11.4711 17.6375V18.477C11.4679 18.477 11.4646 18.477 11.4613 18.477H8.96409C8.99217 18.2166 9.07327 18.0151 9.20644 17.8757C9.40453 17.6685 9.68353 17.6375 9.83222 17.6375H11.4711ZM15.242 11.9264H12.0448C11.9164 11.5223 11.8019 11.0799 11.7078 10.6252L12.6798 9.99431C13.2105 9.64973 13.4865 9.16284 13.4372 8.65842C13.3935 8.21128 13.0895 7.81186 12.6628 7.64091C12.273 7.48481 11.8536 7.53384 11.4828 7.77089C11.5134 7.43461 11.5703 7.13442 11.6526 6.87961C11.8025 6.86414 11.9513 6.83484 12.0975 6.79186C12.395 6.72277 12.6699 6.61266 12.9181 6.46664C13.5952 6.87117 15.0844 8.1833 15.242 11.9264ZM9.13983 3.34645C9.30562 2.22314 10.2531 1.35942 11.3934 1.35942C12.6502 1.35942 13.6728 2.40853 13.6728 3.69802C13.6728 4.7468 13.1699 5.59209 12.3589 5.96409V4.11427C12.3589 3.79397 12.2363 3.40106 11.6526 3.34791C11.642 3.34692 11.6313 3.34645 11.6207 3.34645H9.13983ZM9.67087 4.45472C9.67087 4.31597 9.68667 4.18045 9.71775 4.04958H11.6034C11.6251 4.05192 11.641 4.05445 11.6523 4.05675C11.6542 4.06978 11.6558 4.08853 11.6558 4.11427V6.17095C11.572 6.18328 11.4877 6.18952 11.4035 6.18956C11.4027 6.18956 11.4019 6.18956 11.4011 6.18956C10.4469 6.18867 9.67087 5.41078 9.67087 4.45472ZM9.21511 9.88847L10.0478 9.82111C10.122 9.81516 10.1924 9.78576 10.2488 9.73725L11.7517 8.44467L11.7519 8.44444C11.8972 8.31923 12.0523 8.25501 12.2033 8.25501C12.2706 8.25501 12.337 8.26777 12.4013 8.29355C12.5871 8.36794 12.719 8.538 12.7375 8.72672C12.7607 8.96423 12.6042 9.20498 12.297 9.40448L10.6224 10.4914H9.2152V9.88847H9.21511ZM7.72936 10.0087L8.51198 9.94537V10.4915H7.60256C7.48467 10.4915 7.45594 10.3935 7.45256 10.3114C7.45064 10.2648 7.45505 10.0312 7.72936 10.0087ZM6.89728 9.76594C6.79139 9.93956 6.74194 10.1427 6.75005 10.3402C6.75216 10.3913 6.75867 10.4406 6.76777 10.4886C6.76777 10.4895 6.7672 10.4905 6.76739 10.4915H5.06414V9.1568L6.89864 9.76322C6.89808 9.76416 6.8978 9.76505 6.89728 9.76594ZM7.60453 11.1946H10.7265C10.7944 11.1946 10.8609 11.1749 10.9178 11.1379L11.077 11.0346C11.1535 11.373 11.2407 11.7022 11.3357 12.0132C10.6187 12.2248 9.48061 12.9088 9.48061 15.1143V16.9697C9.23395 17.0195 8.94216 17.1345 8.69808 17.3899C8.44078 17.6592 8.29383 18.024 8.25858 18.4769H7.54936C6.8347 16.4173 6.56292 14.2256 7.60453 11.1946ZM8.184 20.0754C8.05406 19.7766 7.92881 19.4789 7.81088 19.1801H11.4612C11.9343 19.1801 12.1742 18.9647 12.1742 18.54V17.286V15.9593H14.9491C15.1433 15.9593 15.3007 15.8019 15.3007 15.6077C15.3007 15.4135 15.1433 15.2562 14.9491 15.2562H12.1767C12.1812 15.0565 12.194 14.8932 12.2306 14.7967C12.2484 14.7498 12.2638 14.7093 12.4568 14.7093L13.7191 14.708C14.5096 14.7072 15.0752 14.516 15.4481 14.1232C15.4653 14.1051 15.4816 14.086 15.498 14.067H17.7342H20.2474V15.0332C20.2474 15.1541 20.1456 15.2562 20.025 15.2562H16.5251C16.3309 15.2562 16.1735 15.4135 16.1735 15.6077C16.1735 15.8019 16.3309 15.9593 16.5251 15.9593H19.8184C20.0963 16.4751 20.3462 17.1168 20.3314 18.1308C19.6358 17.1646 18.5099 16.5434 17.232 16.5434C16.2057 16.5434 15.2427 16.946 14.5203 17.677C13.8793 18.3256 13.4943 19.1674 13.4151 20.0766L8.184 20.0754ZM17.2758 22.6406C16.1767 22.6406 15.2498 21.8487 15.0256 20.7798H19.526C19.3017 21.8486 18.3748 22.6406 17.2758 22.6406ZM19.9253 20.0767H14.6263H14.1212C14.2938 18.487 15.623 17.2465 17.232 17.2465C18.6445 17.2465 19.8308 18.178 20.2237 19.4819C20.2249 19.486 20.2262 19.4902 20.2276 19.4942C20.2831 19.6813 20.3224 19.876 20.3436 20.0767H19.9253ZM23.2969 12.7926C23.2969 13.1076 23.0409 13.3639 22.7263 13.3639H18.0857V11.5484H23.2969V12.7926ZM23.2969 10.8452H18.0857V10.0975H23.2969V10.8452ZM23.2969 9.39441H18.0857V8.67947C18.0857 8.36442 18.3417 8.10816 18.6563 8.10816H22.7263C23.0409 8.10816 23.2969 8.36447 23.2969 8.67947V9.39441Z" fill="#523429"/>
</g>
<defs>
<clipPath id="clip0">
<rect width="24" height="24" fill="white"/>
</clipPath>
</defs>
</svg>
