<svg width="38" height="38" viewBox="0 0 38 38" fill="none" xmlns="http://www.w3.org/2000/svg">
<path d="M24.9061 10.1849C24.7835 9.17719 24.2963 8.24922 23.5363 7.57616C22.7764 6.9031 21.7964 6.53149 20.7812 6.53149C19.7661 6.53149 18.786 6.9031 18.0261 7.57616C17.2662 8.24922 16.7789 9.17719 16.6563 10.1849C16.2549 10.3185 15.9142 10.5905 15.695 10.9524C15.4759 11.3143 15.3928 11.7423 15.4604 12.1599C15.5281 12.5775 15.7422 12.9573 16.0643 13.2315C16.3865 13.5057 16.7957 13.6562 17.2187 13.6563C17.4161 13.6563 19.6027 14.8438 20.7812 14.8438C21.9597 14.8438 24.1464 13.6563 24.3437 13.6563C24.7667 13.6562 25.176 13.5057 25.4981 13.2315C25.8203 12.9573 26.0343 12.5775 26.102 12.1599C26.1696 11.7423 26.0865 11.3143 25.8674 10.9524C25.6483 10.5905 25.3075 10.3185 24.9061 10.1849Z" fill="#ED8989"/>
<path d="M20.7812 31.4688L15.4375 13.6562H26.125L20.7812 31.4688Z" fill="#A36F58"/>
<path d="M16.0312 21.9688H36.2188V31.4688H16.0312V21.9688Z" fill="#ED6F6D"/>
<path d="M16.0312 24.9375H36.2188V28.5H16.0312V24.9375Z" fill="#EB423F"/>
<path d="M31.4688 19.5938C32.4525 19.5938 33.25 18.7963 33.25 17.8125C33.25 16.8287 32.4525 16.0312 31.4688 16.0312C30.485 16.0312 29.6875 16.8287 29.6875 17.8125C29.6875 18.7963 30.485 19.5938 31.4688 19.5938Z" fill="#C7312E"/>
<path d="M33.8438 19.5938H16.0312V21.9688H33.8438V31.4688H36.2188V21.9688V19.5938H33.8438Z" fill="#FFC9C9"/>
<path d="M2.96875 25.5312V26.7188L3.93137 30.5693C3.9956 30.8262 4.14387 31.0543 4.35261 31.2172C4.56135 31.3802 4.81857 31.4687 5.08339 31.4688H19.8541C20.1189 31.4687 20.3762 31.3802 20.5849 31.2172C20.7936 31.0543 20.9419 30.8262 21.0061 30.5693L21.9688 26.7188V25.5312H2.96875Z" fill="#A36F58"/>
<path d="M21.9688 22.8085C22.7276 23.6238 23.1562 24.5499 23.1562 25.5312V26.125C23.1562 26.7809 22.3588 27.3125 21.375 27.3125C20.3912 27.3125 19.5938 26.7809 19.5938 26.125C19.5938 26.7809 18.7963 27.3125 17.8125 27.3125C16.8287 27.3125 16.0312 26.7809 16.0312 26.125C16.0312 26.7809 15.2338 27.3125 14.25 27.3125C13.2662 27.3125 12.4688 26.7809 12.4688 26.125C12.4688 26.7809 11.6713 27.3125 10.6875 27.3125C9.70373 27.3125 8.90625 26.7809 8.90625 26.125C8.90625 26.7809 8.10877 27.3125 7.125 27.3125C6.14123 27.3125 5.34375 26.7809 5.34375 26.125C5.34375 26.7809 4.54627 27.3125 3.5625 27.3125C2.57873 27.3125 1.78125 26.7809 1.78125 26.125V25.5312C1.78125 24.5499 2.20986 23.6238 2.96875 22.8085V22.5625C2.96875 18.9555 9.5 17.8125 12.4688 17.8125C15.4375 17.8125 21.9688 18.9555 21.9688 22.5625V22.8085Z" fill="#FFB632"/>
<path d="M36.2188 19H33.5246C33.7101 18.6798 33.8181 18.3206 33.8399 17.9512C33.8618 17.5817 33.7969 17.2123 33.6505 16.8724C33.5041 16.5326 33.2802 16.2317 32.9968 15.9938C32.7133 15.7559 32.3781 15.5876 32.018 15.5024C31.977 15.2065 31.9045 14.9158 31.8018 14.6353C31.4217 13.621 30.6707 13.0625 29.6875 13.0625C29.53 13.0625 29.379 13.125 29.2677 13.2364C29.1563 13.3477 29.0938 13.4988 29.0938 13.6562C29.0938 13.8137 29.1563 13.9647 29.2677 14.0761C29.379 14.1874 29.53 14.25 29.6875 14.25C29.9844 14.25 30.4107 14.3307 30.6814 15.0293C30.7427 15.1911 30.7889 15.3583 30.8196 15.5286C30.4719 15.6271 30.1514 15.8037 29.8824 16.0449C29.6134 16.2861 29.4031 16.5855 29.2674 16.9204C29.1318 17.2552 29.0744 17.6167 29.0997 17.9771C29.125 18.3375 29.2322 18.6873 29.4133 19H25.1418L26.6937 13.8269C26.7354 13.689 26.7253 13.5407 26.6653 13.4097C26.6053 13.2788 26.4996 13.1742 26.3681 13.1156C26.5385 12.8379 26.65 12.5281 26.6956 12.2055C26.7411 11.8828 26.7197 11.5543 26.6328 11.2403C26.5458 10.9263 26.3951 10.6335 26.1901 10.3803C25.9851 10.127 25.7302 9.91872 25.4411 9.76829C25.2284 8.68881 24.6474 7.71668 23.7975 7.01795C22.9476 6.31921 21.8815 5.93723 20.7812 5.93723C19.681 5.93723 18.6149 6.31921 17.765 7.01795C16.9151 7.71668 16.3341 8.68881 16.1214 9.76829C15.8323 9.91872 15.5774 10.127 15.3724 10.3803C15.1674 10.6335 15.0167 10.9263 14.9297 11.2403C14.8428 11.5543 14.8214 11.8828 14.8669 12.2055C14.9125 12.5281 15.024 12.8379 15.1944 13.1156C15.0628 13.1742 14.9572 13.2788 14.8972 13.4097C14.8373 13.5407 14.8271 13.689 14.8688 13.8269L15.9961 17.5849C14.834 17.3555 13.6533 17.2329 12.4688 17.2187C10.9983 17.2187 8.5267 17.496 6.40062 18.2775C3.0734 19.5006 2.375 21.2828 2.375 22.5625V22.5816C1.59719 23.4849 1.1875 24.5002 1.1875 25.5312V26.125C1.1875 26.8707 1.76923 27.4957 2.61821 27.7646L3.35536 30.7133C3.45133 31.0989 3.67363 31.4413 3.98682 31.6858C4.30001 31.9303 4.68605 32.0629 5.08339 32.0625H36.2188C36.3762 32.0625 36.5272 31.9999 36.6386 31.8886C36.7499 31.7772 36.8125 31.6262 36.8125 31.4687V19.5937C36.8125 19.4363 36.7499 19.2852 36.6386 19.1739C36.5272 19.0625 36.3762 19 36.2188 19ZM31.4688 16.625C31.7036 16.625 31.9332 16.6946 32.1285 16.8251C32.3238 16.9556 32.476 17.1411 32.5659 17.3581C32.6557 17.575 32.6793 17.8138 32.6334 18.0442C32.5876 18.2745 32.4745 18.4861 32.3084 18.6522C32.1424 18.8183 31.9308 18.9314 31.7004 18.9772C31.4701 19.023 31.2313 18.9995 31.0143 18.9096C30.7973 18.8197 30.6119 18.6675 30.4814 18.4722C30.3509 18.2769 30.2812 18.0474 30.2812 17.8125C30.2816 17.4977 30.4069 17.1958 30.6295 16.9732C30.8521 16.7506 31.1539 16.6254 31.4688 16.625ZM24.9707 15.4375H20.7812C20.6626 15.4375 20.5467 15.473 20.4484 15.5395C20.3502 15.6059 20.2741 15.7003 20.23 15.8104L19.1464 18.5199C18.9534 18.4369 18.7503 18.356 18.537 18.2773C18.1437 18.1325 17.7377 18.0052 17.3289 17.8936L16.9481 16.625H17.8125C17.97 16.625 18.121 16.5624 18.2323 16.4511C18.3437 16.3397 18.4062 16.1887 18.4062 16.0312C18.4062 15.8738 18.3437 15.7227 18.2323 15.6114C18.121 15.5 17.97 15.4375 17.8125 15.4375H16.625C16.6139 15.4375 16.6032 15.4385 16.5923 15.4391L16.2355 14.25H25.3273L24.9707 15.4375ZM22.3747 18.3758C22.4487 18.4005 22.5268 18.4103 22.6046 18.4048C22.6824 18.3993 22.7583 18.3785 22.8281 18.3436C22.8978 18.3087 22.96 18.2605 23.0111 18.2016C23.0622 18.1426 23.1012 18.0742 23.1258 18.0003L23.5843 16.625H24.6145L23.902 19H20.2332L21.1832 16.625H22.3324L21.9992 17.6247C21.9745 17.6987 21.9647 17.7768 21.9702 17.8546C21.9757 17.9324 21.9965 18.0083 22.0314 18.0781C22.0663 18.1478 22.1145 18.21 22.1734 18.2611C22.2323 18.3122 22.3007 18.3512 22.3747 18.3758ZM16.8437 10.7483C16.9505 10.7128 17.045 10.6476 17.1161 10.5605C17.1873 10.4733 17.2323 10.3678 17.2458 10.2561C17.351 9.39241 17.7686 8.59714 18.42 8.02032C19.0713 7.4435 19.9112 7.12504 20.7812 7.12504C21.6513 7.12504 22.4912 7.4435 23.1425 8.02032C23.7939 8.59714 24.2115 9.39241 24.3167 10.2561C24.3302 10.3678 24.3752 10.4733 24.4464 10.5605C24.5175 10.6476 24.612 10.7128 24.7188 10.7483C24.9864 10.8373 25.2135 11.0187 25.3596 11.26C25.5056 11.5012 25.561 11.7866 25.5159 12.065C25.4708 12.3433 25.3281 12.5966 25.1133 12.7793C24.8986 12.9621 24.6258 13.0625 24.3438 13.0625H17.2188C16.9367 13.0625 16.6639 12.9621 16.4492 12.7793C16.2344 12.5966 16.0917 12.3433 16.0466 12.065C16.0015 11.7866 16.0569 11.5012 16.2029 11.26C16.349 11.0187 16.5761 10.8373 16.8437 10.7483ZM20.4302 30.4252C20.3982 30.5537 20.3241 30.6678 20.2197 30.7494C20.1153 30.8309 19.9866 30.8751 19.8541 30.875H5.08339C4.95093 30.8751 4.82223 30.8309 4.71782 30.7494C4.61341 30.6679 4.5393 30.5538 4.5073 30.4252L3.87422 27.8914C4.46159 27.8361 4.976 27.6263 5.34412 27.3154C5.77563 27.6799 6.40857 27.9062 7.125 27.9062C7.84143 27.9062 8.47437 27.6799 8.90625 27.3151C9.33813 27.6799 9.97107 27.9062 10.6875 27.9062C11.4039 27.9062 12.0369 27.6799 12.4688 27.3151C12.9006 27.6799 13.5336 27.9062 14.25 27.9062C14.9664 27.9062 15.5994 27.6799 16.0312 27.3151C16.4631 27.6799 17.0961 27.9062 17.8125 27.9062C18.5289 27.9062 19.1619 27.6799 19.5938 27.3151C19.9619 27.626 20.4762 27.8358 21.0637 27.8911L20.4302 30.4252ZM20.1875 26.125C20.1875 25.9675 20.1249 25.8165 20.0136 25.7051C19.9022 25.5938 19.7512 25.5312 19.5938 25.5312C19.4363 25.5312 19.2853 25.5938 19.1739 25.7051C19.0626 25.8165 19 25.9675 19 26.125C19 26.3671 18.5374 26.7187 17.8125 26.7187C17.0876 26.7187 16.625 26.3671 16.625 26.125C16.625 25.9675 16.5624 25.8165 16.4511 25.7051C16.3397 25.5938 16.1887 25.5312 16.0312 25.5312C15.8738 25.5312 15.7228 25.5938 15.6114 25.7051C15.5001 25.8165 15.4375 25.9675 15.4375 26.125C15.4375 26.3671 14.9749 26.7187 14.25 26.7187C13.5251 26.7187 13.0625 26.3671 13.0625 26.125C13.0625 25.9675 12.9999 25.8165 12.8886 25.7051C12.7772 25.5938 12.6262 25.5312 12.4688 25.5312C12.3113 25.5312 12.1603 25.5938 12.0489 25.7051C11.9376 25.8165 11.875 25.9675 11.875 26.125C11.875 26.3671 11.4124 26.7187 10.6875 26.7187C9.96261 26.7187 9.5 26.3671 9.5 26.125C9.5 25.9675 9.43744 25.8165 9.32609 25.7051C9.21474 25.5938 9.06372 25.5312 8.90625 25.5312C8.74878 25.5312 8.59775 25.5938 8.48641 25.7051C8.37506 25.8165 8.3125 25.9675 8.3125 26.125C8.3125 26.3671 7.84989 26.7187 7.125 26.7187C6.40011 26.7187 5.9375 26.3671 5.9375 26.125C5.9375 25.9675 5.87494 25.8165 5.76359 25.7051C5.65225 25.5938 5.50122 25.5312 5.34375 25.5312C5.18628 25.5312 5.03526 25.5938 4.92391 25.7051C4.81256 25.8165 4.75 25.9675 4.75 26.125C4.75 26.3671 4.28739 26.7187 3.5625 26.7187C2.83761 26.7187 2.375 26.3671 2.375 26.125V25.5312C2.375 24.7263 2.72101 23.9463 3.40337 23.213C3.50565 23.1031 3.56251 22.9586 3.5625 22.8085V22.5625C3.5625 20.9289 5.32891 19.9368 6.81031 19.3921C8.78995 18.6644 11.0957 18.4062 12.4688 18.4062C13.8418 18.4062 16.1476 18.6644 18.1272 19.3921C19.6086 19.9368 21.375 20.9289 21.375 22.5625V22.8085C21.375 22.9586 21.4318 23.1031 21.5341 23.213C22.2165 23.9463 22.5625 24.7263 22.5625 25.5312V26.125C22.5625 26.3671 22.0999 26.7187 21.375 26.7187C20.6501 26.7187 20.1875 26.3671 20.1875 26.125ZM33.25 30.875H21.5329C21.5515 30.8222 21.5683 30.7685 21.5821 30.7133L21.987 29.0937H33.25V30.875ZM33.25 27.9062H22.2839L22.3193 27.7646C23.1683 27.4957 23.75 26.8707 23.75 26.125V25.5312H33.25V27.9062ZM33.25 24.3437H23.5666C23.3566 23.6936 23.0147 23.0938 22.5625 22.5816V22.5625H33.25V24.3437ZM35.625 30.875H34.4375V21.9687C34.4375 21.8113 34.3749 21.6602 34.2636 21.5489C34.1522 21.4375 34.0012 21.375 33.8438 21.375H22.349C22.1817 20.9375 21.9346 20.5348 21.6204 20.1875H35.625V30.875Z" fill="black"/>
<path d="M10.4998 19.6242L8.71852 20.2179C8.64454 20.2426 8.57615 20.2816 8.51724 20.3327C8.45833 20.3838 8.41006 20.446 8.37519 20.5157C8.30476 20.6566 8.29317 20.8196 8.34297 20.969C8.39277 21.1184 8.49988 21.2419 8.64074 21.3124C8.7816 21.3828 8.94466 21.3944 9.09407 21.3446L10.8753 20.7508C10.9493 20.7262 11.0177 20.6872 11.0766 20.6361C11.1355 20.585 11.1838 20.5228 11.2186 20.4531C11.2535 20.3833 11.2743 20.3074 11.2798 20.2296C11.2854 20.1518 11.2755 20.0737 11.2509 19.9997C11.2262 19.9258 11.1872 19.8574 11.1361 19.7985C11.085 19.7396 11.0228 19.6913 10.9531 19.6564C10.8834 19.6215 10.8074 19.6007 10.7296 19.5952C10.6519 19.5897 10.5737 19.5995 10.4998 19.6242Z" fill="black"/>
<path d="M12.4688 20.7812C12.3113 20.7812 12.1603 20.8438 12.0489 20.9552C11.9376 21.0665 11.875 21.2175 11.875 21.375V22.5625C11.875 22.72 11.9376 22.871 12.0489 22.9823C12.1603 23.0937 12.3113 23.1562 12.4688 23.1562C12.6262 23.1562 12.7772 23.0937 12.8886 22.9823C12.9999 22.871 13.0625 22.72 13.0625 22.5625V21.375C13.0625 21.2175 12.9999 21.0665 12.8886 20.9552C12.7772 20.8438 12.6262 20.7812 12.4688 20.7812Z" fill="black"/>
<path d="M16.2191 20.2179L14.4378 19.6242C14.2884 19.5744 14.1253 19.586 13.9845 19.6564C13.8436 19.7268 13.7365 19.8503 13.6867 19.9997C13.6369 20.1491 13.6485 20.3122 13.7189 20.4531C13.7894 20.5939 13.9129 20.701 14.0623 20.7508L15.8435 21.3446C15.9175 21.3692 15.9956 21.3791 16.0734 21.3736C16.1512 21.368 16.2271 21.3472 16.2968 21.3124C16.3666 21.2775 16.4288 21.2292 16.4799 21.1703C16.531 21.1114 16.57 21.043 16.5946 20.969C16.6193 20.8951 16.6291 20.817 16.6236 20.7392C16.6181 20.6614 16.5973 20.5855 16.5624 20.5157C16.5275 20.446 16.4793 20.3838 16.4203 20.3327C16.3614 20.2816 16.293 20.2426 16.2191 20.2179Z" fill="black"/>
<path d="M20.7812 9.5C21.0961 9.50037 21.3979 9.6256 21.6205 9.84822C21.8431 10.0708 21.9684 10.3727 21.9688 10.6875C21.9688 10.845 22.0313 10.996 22.1427 11.1073C22.254 11.2187 22.405 11.2812 22.5625 11.2812C22.72 11.2812 22.871 11.2187 22.9823 11.1073C23.0937 10.996 23.1562 10.845 23.1562 10.6875C23.1555 10.0578 22.9051 9.45415 22.4598 9.0089C22.0146 8.56366 21.4109 8.31321 20.7812 8.3125C20.6238 8.3125 20.4728 8.37506 20.3614 8.48641C20.2501 8.59776 20.1875 8.74878 20.1875 8.90625C20.1875 9.06372 20.2501 9.21474 20.3614 9.32609C20.4728 9.43744 20.6238 9.5 20.7812 9.5Z" fill="black"/>
</svg>
