<svg width="24" height="24" viewBox="0 0 24 24" fill="none" xmlns="http://www.w3.org/2000/svg">
<path d="M16.9954 8.08873L16.7386 7.24353C16.4124 6.28343 15.3696 5.76958 14.4095 6.09578C13.8694 6.27928 13.4453 6.70343 13.2618 7.24353L13.005 8.08873C12.7889 8.80153 12.7435 9.55518 12.8726 10.2887C12.9903 10.9063 13.3824 11.4369 13.9382 11.7307L13.6506 18.1599C13.6121 18.5188 13.7285 18.877 13.9706 19.1447C14.4912 19.7142 15.375 19.7538 15.9445 19.2332C15.9753 19.205 16.0048 19.1755 16.033 19.1447C16.2697 18.8846 16.3859 18.5369 16.353 18.1867L16.0638 11.7299C16.6188 11.436 17.0103 10.9057 17.1278 10.2887C17.2568 9.55518 17.2115 8.80153 16.9954 8.08873ZM16.3398 10.1495C16.2532 10.5932 15.937 10.9573 15.5098 11.1051C15.3476 11.1661 15.2432 11.3245 15.251 11.4975L15.555 18.2499C15.569 18.3824 15.5253 18.5144 15.435 18.6123C15.1941 18.8508 14.8062 18.8508 14.5654 18.6123C14.4706 18.5065 14.4275 18.3641 14.4478 18.2235L14.7494 11.4975C14.7572 11.3245 14.6527 11.1661 14.4906 11.1051C14.0634 10.9573 13.7472 10.5932 13.6606 10.1495C13.5536 9.54053 13.5913 8.91488 13.7706 8.32313L14.0274 7.47753C14.2261 6.94028 14.8227 6.66583 15.36 6.86453C15.644 6.96958 15.8679 7.19353 15.973 7.47753L16.2298 8.32313C16.4089 8.91493 16.4466 9.54053 16.3398 10.1495Z" fill="#523429"/>
<path d="M10.8008 6C10.5799 6 10.4008 6.1791 10.4008 6.4V9.8344L9.31798 10.9172C9.23788 10.997 9.19528 11.107 9.20078 11.22L9.55078 18.22C9.55913 18.371 9.50433 18.5186 9.39958 18.6276C9.18063 18.8485 8.82403 18.8501 8.60308 18.6311C8.60188 18.63 8.60073 18.6288 8.59958 18.6276C8.49478 18.5186 8.44003 18.371 8.44838 18.22L8.80078 11.22C8.80638 11.1071 8.76393 10.9971 8.68398 10.9172L7.60078 9.8344V6.4C7.60078 6.1791 7.42168 6 7.20078 6C6.97988 6 6.80078 6.1791 6.80078 6.4V10C6.80078 10.1061 6.84298 10.2078 6.91798 10.2828L7.99238 11.3576L7.65118 18.1812C7.61488 18.9266 8.18968 19.5603 8.93503 19.5966C9.68038 19.6329 10.3141 19.0581 10.3504 18.3127C10.3525 18.2689 10.3525 18.2251 10.3504 18.1813L10.0092 11.3577L11.0836 10.2829C11.1586 10.2079 11.2008 10.1062 11.2008 10.0001V6.40005C11.2008 6.1791 11.0217 6 10.8008 6Z" fill="#523429"/>
<path d="M8.4 6C8.1791 6 8 6.1791 8 6.4V9.6C8 9.8209 8.1791 10 8.4 10C8.6209 10 8.8 9.8209 8.8 9.6V6.4C8.8 6.1791 8.6209 6 8.4 6Z" fill="#523429"/>
<path d="M9.59922 6C9.37832 6 9.19922 6.1791 9.19922 6.4V9.6C9.19922 9.8209 9.37832 10 9.59922 10C9.82012 10 9.99922 9.8209 9.99922 9.6V6.4C9.99922 6.1791 9.82012 6 9.59922 6Z" fill="#523429"/>
<path d="M12 0C5.3726 0 0 5.3726 0 12C0 18.6274 5.3726 24 12 24C18.6274 24 24 18.6274 24 12C23.9925 5.3757 18.6243 0.0075 12 0ZM12 23.2C5.8144 23.2 0.8 18.1856 0.8 12C0.8 5.8144 5.8144 0.8 12 0.8C18.1856 0.8 23.2 5.8144 23.2 12C23.193 18.1826 18.1826 23.193 12 23.2Z" fill="#523429"/>
<path d="M13.2979 19.5085C13.2764 19.2887 13.0808 19.1278 12.8609 19.1493C12.8557 19.1498 12.8506 19.1504 12.8454 19.1511L12.847 19.1507C12.2839 19.2161 11.715 19.2161 11.1518 19.1507C10.9323 19.1249 10.7336 19.282 10.7078 19.5015C10.6821 19.721 10.8391 19.9197 11.0586 19.9455C11.6832 20.0184 12.3141 20.0184 12.9386 19.9455C13.1585 19.9241 13.3193 19.7284 13.2979 19.5085Z" fill="#523429"/>
<path d="M18.1201 6.84572C17.9782 6.67647 17.7259 6.65432 17.5566 6.79632C17.5561 6.79677 17.5555 6.79727 17.5549 6.79772C17.3861 6.94012 17.3646 7.19242 17.5069 7.36132C19.9187 10.2243 19.7342 14.4578 17.0825 17.1001C16.926 17.2561 16.9256 17.5094 17.0815 17.6659C17.2375 17.8224 17.4908 17.8229 17.6473 17.6669C20.5942 14.7313 20.7997 10.0272 18.1201 6.84572Z" fill="#523429"/>
<path d="M13.8876 4.2236C12.3244 3.84895 10.6849 3.94965 9.17923 4.5128C8.97243 4.59055 8.86788 4.82125 8.94563 5.028C9.00423 5.18385 9.15323 5.287 9.31968 5.28715C9.36753 5.2869 9.41493 5.27815 9.45963 5.2612C10.8155 4.75415 12.2919 4.6636 13.6996 5.0012C13.9144 5.0531 14.1305 4.92115 14.1824 4.7064C14.2343 4.49165 14.1024 4.2755 13.8876 4.2236Z" fill="#523429"/>
<path d="M6.90017 17.08C5.55172 15.7338 4.79597 13.9054 4.80057 12C4.79662 10.4777 5.27882 8.99388 6.17697 7.76478C6.30972 7.58818 6.27417 7.33743 6.09757 7.20468C5.92097 7.07193 5.67022 7.10748 5.53747 7.28408C5.53512 7.28723 5.53282 7.29038 5.53057 7.29358C3.21791 10.473 3.55821 14.8615 6.33337 17.6464C6.48977 17.8029 6.74347 17.803 6.89998 17.6466C7.05648 17.4902 7.05658 17.2365 6.90017 17.08Z" fill="#523429"/>
</svg>
