<svg width="24" height="24" viewBox="0 0 24 24" fill="none" xmlns="http://www.w3.org/2000/svg">
<g clip-path="url(#clip0)">
<path d="M23.5735 4.53883C23.2625 4.17123 22.827 3.9467 22.3472 3.90662L5.44615 2.49541C4.96625 2.45533 4.49965 2.60454 4.13201 2.91546C3.76588 3.22516 3.54167 3.65842 3.50033 4.13594L3.1603 7.32605H1.80257C0.808637 7.32605 0 8.13469 0 9.12862V19.7084C0 20.7023 0.808637 21.5109 1.80257 21.5109H18.7625C19.7565 21.5109 20.5651 20.7023 20.5651 19.7084V17.9921L21.1669 18.0424C21.2177 18.0466 21.2682 18.0487 21.3182 18.0487C22.2449 18.0487 23.0348 17.3358 23.1133 16.396L23.9936 5.85301C24.0337 5.37315 23.8845 4.90646 23.5735 4.53883ZM1.80257 8.26354H18.7625C19.2395 8.26354 19.6276 8.65162 19.6276 9.12862V10.0926H0.937496V9.12862C0.937496 8.65162 1.32557 8.26354 1.80257 8.26354ZM0.937496 11.0301H19.6276V12.9749H0.937496V11.0301ZM18.7625 20.5734H1.80257C1.32557 20.5734 0.937496 20.1854 0.937496 19.7084V13.9124H19.6276V19.7084C19.6276 20.1854 19.2395 20.5734 18.7625 20.5734ZM23.0594 5.77496L22.179 16.318C22.1393 16.7934 21.7202 17.148 21.2449 17.1081L20.5651 17.0514V9.12862C20.5651 8.13469 19.7565 7.32605 18.7625 7.32605H4.10314L4.43309 4.23044C4.43347 4.22687 4.43379 4.22336 4.43408 4.21975C4.47378 3.74439 4.89265 3.38983 5.36815 3.42967L22.2692 4.84089C22.4995 4.86011 22.7086 4.96787 22.8578 5.14431C23.007 5.32074 23.0786 5.54466 23.0594 5.77496Z" fill="#1D1816"/>
<path d="M17.6656 15.3062H13.1543C12.8954 15.3062 12.6855 15.516 12.6855 15.7749V18.7181C12.6855 18.977 12.8954 19.1869 13.1543 19.1869H17.6656C17.9245 19.1869 18.1344 18.977 18.1344 18.7181V15.7749C18.1344 15.516 17.9245 15.3062 17.6656 15.3062ZM17.1969 18.2494H13.623V16.2437H17.1969V18.2494Z" fill="#1D1816"/>
</g>
<defs>
<clipPath id="clip0">
<rect width="24" height="24" rx="10" fill="white"/>
</clipPath>
</defs>
</svg>
