<svg width="20" height="45" viewBox="0 0 20 45" fill="none" xmlns="http://www.w3.org/2000/svg">
<path d="M11.2065 0.658936H8.56982L7.53711 8.56909L9.88818 11.2058L12.2393 8.56909L11.2065 0.658936Z" fill="#FFBA48"/>
<path d="M13.8438 8.56934L11.207 16.4795H16.4805V11.2061C16.4805 9.74979 15.3 8.56934 13.8438 8.56934Z" fill="#FF5A35"/>
<path d="M11.2051 8.56934L8.56836 16.4795H13.8418V8.56934H11.2051Z" fill="#FF7A3C"/>
<path d="M8.56836 8.56934L5.93164 16.4795H11.2051V8.56934H8.56836Z" fill="#FF9A42"/>
<path d="M5.93359 8.56934L3.29688 16.4795H8.57031V8.56934H5.93359Z" fill="#FF7A3C"/>
<path d="M3.29688 11.2061V16.4795H5.93359V8.56934C4.47733 8.56934 3.29688 9.74979 3.29688 11.2061Z" fill="#FF9A42"/>
<path d="M16.4805 13.843H13.8438V44.3411H16.4805C17.9367 44.3411 19.1172 43.1606 19.1172 41.7043V16.4797C19.1172 15.0235 17.9367 13.843 16.4805 13.843Z" fill="#FF9A42"/>
<path d="M16.4805 41.7043V16.4797C16.4805 15.0235 15.3 13.843 13.8438 13.843H3.29688C1.84062 13.843 0.660156 15.0235 0.660156 16.4797V41.7043C0.660156 43.1606 1.84062 44.3411 3.29688 44.3411H13.8438C15.3 44.3411 16.4805 43.1606 16.4805 41.7043Z" fill="#FFBA48"/>
<path d="M17.1387 13.2498V11.2061C17.1387 9.38865 15.6602 7.91016 13.8428 7.91016H12.8175L11.8597 0.573838C11.8168 0.245566 11.5371 0 11.2061 0H8.56934C8.23825 0 7.95858 0.245566 7.91569 0.573838L6.95786 7.91016H5.93262C4.11521 7.91016 2.63672 9.38865 2.63672 11.2061V13.2498C1.13423 13.5561 0 14.8878 0 16.4795V41.7041C0 43.5215 1.4785 45 3.2959 45H16.4795C18.2969 45 19.7754 43.5215 19.7754 41.7041V16.4795C19.7754 14.8879 18.6412 13.5561 17.1387 13.2498ZM9.14801 1.31836H10.6273L11.4879 7.91016H8.28747L9.14801 1.31836ZM18.457 41.7041C18.457 42.7946 17.57 43.6816 16.4795 43.6816H3.2959C2.20544 43.6816 1.31836 42.7946 1.31836 41.7041V16.4795C1.31836 15.389 2.20544 14.502 3.2959 14.502C3.65994 14.502 3.95508 14.2068 3.95508 13.8428V11.2061C3.95508 10.1156 4.84216 9.22852 5.93262 9.22852H13.8428C14.9332 9.22852 15.8203 10.1156 15.8203 11.2061V13.1836H14.502V11.2061C14.502 10.842 14.2068 10.5469 13.8428 10.5469C13.4787 10.5469 13.1836 10.842 13.1836 11.2061V13.1836H11.8652V11.2061C11.8652 10.842 11.5701 10.5469 11.2061 10.5469C10.842 10.5469 10.5469 10.842 10.5469 11.2061V13.1836H9.22852V11.2061C9.22852 10.842 8.93338 10.5469 8.56934 10.5469C8.20529 10.5469 7.91016 10.842 7.91016 11.2061V13.1836H6.5918V11.2061C6.5918 10.842 6.29666 10.5469 5.93262 10.5469C5.56857 10.5469 5.27344 10.842 5.27344 11.2061V13.8428C5.27344 14.2068 5.56857 14.502 5.93262 14.502H16.4795C17.57 14.502 18.457 15.389 18.457 16.4795V41.7041Z" fill="black"/>
</svg>
