<svg width="32" height="32" viewBox="0 0 32 32" fill="none" xmlns="http://www.w3.org/2000/svg">
<g clip-path="url(#clip0)">
<path d="M28.6955 22.5076L26.2737 23.327L2.23294 31.4595C1.186 31.8135 0.187187 30.8147 0.541625 29.7682L0.605687 29.5786L8.676 5.73387L9.49537 3.31205L12.5889 2.87012L22.6347 9.37855L29.1374 19.4141L28.9664 20.6104L28.6955 22.5076Z" fill="#F9D11F"/>
<path d="M28.6955 22.5076L26.2737 23.327L2.23294 31.4595C1.186 31.8135 0.187187 30.8147 0.541625 29.7682L0.605687 29.5786C1.17887 29.8266 1.83387 29.861 2.44594 29.652L28.9664 20.6104L28.6955 22.5076Z" fill="#FFA402"/>
<path d="M28.6952 22.5076L26.2734 23.327C26.151 22.8059 25.999 22.2579 25.8103 21.6865C24.8963 18.9156 23.1255 15.6023 19.7641 12.2409C15.7093 8.18793 11.7234 6.44799 8.67578 5.73387L9.49516 3.31205L12.5887 2.87012L22.6345 9.37855L29.1372 19.4141L28.9662 20.6104L28.6952 22.5076Z" fill="#FDEDA5"/>
<path d="M28.6955 22.5076L26.2737 23.327C26.1512 22.8059 25.9992 22.2579 25.8105 21.6865L28.9664 20.6104L28.6955 22.5076Z" fill="#FBDF63"/>
<path d="M11.8896 14.8991C13.2612 14.8991 14.373 13.7875 14.373 12.4163C14.373 11.0452 13.2612 9.93359 11.8896 9.93359C10.5181 9.93359 9.40625 11.0452 9.40625 12.4163C9.40625 13.7875 10.5181 14.8991 11.8896 14.8991Z" fill="#ED2061"/>
<path d="M10.2998 24.1791C11.6713 24.1791 12.7832 23.0676 12.7832 21.6964C12.7832 20.3252 11.6713 19.2136 10.2998 19.2136C8.92825 19.2136 7.81641 20.3252 7.81641 21.6964C7.81641 23.0676 8.92825 24.1791 10.2998 24.1791Z" fill="#ED2061"/>
<path d="M22.0928 24.7417L17.8772 26.1572C17.452 25.7321 17.2129 25.1916 17.1604 24.6361C17.0936 23.925 17.3323 23.1905 17.8767 22.646C18.8468 21.6768 20.4192 21.6768 21.3888 22.6465C21.5218 22.7795 21.6372 22.924 21.7335 23.0769C22.0518 23.5798 22.1715 24.1716 22.0928 24.7417Z" fill="#ED2061"/>
<path d="M6.13221 27.2792C5.4869 27.9243 4.26272 27.7464 4.26272 27.7464C4.26272 27.7464 4.08478 26.5225 4.73009 25.8774C5.3754 25.2323 6.59959 25.4102 6.59959 25.4102C6.59959 25.4102 6.77752 26.634 6.13221 27.2792Z" fill="#68C044"/>
<path d="M17.3947 18.1671C17.8759 18.9423 17.4234 20.0934 17.4234 20.0934C17.4234 20.0934 16.1909 19.9875 15.7098 19.2122C15.2287 18.437 15.6811 17.2859 15.6811 17.2859C15.6811 17.2859 16.9136 17.3918 17.3947 18.1671Z" fill="#68C044"/>
<path d="M30.4722 23.5809C30.4541 23.5858 30.4355 23.5901 30.4165 23.5941C29.9353 23.6953 29.4606 23.5363 29.1371 23.2128C28.9506 23.0271 28.8149 22.7872 28.7575 22.5105C28.152 19.6255 26.4223 15.1788 21.621 10.3766C16.8185 5.57676 12.3698 3.84788 9.48395 3.24244C8.72645 3.08332 8.2412 2.34088 8.40033 1.58338C8.40433 1.56526 8.4087 1.54669 8.4127 1.52857C8.5952 0.803319 9.32045 0.344194 10.0594 0.499756C13.3178 1.18344 18.3126 3.10763 23.6027 8.39501C28.8923 13.6846 30.817 18.678 31.5006 21.9356C31.6553 22.6736 31.1979 23.3988 30.4722 23.5809Z" fill="#F79E60"/>
<path d="M30.4726 23.5808C30.523 23.3811 30.5296 23.1668 30.4845 22.9519C29.8008 19.6944 27.8762 14.7009 22.5866 9.41138C17.2965 4.12407 12.3017 2.19982 9.04327 1.51619C8.82715 1.47069 8.61327 1.47776 8.41309 1.52857C8.59559 0.803319 9.32084 0.344194 10.0598 0.499756C13.3182 1.18344 18.313 3.10763 23.6031 8.39501C28.8927 13.6846 30.8173 18.678 31.501 21.9356C31.6556 22.6735 31.1983 23.3987 30.4726 23.5808Z" fill="#D77D41"/>
<path d="M22.0917 24.7409L17.876 26.1564C17.4509 25.7313 17.2117 25.1908 17.1592 24.6353L21.7324 23.0762C22.0506 23.579 22.1704 24.1709 22.0917 24.7409Z" fill="#C71E54"/>
<path d="M31.9595 21.8385C31.2629 18.5187 29.3052 13.4339 23.9342 8.06255C18.5621 2.6933 13.4761 0.736046 10.1555 0.0396712C9.14625 -0.172391 8.15275 0.476609 7.941 1.4858C7.83844 1.97473 7.93243 2.47423 8.20562 2.89248C8.38743 3.1708 8.63444 3.39048 8.92325 3.5368L3.39231 19.8794C3.30931 20.1246 3.44081 20.3907 3.68606 20.4737C3.73587 20.4905 3.78656 20.4985 3.83637 20.4985C4.03181 20.4985 4.21419 20.3752 4.28031 20.1799L8.98081 6.29105C12.7089 7.2528 16.2233 9.36386 19.4327 12.5713C20.6461 13.7849 21.7187 15.0649 22.6205 16.3758C22.7114 16.5079 22.858 16.5789 23.0071 16.5789C23.0987 16.5789 23.1912 16.5521 23.2724 16.4963C23.4857 16.3495 23.5396 16.0577 23.3929 15.8444C22.4602 14.4887 21.3528 13.1664 20.1014 11.9142C20.1007 11.9136 20.1002 11.9129 20.0996 11.9123C20.0994 11.9121 20.0992 11.9119 20.099 11.9117L20.0911 11.9038C20.0899 11.9025 20.0887 11.9014 20.0879 11.9005C20.0874 11.9001 20.0869 11.8997 20.0864 11.8993C16.7782 8.59567 13.1457 6.41192 9.28206 5.40098L9.82437 3.79855C10.5357 3.96798 11.259 4.18817 11.9807 4.45673C12.2232 4.54686 12.4932 4.42355 12.5835 4.18086C12.6737 3.93823 12.5502 3.66836 12.3076 3.57805C11.3941 3.23811 10.4764 2.97042 9.57987 2.78236C9.336 2.7313 9.12662 2.58817 8.99043 2.37967C8.85419 2.17111 8.80731 1.92205 8.8585 1.6783C8.96406 1.17505 9.45969 0.851546 9.963 0.957171C13.1591 1.62748 18.0624 3.51936 23.2714 8.72548C28.4792 13.9337 30.3716 18.8357 31.0419 22.031C31.0931 22.2748 31.0462 22.5238 30.9101 22.7324C30.7738 22.9409 30.5645 23.0839 30.3206 23.1351C30.0111 23.2 29.6924 23.105 29.4683 22.8809C29.3406 22.7532 29.2533 22.5917 29.2161 22.4138C28.5976 19.4662 26.8353 14.9277 21.9521 10.0442C19.5639 7.65723 17.0291 5.78992 14.4181 4.49405C14.1862 4.37873 13.9049 4.47367 13.7899 4.70555C13.6748 4.93742 13.7695 5.21873 14.0014 5.3338C16.5211 6.58436 18.9732 8.3923 21.2893 10.7071C25.7773 15.1954 27.5319 19.354 28.2028 22.1787L26.6044 22.7194C26.1619 21.0352 25.4838 19.3682 24.5834 17.757C24.4571 17.531 24.1716 17.4501 23.9456 17.5765C23.7196 17.7029 23.6387 17.9884 23.7651 18.2144C24.6381 19.7765 25.2924 21.3914 25.7142 23.0205L22.5672 24.085C22.4976 23.4215 22.2048 22.7998 21.7187 22.3138C20.5677 21.163 18.6947 21.163 17.5437 22.3138C16.9861 22.8713 16.6791 23.6125 16.6791 24.401C16.6791 24.9497 16.8282 25.4753 17.1066 25.9323L2.08169 31.015C1.76269 31.1229 1.43019 31.0452 1.19219 30.8071C0.954311 30.5692 0.876686 30.237 0.984498 29.9183L3.58887 22.2229C3.67187 21.9777 3.54037 21.7116 3.29512 21.6286C3.04994 21.5456 2.78387 21.6771 2.70081 21.9224L0.0964983 29.6177C-0.124877 30.2718 0.0409358 30.9815 0.529186 31.4699C0.874623 31.8154 1.33069 31.9995 1.79962 31.9995C1.99387 31.9995 2.19044 31.9679 2.38219 31.903L28.4672 23.0791C28.5551 23.2496 28.6682 23.4067 28.8056 23.5439C29.1614 23.8996 29.6362 24.0929 30.1269 24.0929C30.2551 24.0929 30.3846 24.0796 30.5131 24.0527C31.0021 23.9501 31.4218 23.6633 31.6951 23.2452C31.9682 22.827 32.0621 22.3274 31.9595 21.8385ZM18.0281 25.6207C17.7614 25.2717 17.6166 24.8476 17.6166 24.4011C17.6166 23.8631 17.8261 23.3574 18.2066 22.9769C18.9922 22.1916 20.2703 22.1916 21.0559 22.9769C21.4387 23.3597 21.6457 23.8657 21.6456 24.397L18.0281 25.6207Z" fill="black"/>
<path d="M9.80127 10.3284C9.24365 10.8859 8.93652 11.6272 8.93652 12.4156C8.93652 13.2041 9.24365 13.9453 9.80127 14.5028C10.3768 15.0781 11.1328 15.3659 11.8888 15.3659C12.6448 15.3659 13.4007 15.0781 13.9763 14.5028C14.5339 13.9453 14.841 13.2041 14.841 12.4156C14.841 11.6272 14.5339 10.886 13.9763 10.3284C12.8252 9.17763 10.9523 9.17763 9.80127 10.3284ZM13.3134 13.8397C12.5279 14.625 11.2498 14.625 10.4641 13.8397C10.0836 13.4593 9.87409 12.9536 9.87409 12.4156C9.87409 11.8776 10.0836 11.3718 10.4641 10.9914C10.857 10.5987 11.3728 10.4024 11.8888 10.4024C12.4046 10.4024 12.9207 10.5988 13.3134 10.9914C13.6939 11.3718 13.9035 11.8776 13.9035 12.4156C13.9035 12.9536 13.6939 13.4593 13.3134 13.8397Z" fill="black"/>
<path d="M8.2113 23.7837C8.7868 24.3591 9.5428 24.6468 10.2988 24.6468C11.0548 24.6468 11.8108 24.3591 12.3863 23.7837C12.5694 23.6007 12.5694 23.3039 12.3864 23.1208C12.2034 22.9377 11.9065 22.9377 11.7234 23.1207C10.9379 23.9061 9.65968 23.906 8.87418 23.1207C8.49368 22.7403 8.28412 22.2345 8.28412 21.6965C8.28412 21.1586 8.49368 20.6529 8.87418 20.2724C9.65968 19.4872 10.9379 19.4872 11.7234 20.2724C12.0442 20.5931 12.2429 20.9998 12.2982 21.4485C12.3299 21.7055 12.5637 21.8887 12.8209 21.8565C13.0778 21.8248 13.2604 21.5909 13.2288 21.3339C13.1477 20.6756 12.8564 20.0794 12.3864 19.6094C11.2353 18.4586 9.36243 18.4587 8.21137 19.6094C7.65374 20.1669 7.34668 20.9082 7.34668 21.6965C7.34662 22.485 7.65368 23.2262 8.2113 23.7837Z" fill="black"/>
<path d="M4.19456 28.2112C4.2205 28.215 4.39362 28.2386 4.643 28.2386C4.74943 28.2386 4.86975 28.2343 4.99837 28.2222C5.61444 28.1646 6.12081 27.9534 6.46287 27.6114C6.80494 27.2694 7.01619 26.7631 7.07387 26.1472C7.11412 25.7172 7.06806 25.3804 7.06269 25.3434C7.03281 25.1381 6.87156 24.9769 6.66619 24.947C6.62925 24.9416 6.29231 24.8955 5.86237 24.9359C5.24631 24.9935 4.73993 25.2047 4.39787 25.5467C4.05581 25.8887 3.8445 26.395 3.78687 27.0109C3.74662 27.4409 3.79262 27.7777 3.798 27.8147C3.82793 28.02 3.98925 28.1813 4.19456 28.2112ZM5.06081 26.2097C5.32975 25.9409 5.79806 25.8653 6.15275 25.857C6.14444 26.2119 6.06881 26.6798 5.80006 26.9485C5.53112 27.2173 5.06281 27.2929 4.70806 27.3012C4.71637 26.9463 4.79206 26.4784 5.06081 26.2097Z" fill="black"/>
<path d="M15.7198 16.8194C15.5129 16.8015 15.3193 16.9219 15.2435 17.115C15.2298 17.1498 15.1082 17.4672 15.0493 17.8949C14.9649 18.5078 15.0551 19.0489 15.3101 19.46C15.5651 19.8709 16.01 20.1921 16.5967 20.3886C17.0062 20.5258 17.3447 20.5579 17.3819 20.5611C17.3955 20.5623 17.4089 20.5628 17.4223 20.5628C17.6135 20.5628 17.7874 20.446 17.8583 20.2655C17.872 20.2307 17.9937 19.9133 18.0525 19.4855C18.137 18.8726 18.0467 18.3315 17.7917 17.9205C17.5367 17.5096 17.0918 17.1885 16.5051 16.9918C16.0955 16.8546 15.7571 16.8226 15.7198 16.8194ZM16.995 18.4148C17.1955 18.7378 17.1622 19.2109 17.0895 19.5579C16.7456 19.4689 16.307 19.2886 16.1067 18.9656C15.9062 18.6426 15.9395 18.1696 16.0122 17.8225C16.3561 17.9115 16.7947 18.0919 16.995 18.4148Z" fill="black"/>
<path d="M7.95596 15.7C7.73808 15.8397 7.67471 16.1297 7.81446 16.3476L8.52964 17.4625C8.61921 17.6021 8.77033 17.6783 8.92464 17.6783C9.01127 17.6783 9.09896 17.6543 9.17733 17.604C9.39521 17.4642 9.45858 17.1743 9.31883 16.9564L8.60364 15.8414C8.46377 15.6236 8.17389 15.5602 7.95596 15.7Z" fill="black"/>
<path d="M17.7058 15.5652L18.7118 16.4271C18.8002 16.5029 18.9086 16.5399 19.0166 16.5399C19.1487 16.5399 19.2801 16.4844 19.3728 16.3762C19.5412 16.1796 19.5184 15.8836 19.3218 15.7152L18.3158 14.8533C18.1191 14.6849 17.8232 14.7076 17.6549 14.9042C17.4863 15.1009 17.5091 15.3968 17.7058 15.5652Z" fill="black"/>
<path d="M14.3553 23.3924L14.2291 24.6008C14.2023 24.8583 14.3893 25.0888 14.6467 25.1157C14.6633 25.1174 14.6796 25.1183 14.6959 25.1183C14.9329 25.1183 15.1364 24.9391 15.1616 24.6981L15.2877 23.4897C15.3146 23.2322 15.1276 23.0017 14.8701 22.9747C14.6129 22.9479 14.3821 23.1348 14.3553 23.3924Z" fill="black"/>
</g>
<defs>
<clipPath id="clip0">
<rect width="32" height="32" fill="white"/>
</clipPath>
</defs>
</svg>
