<svg width="32" height="32" viewBox="0 0 32 32" fill="none" xmlns="http://www.w3.org/2000/svg">
<path d="M31.5312 12.6296C31.5312 7.72257 24.5777 3.74463 16 3.74463C7.42231 3.74463 0.46875 7.72263 0.46875 12.6296C0.46875 17.191 3.36306 21.1946 7.71981 23.4623C7.67013 23.6485 7.64394 23.8386 7.64394 24.0317C7.64394 26.3643 11.3851 28.2551 16 28.2551C20.6149 28.2551 24.3561 26.3643 24.3561 24.0317C24.3561 23.8386 24.3299 23.6485 24.2802 23.4623C28.6369 21.1946 31.5312 17.191 31.5312 12.6296Z" fill="#FEDA44"/>
<path d="M10.5567 24.0318C10.5567 23.8386 10.5829 23.6486 10.6326 23.4623C6.27581 21.1946 3.3815 17.191 3.3815 12.6296C3.3815 8.00357 9.56175 4.20388 17.4564 3.78382C16.9768 3.75832 16.4912 3.74463 16 3.74463C7.42231 3.74463 0.46875 7.72257 0.46875 12.6296C0.46875 17.191 3.36306 21.1946 7.71981 23.4623C7.67013 23.6485 7.64394 23.8386 7.64394 24.0317C7.64394 26.3643 11.3851 28.2551 16 28.2551C16.4968 28.2551 16.9834 28.2331 17.4564 28.1911C13.5358 27.8428 10.5567 26.1132 10.5567 24.0318Z" fill="#FF9911"/>
<path d="M16.001 18.9667C22.9256 18.9667 28.5391 16.1296 28.5391 12.6298C28.5391 9.13008 22.9256 6.29297 16.001 6.29297C9.0764 6.29297 3.46289 9.13008 3.46289 12.6298C3.46289 16.1296 9.0764 18.9667 16.001 18.9667Z" fill="#FF9911"/>
<path d="M5.78967 16.3082C8.0633 17.9177 11.7894 18.9672 16.0005 18.9672C20.2116 18.9672 23.9377 17.9177 26.2113 16.3082C26.8453 15.5985 27.1982 14.8108 27.1982 13.9815C27.1982 10.8557 22.1848 8.32178 16.0005 8.32178C9.81617 8.32178 4.80273 10.8558 4.80273 13.9815C4.80273 14.8108 5.15567 15.5985 5.78967 16.3082Z" fill="#FF5023"/>
<path d="M9.5893 16.3082C8.9553 15.5985 8.60236 14.8108 8.60236 13.9815C8.60236 11.1831 12.6209 8.8594 17.9003 8.40328C17.2827 8.3499 16.6482 8.32178 16.0005 8.32178C9.81611 8.32178 4.80273 10.8557 4.80273 13.9815C4.80273 14.8108 5.15567 15.5985 5.78967 16.3082C8.0633 17.9177 11.7894 18.9672 16.0005 18.9672C16.6464 18.9672 17.2807 18.9422 17.9003 18.8946C14.4803 18.6318 11.5142 17.6709 9.5893 16.3082Z" fill="#D80029"/>
<path d="M25.0778 7.73072C22.6454 6.50128 19.4218 5.82422 16.0008 5.82422C12.5798 5.82422 9.35614 6.50128 6.9237 7.73072C4.3897 9.01147 2.99414 10.7514 2.99414 12.63C2.99414 14.5087 4.3897 16.2486 6.9237 17.5294C9.35608 18.7588 12.5798 19.4359 16.0008 19.4359C19.4218 19.4359 22.6454 18.7588 25.0778 17.5294C27.6118 16.2487 29.0074 14.5087 29.0074 12.63C29.0074 10.7514 27.6118 9.01147 25.0778 7.73072ZM7.34658 8.56741C9.65039 7.40303 12.7238 6.76172 16.0008 6.76172C19.2777 6.76172 22.3511 7.40303 24.655 8.56741C26.8571 9.68053 28.0699 11.1233 28.0699 12.63C28.0699 13.1384 27.9313 13.6394 27.6638 14.123C27.6657 14.076 27.6673 14.0288 27.6673 13.9815C27.6673 12.2838 26.4111 10.714 24.1303 9.56109C21.951 8.45959 19.0638 7.85297 16.0008 7.85297C12.9377 7.85297 10.0506 8.45959 7.87127 9.56109C5.59039 10.7139 4.3342 12.2838 4.3342 13.9815C4.3342 14.0288 4.33583 14.076 4.33777 14.123C4.0702 13.6394 3.93164 13.1384 3.93164 12.63C3.93164 11.1232 5.14445 9.68047 7.34658 8.56741ZM24.655 16.6927C22.3511 17.8571 19.2777 18.4984 16.0008 18.4984C12.7238 18.4984 9.65039 17.8571 7.34658 16.6927C6.89145 16.4627 6.47933 16.2183 6.1107 15.9625C5.55439 15.3279 5.2717 14.6617 5.2717 13.9815C5.2717 12.6557 6.34508 11.383 8.29414 10.3978C10.3448 9.36128 13.0818 8.79047 16.0007 8.79047C18.9196 8.79047 21.6566 9.36128 23.7073 10.3978C25.6563 11.383 26.7297 12.6557 26.7297 13.9815C26.7297 14.6617 26.447 15.328 25.8906 15.9626C25.5221 16.2184 25.11 16.4627 24.655 16.6927Z" fill="black"/>
<path d="M29.716 12.6307C29.716 13.4652 29.4388 14.2859 28.8921 15.07L29.6612 15.6062C30.3197 14.6617 30.6535 13.6606 30.6535 12.6307C30.6535 10.6714 29.408 8.78567 27.1463 7.32104L26.6367 8.10792C28.6225 9.39392 29.716 11.0001 29.716 12.6307Z" fill="white"/>
<path d="M26.6734 7.02896C26.2434 6.77634 25.7789 6.53671 25.293 6.31665L24.9062 7.17065C25.3622 7.37715 25.797 7.60146 26.1987 7.83734L26.6734 7.02896Z" fill="white"/>
<path d="M32 12.6296C32 10.081 30.3006 7.70532 27.215 5.94013C24.2118 4.222 20.2289 3.27588 16 3.27588C11.7711 3.27588 7.78819 4.222 4.785 5.94007C1.69937 7.70525 0 10.081 0 12.6296V12.6296C0 14.3741 0.414563 16.099 1.20875 17.6973L1.20837 17.6975C1.20919 17.6989 1.21012 17.7003 1.211 17.7017C1.46131 18.2049 1.74894 18.6958 2.07356 19.1706C3.31987 20.9932 5.08556 22.5583 7.19469 23.7132C7.18169 23.8194 7.17513 23.9258 7.17513 24.0317C7.17513 26.6629 11.0514 28.7239 15.9999 28.7239C20.9484 28.7239 24.8248 26.6628 24.8248 24.0317C24.8248 23.9258 24.8183 23.8194 24.8052 23.7132C26.9144 22.5583 28.68 20.9932 29.9263 19.1706C31.283 17.1869 32 14.925 32 12.6296ZM24.0638 23.0465L23.9842 23.0879C23.3674 23.4045 22.7187 23.6865 22.0539 23.9259L22.3716 24.808C22.8855 24.6229 23.3904 24.4133 23.88 24.1833C23.7061 26.1516 20.1688 27.7864 16 27.7864C11.8314 27.7864 8.294 26.1516 8.12 24.1834C10.5153 25.3085 13.2242 25.9011 16 25.9011C17.6424 25.9011 19.2619 25.6956 20.8136 25.2904L20.5767 24.3833C19.1024 24.7683 17.5625 24.9635 16 24.9635C13.1653 24.9635 10.4073 24.3151 8.01694 23.0884L7.93619 23.0464C7.04169 22.5808 6.22081 22.0479 5.48069 21.4587C7.10319 22.3113 9.035 22.9663 11.1625 23.3568L11.3317 22.4346C6.94406 21.6294 3.46181 19.6809 2.01656 17.2224L2.01413 17.2238C2.007 17.2093 1.99969 17.1947 1.99262 17.1801C2.73181 17.9593 3.66681 18.6794 4.78494 19.3191C7.78813 21.0371 11.7711 21.9833 15.9999 21.9833C20.0794 21.9833 23.9597 21.0943 26.9262 19.4801L26.4781 18.6566C23.6469 20.1974 19.9256 21.0458 16 21.0458C11.9318 21.0458 8.11425 20.1436 5.2505 18.5054C2.46925 16.9143 0.9375 14.8276 0.9375 12.6296C0.9375 11.879 1.11638 11.1415 1.46238 10.4322H2.91663V9.49469H2.02938C2.76025 8.48769 3.84575 7.55744 5.2505 6.75382C8.11425 5.11557 11.9318 4.21338 16 4.21338C20.0682 4.21338 23.8857 5.11563 26.7495 6.75382C29.5308 8.34494 31.0625 10.4316 31.0625 12.6296C31.0625 14.4538 30.0159 16.1958 28.0359 17.6676L28.5951 18.42C29.1269 18.0247 29.5982 17.6094 30.0086 17.1776C28.8578 19.5589 26.8068 21.6187 24.0638 23.0465Z" fill="black"/>
<path d="M19.6561 12.0515C18.6716 11.5538 17.373 11.2798 15.9996 11.2798C14.5762 11.2798 13.2439 11.5713 12.248 12.1007L12.6881 12.9285C13.5384 12.4765 14.7454 12.2173 15.9996 12.2173C18.5945 12.2173 20.4029 13.268 20.4029 14.211H21.3404C21.3404 13.3673 20.7422 12.6004 19.6561 12.0515Z" fill="black"/>
<path d="M16.001 16.2057C13.406 16.2057 11.5977 15.1549 11.5977 14.2119H10.6602C10.6602 15.0556 11.2583 15.8226 12.3445 16.3715C13.329 16.8691 14.6275 17.1432 16.001 17.1432C17.663 17.1432 19.1929 16.7457 20.1985 16.0525L19.6665 15.2807C18.8261 15.8598 17.4558 16.2057 16.001 16.2057Z" fill="black"/>
<path d="M20.7396 10.3528C20.091 10.1467 19.3934 9.98372 18.6664 9.86841L18.5195 10.7943C19.2003 10.9023 19.8517 11.0543 20.4557 11.2462L20.7396 10.3528Z" fill="white"/>
<path d="M21.7389 10.7205L21.373 11.5836C23.1583 12.3403 24.1822 13.4045 24.1822 14.5033H25.1197C25.1197 13.01 23.8875 11.6311 21.7389 10.7205Z" fill="white"/>
</svg>
