<svg width="24" height="24" viewBox="0 0 24 24" fill="none" xmlns="http://www.w3.org/2000/svg">
<path d="M23.625 14.6252C23.625 14.005 23.1203 13.5002 22.5 13.5002H21C20.3797 13.5002 19.875 14.005 19.875 14.6252C19.875 15.1135 20.1896 15.526 20.625 15.6812V15.7502C20.625 15.9572 20.4566 16.1252 20.25 16.1252H19.5V13.822C20.145 13.6543 20.625 13.0723 20.625 12.3752C20.625 11.6245 20.0689 11.0068 19.3481 10.8977C19.854 9.53234 18.9619 7.20396 17.0576 4.93221L17.6831 4.30671C17.8354 4.37909 17.9993 4.41921 18.1646 4.41921C18.453 4.41921 18.741 4.30971 18.9604 4.09034C19.3988 3.65159 19.3988 2.93796 18.9604 2.49921L17.3693 0.908086C16.9305 0.469336 16.2169 0.470086 15.7781 0.908086C15.4331 1.25346 15.3641 1.76721 15.5621 2.18496L14.9366 2.81046C12.2723 0.577711 9.52763 -0.265289 8.35388 0.908836C8.20725 1.05546 8.20725 1.29246 8.35388 1.43909L17.79 10.8752H4.875C4.04775 10.8752 3.375 11.548 3.375 12.3752C3.375 13.0723 3.855 13.6543 4.5 13.822V16.1252H3.75C3.54338 16.1252 3.375 15.9572 3.375 15.7502V15.6812C3.81037 15.526 4.125 15.1135 4.125 14.6252C4.125 14.005 3.62025 13.5002 3 13.5002H1.5C0.87975 13.5002 0.375 14.005 0.375 14.6252C0.375 15.1135 0.689625 15.526 1.125 15.6812V16.1252C1.125 17.3661 2.13412 18.3752 3.375 18.3752H4.5V21.0002C4.5 22.4473 5.6775 23.6252 7.125 23.6252H16.875C18.3225 23.6252 19.5 22.4473 19.5 21.0002V18.3752H20.625C21.8659 18.3752 22.875 17.3661 22.875 16.1252V15.6812C23.3104 15.526 23.625 15.1135 23.625 14.6252ZM16.3088 1.43909C16.4546 1.29284 16.6927 1.29246 16.8394 1.43909L18.4301 3.03021C18.5764 3.17646 18.5764 3.41421 18.4301 3.56046C18.2835 3.70709 18.0454 3.70671 17.8995 3.56046L16.3088 1.96934C16.1625 1.82309 16.1625 1.58534 16.3088 1.43909ZM16.0436 2.76509L17.1045 3.82596L16.5623 4.36784C16.3954 4.18596 16.2229 4.00521 16.0436 3.82596C15.8644 3.64671 15.6833 3.47421 15.5018 3.30734L16.0436 2.76509ZM15.5134 4.35584C17.5837 6.42621 19.23 9.35421 18.645 10.6693L9.1995 1.22421C10.5154 0.639586 13.443 2.28546 15.5134 4.35584ZM4.125 12.3752C4.125 11.9616 4.46137 11.6252 4.875 11.6252H19.125C19.5386 11.6252 19.875 11.9616 19.875 12.3752C19.875 12.7888 19.5386 13.1252 19.125 13.1252H4.875C4.46137 13.1252 4.125 12.7888 4.125 12.3752ZM1.5 14.2502H3C3.20662 14.2502 3.375 14.4182 3.375 14.6252C3.375 14.8322 3.20662 15.0002 3 15.0002H1.5C1.29338 15.0002 1.125 14.8322 1.125 14.6252C1.125 14.4182 1.29338 14.2502 1.5 14.2502ZM3.375 17.6252C2.54775 17.6252 1.875 16.9525 1.875 16.1252V15.7502H2.625C2.625 16.3705 3.12975 16.8752 3.75 16.8752H4.5V17.6252H3.375ZM16.875 22.8752H7.125C6.09113 22.8752 5.25 22.0341 5.25 21.0002V13.8752H18.75V21.0002C18.75 22.0341 17.9089 22.8752 16.875 22.8752ZM20.625 17.6252H19.5V16.8752H20.25C20.8703 16.8752 21.375 16.3705 21.375 15.7502H22.125V16.1252C22.125 16.9525 21.4522 17.6252 20.625 17.6252ZM22.5 15.0002H21C20.7934 15.0002 20.625 14.8322 20.625 14.6252C20.625 14.4182 20.7934 14.2502 21 14.2502H22.5C22.7066 14.2502 22.875 14.4182 22.875 14.6252C22.875 14.8322 22.7066 15.0002 22.5 15.0002Z" fill="#523429"/>
<path d="M17.625 21C17.625 21.4136 17.2886 21.75 16.875 21.75V22.5C17.7023 22.5 18.375 21.8272 18.375 21V15.75H17.625V21Z" fill="#523429"/>
<path d="M6.462 7.74248C6.648 7.92848 6.75 8.17523 6.75 8.43773C6.75 8.70023 6.648 8.94698 6.462 9.13298L5.73488 9.86011L6.26513 10.3904L6.99225 9.66323C7.32 9.33586 7.5 8.90048 7.5 8.43773C7.5 7.97498 7.32 7.53961 6.99225 7.21223L6.66263 6.88261C6.477 6.69698 6.375 6.45023 6.375 6.18773C6.375 5.92523 6.477 5.67848 6.663 5.49248L7.39013 4.76536L6.85987 4.23511L6.13275 4.96223C5.805 5.28961 5.625 5.72498 5.625 6.18773C5.625 6.65048 5.805 7.08586 6.13275 7.41323L6.462 7.74248Z" fill="#523429"/>
<path d="M10.7651 4.76536L10.2349 4.23511L9.50775 4.96223C9.18 5.28961 9 5.72498 9 6.18773C9 6.65048 9.18 7.08586 9.50775 7.41323L9.83737 7.74286C10.023 7.92848 10.125 8.17523 10.125 8.43773C10.125 8.70023 10.023 8.94698 9.837 9.13298L9.10987 9.86011L9.64013 10.3904L10.3672 9.66323C10.695 9.33586 10.875 8.90048 10.875 8.43773C10.875 7.97498 10.695 7.53961 10.3672 7.21223L10.0376 6.88261C9.852 6.69698 9.75 6.45023 9.75 6.18773C9.75 5.92523 9.852 5.67848 10.038 5.49248L10.7651 4.76536Z" fill="#523429"/>
</svg>
