<svg width="100" height="100" viewBox="0 0 100 100" fill="none" xmlns="http://www.w3.org/2000/svg">
<rect width="100" height="100" rx="50" fill="#EDDAD4"/>
<path d="M50 78C42.5209 78 35.4894 75.0876 30.2009 69.7991C24.9124 64.5106 22 57.4791 22 50C22 42.5209 24.9125 35.4895 30.2009 30.2009C35.4893 24.9123 42.5209 22 50 22C57.4791 22 64.5106 24.9124 69.7991 30.2009C75.0876 35.4894 78 42.5209 78 50C78 57.4791 75.0875 64.5105 69.7991 69.7991C64.5107 75.0877 57.4791 78 50 78ZM50 25.5C36.4907 25.5 25.5 36.4907 25.5 50C25.5 63.5093 36.4907 74.5 50 74.5C63.5093 74.5 74.5 63.5093 74.5 50C74.5 36.4907 63.5093 25.5 50 25.5Z" fill="#3E180A"/>
<path d="M57.7476 50C59.2038 48.7163 60.125 46.8392 60.125 44.75C60.125 41.8183 58.3125 39.3033 55.75 38.2626V36C55.75 35.0336 54.9665 34.25 54 34.25C53.0335 34.25 52.25 35.0336 52.25 36V37.75H48.75V36C48.75 35.0336 47.9665 34.25 47 34.25C46.0335 34.25 45.25 35.0336 45.25 36V37.75H41.75C40.7835 37.75 40 38.5336 40 39.5C40 40.4664 40.7835 41.25 41.75 41.25H43.5V50V58.75H41.75C40.7835 58.75 40 59.5336 40 60.5C40 61.4664 40.7835 62.25 41.75 62.25H45.25V64C45.25 64.9664 46.0335 65.75 47 65.75C47.9665 65.75 48.75 64.9664 48.75 64V62.25H52.25V64C52.25 64.9664 53.0335 65.75 54 65.75C54.9665 65.75 55.75 64.9664 55.75 64V61.7374C58.3125 60.6967 60.125 58.1817 60.125 55.25C60.125 53.1608 59.2038 51.2837 57.7476 50ZM47 41.25H53.125C55.0549 41.25 56.625 42.8201 56.625 44.75C56.625 46.6799 55.0549 48.25 53.125 48.25H47V41.25ZM53.125 58.75H47V51.75H53.125C55.0549 51.75 56.625 53.3201 56.625 55.25C56.625 57.1799 55.0549 58.75 53.125 58.75Z" fill="#3E180A"/>
</svg>
