<svg width="100" height="100" viewBox="0 0 100 100" fill="none" xmlns="http://www.w3.org/2000/svg">
<rect width="100" height="100" rx="50" fill="#EDDAD4"/>
<path d="M66.9865 45.3336C66.9865 47.1069 65.4232 48.6002 64.9099 50.1869C64.3965 51.7736 64.7465 53.9436 63.7432 55.3202C62.7399 56.6969 60.5932 57.0002 59.3332 58.0269C58.0732 59.0536 56.9999 60.9669 55.3665 61.5036C53.7332 62.0402 51.8899 61.0136 50.1165 61.0136C48.3432 61.0136 46.4532 62.0169 44.8665 61.5036C43.2799 60.9902 42.2765 59.0069 40.8999 58.0269C39.5232 57.0469 37.3765 56.6969 36.3732 55.3202C35.3699 53.9436 35.7432 51.8202 35.2065 50.1869C34.6699 48.5536 33.0132 47.1069 33.0132 45.3336C33.0132 43.5602 34.5765 42.0669 35.0899 40.4802C35.6032 38.8936 35.2532 36.7236 36.2565 35.3469C37.2599 33.9702 39.4065 33.6669 40.7832 32.6402C42.1599 31.6136 42.9999 29.7002 44.7499 29.1636C46.4999 28.6269 48.2265 29.6536 49.9999 29.6536C51.7732 29.6536 53.6632 28.6502 55.2499 29.1636C56.8365 29.6769 57.8399 31.6602 59.3332 32.6402C60.8265 33.6202 62.8565 33.9702 63.8599 35.3469C64.8632 36.7236 64.4899 38.8469 65.0265 40.4802C65.5632 42.1136 66.9865 43.5602 66.9865 45.3336Z" stroke="#3E180A" stroke-width="3.5" stroke-linecap="round" stroke-linejoin="round"/>
<path d="M50 52.333C53.866 52.333 57 49.199 57 45.333C57 41.467 53.866 38.333 50 38.333C46.134 38.333 43 41.467 43 45.333C43 49.199 46.134 52.333 50 52.333Z" stroke="#3E180A" stroke-width="3.5" stroke-linecap="round" stroke-linejoin="round"/>
<path d="M35.5567 53.29V53.3134L29 66.3334L36.0467 66.2634L40.6667 71L45.3567 61.62" stroke="#3E180A" stroke-width="3.5" stroke-linecap="round" stroke-linejoin="round"/>
<path d="M54.6432 61.62L59.3332 71L63.9532 66.2634L70.9999 66.3334L64.4432 53.3134V53.29" stroke="#3E180A" stroke-width="3.5" stroke-linecap="round" stroke-linejoin="round"/>
</svg>
