<svg width="20" height="42" viewBox="0 0 20 42" fill="none" xmlns="http://www.w3.org/2000/svg">
<path d="M15.4538 0H4.54474C3.54059 0 2.72656 0.814028 2.72656 1.81818V3.63636C2.72656 4.64052 3.54059 5.45455 4.54474 5.45455H15.4538C16.458 5.45455 17.272 4.64052 17.272 3.63636V1.81818C17.272 0.814028 16.458 0 15.4538 0Z" fill="#FFD33A"/>
<path d="M18.6352 11.6355L15.4545 9.09095V5.45459H4.54545V9.09095L1.36477 11.6355C0.93892 11.9762 0.595147 12.4083 0.358904 12.8998C0.122661 13.3913 -8.32061e-08 13.9297 0 14.475V38.1819C0 39.1463 0.383117 40.0712 1.06507 40.7532C1.74702 41.4351 2.67194 41.8182 3.63636 41.8182H16.3636C17.3281 41.8182 18.253 41.4351 18.9349 40.7532C19.6169 40.0712 20 39.1463 20 38.1819V14.475C20 13.9297 19.8773 13.3913 19.6411 12.8998C19.4049 12.4083 19.0611 11.9762 18.6352 11.6355Z" fill="#EA9F26"/>
<path d="M3.63672 14.5454H16.364V36.3636H3.63672V14.5454Z" fill="#FFD33A"/>
<path d="M11.8189 20.909H8.18253C7.94142 20.909 7.71019 20.8132 7.5397 20.6427C7.36922 20.4722 7.27344 20.241 7.27344 19.9999C7.27344 19.7588 7.36922 19.5276 7.5397 19.3571C7.71019 19.1866 7.94142 19.0908 8.18253 19.0908H11.8189C12.06 19.0908 12.2912 19.1866 12.4617 19.3571C12.6322 19.5276 12.728 19.7588 12.728 19.9999C12.728 20.241 12.6322 20.4722 12.4617 20.6427C12.2912 20.8132 12.06 20.909 11.8189 20.909Z" fill="#EA9F26"/>
<path d="M11.8189 30.0001H8.18253C7.94142 30.0001 7.71019 29.9043 7.5397 29.7338C7.36922 29.5633 7.27344 29.3321 7.27344 29.091C7.27344 28.8499 7.36922 28.6186 7.5397 28.4482C7.71019 28.2777 7.94142 28.1819 8.18253 28.1819H11.8189C12.06 28.1819 12.2912 28.2777 12.4617 28.4482C12.6322 28.6186 12.728 28.8499 12.728 29.091C12.728 29.3321 12.6322 29.5633 12.4617 29.7338C12.2912 29.9043 12.06 30.0001 11.8189 30.0001Z" fill="#EA9F26"/>
<path d="M11.8189 25.4547H8.18253C7.94142 25.4547 7.71019 25.3589 7.5397 25.1884C7.36922 25.0179 7.27344 24.7867 7.27344 24.5456C7.27344 24.3045 7.36922 24.0732 7.5397 23.9027C7.71019 23.7323 7.94142 23.6365 8.18253 23.6365H11.8189C12.06 23.6365 12.2912 23.7323 12.4617 23.9027C12.6322 24.0732 12.728 24.3045 12.728 24.5456C12.728 24.7867 12.6322 25.0179 12.4617 25.1884C12.2912 25.3589 12.06 25.4547 11.8189 25.4547Z" fill="#EA9F26"/>
</svg>
