<svg width="496" height="294" viewBox="0 0 496 294" fill="none" xmlns="http://www.w3.org/2000/svg">
<path d="M38.1934 56.0546H457.815V272.853C457.837 275.644 457.306 278.411 456.254 280.996C455.201 283.58 453.648 285.931 451.683 287.912C449.718 289.893 447.381 291.465 444.805 292.538C442.23 293.611 439.469 294.164 436.679 294.163H59.3296C53.7239 294.163 48.3479 291.936 44.384 287.97C40.4202 284.004 38.1934 278.625 38.1934 273.016V56.0546Z" fill="#ADA7A4"/>
<path d="M38.1918 56.0545H335.112L298.557 9.28249C294.571 4.15097 284.607 0 276.375 0H9.37853C1.11349 0 -2.34933 4.15097 1.66885 9.28249L38.1918 56.0545Z" fill="#ADA7A4"/>
<path opacity="0.2" d="M38.1918 56.0545H335.112L298.557 9.28249C294.571 4.15097 284.607 0 276.375 0H9.37853C1.11349 0 -2.34933 4.15097 1.66885 9.28249L38.1918 56.0545Z" fill="#7B736F"/>
<path d="M457.812 56.0544H160.924L197.447 25.5595C201.432 22.2256 211.396 19.6108 219.661 19.6108H486.756C495.021 19.6108 498.483 22.3237 494.465 25.6575L457.812 56.0544Z" fill="#ADA7A4"/>
<path opacity="0.2" d="M160.924 56.0546H457.812V272.853C457.833 275.644 457.302 278.411 456.25 280.996C455.197 283.58 453.644 285.931 451.679 287.912C449.714 289.893 447.377 291.465 444.802 292.538C442.227 293.611 439.465 294.164 436.675 294.163H182.06C176.454 294.163 171.078 291.936 167.114 287.97C163.151 284.004 160.924 278.625 160.924 273.016V56.0546Z" fill="white"/>
<path opacity="0.5" d="M75.041 56.0546V204.705L85.2988 196.599L92.5511 204.705L98.8234 195.684L105.226 204.705L114.21 197.907L124.043 204.705V56.0546H75.041Z" fill="#DDDBDA"/>
</svg>
