<svg width="24" height="24" viewBox="0 0 24 24" fill="none" xmlns="http://www.w3.org/2000/svg">
<path d="M6.375 15.375H7.125V14.5718C7.77038 14.4041 8.25 13.8221 8.25 13.125C8.25 12.675 8.04675 12.2752 7.73175 12C8.04675 11.7248 8.25 11.325 8.25 10.875C8.25 10.1782 7.77038 9.59588 7.125 9.42825V8.625H6.375V9.375H6V8.625H5.25V9.375H4.5V10.125H4.875V13.875H4.5V14.625H5.25V15.375H6V14.625H6.375V15.375ZM6.75 10.125C7.16363 10.125 7.5 10.4614 7.5 10.875C7.5 11.2886 7.16363 11.625 6.75 11.625H5.625V10.125H6.75ZM5.625 12.375H6.75C7.16363 12.375 7.5 12.7114 7.5 13.125C7.5 13.5386 7.16363 13.875 6.75 13.875H5.625V12.375Z" fill="#1D1816"/>
<path d="M6.375 15.75V16.5C8.85637 16.5 10.875 14.4814 10.875 12H10.125C10.125 14.0677 8.44275 15.75 6.375 15.75Z" fill="#1D1816"/>
<path d="M6.375 7.5C3.89363 7.5 1.875 9.51863 1.875 12H2.625C2.625 9.93225 4.30725 8.25 6.375 8.25V7.5Z" fill="#1D1816"/>
<path d="M17.625 6C15.0443 6 12.8453 7.641 12 9.93188C11.1547 7.641 8.95575 6 6.375 6C3.06675 6 0.375 8.69175 0.375 12C0.375 15.3082 3.06675 18 6.375 18C8.95575 18 11.1547 16.359 12 14.0681C12.8453 16.359 15.0443 18 17.625 18C20.9333 18 23.625 15.3082 23.625 12C23.625 8.69175 20.9333 6 17.625 6ZM17.625 17.25C17.0085 17.25 16.344 16.2064 15.9956 14.5316C16.5109 14.5909 17.0546 14.625 17.625 14.625C18.1954 14.625 18.7391 14.5909 19.2544 14.5316C18.906 16.2064 18.2415 17.25 17.625 17.25ZM17.625 13.875C16.9954 13.875 16.407 13.8323 15.8651 13.7599C15.7927 13.218 15.75 12.6296 15.75 12C15.75 11.3704 15.7927 10.782 15.8651 10.2405C16.407 10.1678 16.9954 10.125 17.625 10.125C18.2546 10.125 18.843 10.1678 19.3849 10.2405C19.4573 10.782 19.5 11.3704 19.5 12C19.5 12.6296 19.4573 13.218 19.3849 13.7599C18.843 13.8323 18.2546 13.875 17.625 13.875ZM15.0934 13.6294C13.4186 13.281 12.375 12.6165 12.375 12C12.375 11.3835 13.4186 10.719 15.0934 10.3706C15.0341 10.8859 15 11.4296 15 12C15 12.5704 15.0341 13.1141 15.0934 13.6294ZM17.625 6.75C18.2415 6.75 18.906 7.79362 19.2547 9.468C18.7391 9.40912 18.1954 9.375 17.625 9.375C17.0546 9.375 16.5109 9.40912 15.9952 9.468C16.344 7.79362 17.0085 6.75 17.625 6.75ZM20.1566 10.3706C21.8314 10.719 22.875 11.3835 22.875 12C22.875 12.6165 21.8314 13.281 20.1566 13.6294C20.2159 13.1141 20.25 12.5704 20.25 12C20.25 11.4296 20.2159 10.8859 20.1566 10.3706ZM22.6635 10.5375C22.0354 10.113 21.1313 9.78075 20.0426 9.582C19.8442 8.493 19.512 7.58925 19.0871 6.96112C20.8072 7.46137 22.1636 8.81775 22.6635 10.5375ZM16.1629 6.9615C15.738 7.58962 15.4061 8.49375 15.2074 9.58237C14.1184 9.78075 13.2146 10.113 12.5865 10.5379C13.0864 8.81775 14.4428 7.46137 16.1629 6.9615ZM6.375 17.25C3.48 17.25 1.125 14.895 1.125 12C1.125 9.105 3.48 6.75 6.375 6.75C9.27 6.75 11.625 9.105 11.625 12C11.625 14.895 9.27 17.25 6.375 17.25ZM12.5865 13.4621C13.2146 13.887 14.1188 14.2189 15.2074 14.4176C15.4058 15.5066 15.738 16.4104 16.1629 17.0385C14.4428 16.5386 13.0864 15.1822 12.5865 13.4621ZM19.0871 17.0385C19.512 16.4104 19.8442 15.5062 20.0426 14.4176C21.1316 14.2192 22.0354 13.887 22.6635 13.4621C22.1636 15.1822 20.8072 16.5386 19.0871 17.0385Z" fill="#1D1816"/>
<path d="M12 1.125C13.9822 1.125 15.6416 2.53125 16.0354 4.398L14.8594 3.45712L14.3906 4.04288L16.2656 5.54288C16.335 5.598 16.4175 5.625 16.4996 5.625C16.6099 5.625 16.7186 5.577 16.7929 5.48438L18.2929 3.60938L17.7071 3.141L16.7805 4.29938C16.3369 2.06475 14.3625 0.375 12 0.375C9.312 0.375 7.125 2.562 7.125 5.25H7.875C7.875 2.97563 9.72562 1.125 12 1.125Z" fill="#1D1816"/>
<path d="M11.9999 22.8751C10.0173 22.8751 8.35828 21.4689 7.96453 19.6017L9.14054 20.543L9.60929 19.9572L7.73428 18.4572C7.57228 18.3275 7.33641 18.3552 7.20703 18.5157L5.70703 20.3907L6.29278 20.8595L7.21941 19.7011C7.66303 21.935 9.63741 23.6251 11.9999 23.6251C14.6879 23.6251 16.8749 21.4381 16.8749 18.7501H16.1249C16.1249 21.0245 14.2743 22.8751 11.9999 22.8751Z" fill="#1D1816"/>
</svg>
