<svg width="40" height="40" viewBox="0 0 40 40" fill="none" xmlns="http://www.w3.org/2000/svg">
<path d="M38.8095 27.5135C39.4259 27.4799 39.9158 26.9703 39.9158 26.3449C39.9158 22.9727 37.2089 20.3311 33.7534 20.3311H32.6114L31.2156 13.706C32.5625 13.1208 33.5072 11.7769 33.5072 10.2157C33.5072 8.11869 31.8032 6.4126 29.7087 6.4126H24.3091C23.6627 6.4126 23.1386 6.93729 23.1386 7.58447V9.04385H20.2614C19.615 9.04385 19.0909 9.56854 19.0909 10.2157C19.0909 10.8629 19.615 11.3876 20.2614 11.3876H23.1386V12.847C23.1386 13.4942 23.6627 14.0188 24.3091 14.0188H24.8288C23.8597 15.1649 23.2735 16.6453 23.2735 18.261V24.9296C23.2735 24.9639 23.2458 24.9916 23.2116 24.9916H18.4835C18.4563 24.9916 18.4319 24.9734 18.4241 24.9472L17.1495 20.6346C18.1768 20.3598 18.9359 19.4203 18.9359 18.3063C18.9359 15.6613 16.7866 13.5094 14.1448 13.5094H3.59891C1.61453 13.5093 0 15.1258 0 17.1127C0 18.9291 1.34945 20.435 3.09719 20.6803C1.24313 22.3408 0.0739844 24.753 0.0739844 27.4338V31.0821C0.0739844 31.7293 0.598047 32.254 1.24445 32.254H2.25719C2.80234 34.9759 5.20766 37.0329 8.0843 37.0329C10.9609 37.0329 13.3662 34.9759 13.9114 32.254H28.2294C28.7745 34.9759 31.1798 37.0329 34.0565 37.0329C37.3337 37.0329 39.9999 34.3634 39.9999 31.0821C40 29.7443 39.5566 28.5085 38.8095 27.5135ZM37.3832 25.173H34.7483C34.5212 25.1465 34.2906 25.1313 34.0566 25.1313C33.637 25.1313 33.2278 25.1757 32.8327 25.2588V22.6749H33.7534C35.4677 22.6749 36.8849 23.7067 37.3832 25.173ZM25.4795 8.75627H29.7087C30.5124 8.75627 31.1663 9.41096 31.1663 10.2156C31.1663 11.0203 30.5124 11.675 29.7087 11.675H25.4795V8.75627ZM18.4836 27.3353H23.2117C24.5366 27.3353 25.6145 26.2561 25.6145 24.9296V18.2609C25.6145 16.2467 27.0274 14.5565 28.9131 14.1321L30.4918 21.625V26.3237C29.3463 27.1861 28.5214 28.4528 28.2295 29.9102H16.5927C16.0461 25.7056 12.5741 22.5599 8.24047 22.5599C6.30805 22.5599 4.5732 23.1912 3.20445 24.2764C4.33508 22.1598 6.56414 20.7161 9.12445 20.7161H14.7327L16.1798 25.6122C16.4795 26.6267 17.4269 27.3353 18.4836 27.3353ZM2.51 29.9102C2.71453 28.6635 3.24711 27.5388 4.06156 26.6674C5.12461 25.53 6.60867 24.9036 8.24031 24.9036C11.2592 24.9036 13.698 27.0252 14.2216 29.9101H2.51V29.9102ZM3.59891 18.3724C2.90523 18.3724 2.34086 17.8073 2.34086 17.1127C2.34086 16.4181 2.90523 15.853 3.59891 15.853H14.1448C15.4959 15.853 16.595 16.9535 16.595 18.3062C16.585 18.3544 16.5078 18.3863 16.3641 18.3722C15.3904 18.3722 15.6688 18.3722 15.4659 18.3722C14.0674 18.3724 3.6057 18.3724 3.59891 18.3724ZM8.0843 34.6891C6.5075 34.6891 5.165 33.6692 4.67797 32.2539H11.4906C11.0036 33.6692 9.66109 34.6891 8.0843 34.6891ZM34.0566 34.6891C32.0701 34.6891 30.454 33.071 30.454 31.0821C30.454 29.0931 32.0702 27.4751 34.0566 27.4751C36.043 27.4751 37.6591 29.0931 37.6591 31.0821C37.6591 33.071 36.043 34.6891 34.0566 34.6891Z" fill="#523429"/>
<path d="M34.0571 32.2621C34.7078 32.2621 35.2353 31.7339 35.2353 31.0824C35.2353 30.431 34.7078 29.9028 34.0571 29.9028C33.4064 29.9028 32.8789 30.431 32.8789 31.0824C32.8789 31.7339 33.4064 32.2621 34.0571 32.2621Z" fill="#523429"/>
<path d="M1.2193 10.1128H11.7168C12.3632 10.1128 12.8873 9.5881 12.8873 8.94091C12.8873 8.29373 12.3632 7.76904 11.7168 7.76904H1.2193C0.572891 7.76904 0.0488281 8.29373 0.0488281 8.94091C0.0488281 9.5881 0.572891 10.1128 1.2193 10.1128Z" fill="#523429"/>
<path d="M5.10797 5.31054H15.6959C16.3423 5.31054 16.8664 4.78585 16.8664 4.13867C16.8664 3.49148 16.3423 2.9668 15.6959 2.9668H5.10797C4.46156 2.9668 3.9375 3.49148 3.9375 4.13867C3.9375 4.78585 4.46156 5.31054 5.10797 5.31054Z" fill="#523429"/>
</svg>
