<svg width="38" height="38" viewBox="0 0 38 38" fill="none" xmlns="http://www.w3.org/2000/svg">
<g clip-path="url(#clip0)">
<path d="M19 37.4385C29.1829 37.4385 37.4379 29.1835 37.4379 19.0005C37.4379 8.81754 29.1829 0.562592 19 0.562592C8.81696 0.562592 0.562012 8.81754 0.562012 19.0005C0.562012 29.1835 8.81696 37.4385 19 37.4385Z" fill="#FFE4CC"/>
<path d="M32.0372 5.96296C30.3193 4.24502 28.3465 2.9381 26.2408 2.03998C29.1072 8.76004 27.8003 16.8358 22.3178 22.3183C16.8354 27.8007 8.75954 29.1077 2.03955 26.2412C2.93775 28.347 4.24474 30.3198 5.96253 32.0376C13.1629 39.238 24.837 39.238 32.0372 32.0376C39.2375 24.8373 39.2375 13.1632 32.0372 5.96296Z" fill="#FFD8C7"/>
<path d="M18.9999 32.4919C26.4509 32.4919 32.4912 26.4516 32.4912 19.0005C32.4912 11.5495 26.4509 5.50919 18.9999 5.50919C11.5488 5.50919 5.50854 11.5495 5.50854 19.0005C5.50854 26.4516 11.5488 32.4919 18.9999 32.4919Z" fill="#FFF0E3"/>
<path d="M28.5397 9.46075C28.2704 9.19149 27.9922 8.93677 27.7067 8.69504C27.8625 13.6069 26.067 18.569 22.3177 22.3183C18.5686 26.0674 13.607 27.8629 8.69531 27.7073C8.93697 27.9927 9.19154 28.2708 9.46073 28.5399C14.7293 33.8084 23.2712 33.8084 28.5398 28.5399C33.8083 23.2713 33.8082 14.7293 28.5397 9.46075Z" fill="#FFE8DE"/>
<path d="M11.6314 26.5151C16.1336 26.5151 19.7835 22.8653 19.7835 18.363C19.7835 13.8607 16.1336 10.2109 11.6314 10.2109C7.12907 10.2109 3.47925 13.8607 3.47925 18.363C3.47925 22.8653 7.12907 26.5151 11.6314 26.5151Z" fill="#FF5331"/>
<path d="M10.5688 20.2703C10.0627 19.8198 9.73182 19.0767 9.73182 18.2357C9.73182 17.3946 10.0627 16.6516 10.5688 16.2011V12.2398C7.74076 12.7719 5.60059 15.2531 5.60059 18.2358C5.60059 21.2183 7.74076 23.6997 10.5688 24.2317V20.2703Z" fill="#E5281A"/>
<path d="M14.3669 15.5197C14.6949 15.5197 14.9607 15.2539 14.9607 14.926C14.9607 14.5981 14.6949 14.3322 14.3669 14.3322C14.039 14.3322 13.7732 14.5981 13.7732 14.926C13.7732 15.2539 14.039 15.5197 14.3669 15.5197Z" fill="black"/>
<path d="M15.5552 17.5251C15.8831 17.5251 16.1489 17.2592 16.1489 16.9313C16.1489 16.6034 15.8831 16.3376 15.5552 16.3376C15.2273 16.3376 14.9614 16.6034 14.9614 16.9313C14.9614 17.2592 15.2273 17.5251 15.5552 17.5251Z" fill="black"/>
<path d="M15.5552 19.9008C15.8831 19.9008 16.1489 19.635 16.1489 19.307C16.1489 18.9791 15.8831 18.7133 15.5552 18.7133C15.2273 18.7133 14.9614 18.9791 14.9614 19.307C14.9614 19.635 15.2273 19.9008 15.5552 19.9008Z" fill="black"/>
<path d="M14.3669 21.8015C14.6949 21.8015 14.9607 21.5357 14.9607 21.2078C14.9607 20.8799 14.6949 20.614 14.3669 20.614C14.039 20.614 13.7732 20.8799 13.7732 21.2078C13.7732 21.5357 14.039 21.8015 14.3669 21.8015Z" fill="black"/>
<path d="M8.67798 21.6664C9.0059 21.6664 9.27173 21.4006 9.27173 21.0727C9.27173 20.7448 9.0059 20.4789 8.67798 20.4789C8.35006 20.4789 8.08423 20.7448 8.08423 21.0727C8.08423 21.4006 8.35006 21.6664 8.67798 21.6664Z" fill="#E3B361"/>
<path d="M19.773 18.3412C19.773 15.517 18.3367 13.0284 16.1549 11.5654L5.38477 23.5918C6.88027 25.366 9.11856 26.4935 11.6206 26.4935C16.123 26.4936 19.773 22.8436 19.773 18.3412Z" fill="#EF4B30"/>
<path d="M10.5687 24.2316V20.2702C10.1641 19.9101 9.87206 19.3626 9.77098 18.7279L6.8728 21.9641C7.76885 23.1226 9.07235 23.9501 10.5687 24.2316Z" fill="#D31E1A"/>
<path d="M11.6316 10.2106C10.6712 10.2106 9.74989 10.3772 8.89429 10.6822C8.58562 11.5425 8.41699 12.4695 8.41699 13.4359C8.41699 17.9383 12.0669 21.5882 16.5693 21.5882C17.5297 21.5882 18.4511 21.4217 19.3067 21.1166C19.6153 20.2564 19.784 19.3294 19.784 18.363C19.784 13.8606 16.134 10.2106 11.6316 10.2106Z" fill="#EF4B30"/>
<path d="M9.74981 17.9036C9.82418 17.201 10.1306 16.5912 10.5689 16.2011V12.2398C9.79212 12.3859 9.06767 12.6799 8.42479 13.0902C8.41996 13.2049 8.41699 13.32 8.41699 13.436C8.41699 15.0855 8.9075 16.6205 9.74981 17.9036Z" fill="#D31E1A"/>
<path d="M17.8062 20.3505C22.3085 20.3505 25.9583 16.7007 25.9583 12.1984C25.9583 7.69615 22.3085 4.04633 17.8062 4.04633C13.3039 4.04633 9.65405 7.69615 9.65405 12.1984C9.65405 16.7007 13.3039 20.3505 17.8062 20.3505Z" fill="#FF5331"/>
<path d="M16.7433 14.1059C16.2373 13.6554 15.9064 12.9123 15.9064 12.0713C15.9064 11.2302 16.2373 10.4872 16.7433 10.0367V6.07538C13.9153 6.60745 11.7751 9.08866 11.7751 12.0714C11.7751 15.0539 13.9153 17.5353 16.7433 18.0673V14.1059Z" fill="#E5281A"/>
<path d="M18.7727 6.03427V9.85387C19.4117 10.2656 19.8495 11.1036 19.8495 12.0713C19.8495 13.039 19.4117 13.877 18.7727 14.2887V18.1083C21.7189 17.6753 23.9809 15.1379 23.9809 12.0713C23.9808 9.00488 21.7189 6.46734 18.7727 6.03427Z" fill="#E5281A"/>
<path d="M20.542 9.35519C20.8699 9.35519 21.1357 9.08936 21.1357 8.76144C21.1357 8.43352 20.8699 8.16769 20.542 8.16769C20.2141 8.16769 19.9482 8.43352 19.9482 8.76144C19.9482 9.08936 20.2141 9.35519 20.542 9.35519Z" fill="#E3B361"/>
<path d="M21.73 11.3613C22.0579 11.3613 22.3237 11.0955 22.3237 10.7676C22.3237 10.4397 22.0579 10.1738 21.73 10.1738C21.4021 10.1738 21.1362 10.4397 21.1362 10.7676C21.1362 11.0955 21.4021 11.3613 21.73 11.3613Z" fill="black"/>
<path d="M21.73 13.7363C22.0579 13.7363 22.3237 13.4704 22.3237 13.1425C22.3237 12.8146 22.0579 12.5488 21.73 12.5488C21.4021 12.5488 21.1362 12.8146 21.1362 13.1425C21.1362 13.4704 21.4021 13.7363 21.73 13.7363Z" fill="black"/>
<path d="M20.542 15.637C20.8699 15.637 21.1357 15.3712 21.1357 15.0432C21.1357 14.7153 20.8699 14.4495 20.542 14.4495C20.2141 14.4495 19.9482 14.7153 19.9482 15.0432C19.9482 15.3712 20.2141 15.637 20.542 15.637Z" fill="black"/>
<path d="M14.8533 15.5019C15.1812 15.5019 15.447 15.2361 15.447 14.9082C15.447 14.5803 15.1812 14.3144 14.8533 14.3144C14.5254 14.3144 14.2595 14.5803 14.2595 14.9082C14.2595 15.2361 14.5254 15.5019 14.8533 15.5019Z" fill="black"/>
<path d="M30.3607 28.9173C24.9118 35.0018 15.5622 35.5171 9.47778 30.0682L6.24533 27.1733C5.75022 26.73 5.70828 25.9691 6.15167 25.474L24.2781 5.23324C24.7215 4.73813 25.4824 4.6962 25.9775 5.13958L29.2099 8.03433C35.2944 13.4833 35.8096 22.8328 30.3607 28.9173Z" fill="#F7C96F"/>
<path d="M21.9216 5.16019L11.2632 17.0618C12.7492 19.0579 15.1268 20.3509 17.8065 20.3509C22.3089 20.3509 25.9589 16.701 25.9589 12.1986C25.9589 9.19732 24.3367 6.57524 21.9216 5.16019Z" fill="#EF4B30"/>
<path d="M23.9813 12.0714C23.9813 9.68561 22.6119 7.62062 20.6167 6.61719L18.7732 8.67579V9.85402C19.4122 10.2657 19.85 11.1038 19.85 12.0714C19.85 13.0391 19.4121 13.8772 18.7732 14.2889V18.1085C21.7194 17.6753 23.9813 15.1379 23.9813 12.0714Z" fill="#D31E1A"/>
<path d="M12.7585 15.3921C13.6501 16.763 15.0772 17.7539 16.7437 18.0674V14.106C16.2376 13.6555 15.9068 12.9124 15.9068 12.0714C15.9068 12.003 15.9097 11.9355 15.914 11.8685L12.7585 15.3921Z" fill="#D31E1A"/>
<path d="M28.0426 26.6146L27.687 27.0116C22.3363 32.9865 13.1551 33.4924 7.1803 28.1418C6.74382 27.7508 6.70686 27.0801 7.09777 26.6436L25.4144 6.19037C25.8053 5.75389 26.4761 5.71693 26.9126 6.10784C32.8874 11.4586 33.3933 20.6398 28.0426 26.6146Z" fill="#EFBB60"/>
<path d="M26.9794 25.5512L26.6238 25.9482C21.2731 31.9231 12.092 32.429 6.11707 27.0784C5.68059 26.6874 5.64363 26.0167 6.03454 25.5802L24.3512 5.12705C24.7421 4.69057 25.4128 4.65361 25.8494 5.04452C31.8241 10.3952 32.3301 19.5763 26.9794 25.5512Z" fill="#FEDE7A"/>
<path d="M24.6011 16.1882H23.3059C23.1461 16.1882 23.0166 16.0587 23.0166 15.8989V14.6037C23.0166 14.4439 23.1461 14.3144 23.3059 14.3144H24.6011C24.7609 14.3144 24.8904 14.4439 24.8904 14.6037V15.8989C24.8904 16.0586 24.7609 16.1882 24.6011 16.1882Z" fill="#F8ACCC"/>
<path d="M17.82 19.7306L17.1723 18.609C17.0925 18.4706 17.1398 18.2937 17.2783 18.2138L18.3999 17.5662C18.5383 17.4863 18.7152 17.5337 18.7951 17.6721L19.4427 18.7938C19.5226 18.9321 19.4752 19.109 19.3368 19.1889L18.2151 19.8365C18.0768 19.9164 17.8998 19.869 17.82 19.7306Z" fill="#F8ACCC"/>
<path d="M21.3783 31.6553L21.4769 30.3638C21.4891 30.2045 21.6281 30.0852 21.7874 30.0973L23.0789 30.196C23.2382 30.2082 23.3574 30.3472 23.3453 30.5064L23.2467 31.7979C23.2345 31.9572 23.0955 32.0765 22.9362 32.0644L21.6447 31.9657C21.4854 31.9536 21.3661 31.8145 21.3783 31.6553Z" fill="#F8ACCC"/>
<path d="M23.3091 30.3432C23.2633 30.2617 23.1792 30.2037 23.0789 30.196L21.7874 30.0974C21.6281 30.0852 21.4891 30.2045 21.477 30.3639L21.4194 31.1169C22.0637 30.905 22.6952 30.6466 23.3091 30.3432Z" fill="#EFA8C9"/>
<path d="M27.7513 25.8082L27.85 24.5167C27.8622 24.3574 28.0012 24.2381 28.1604 24.2502L29.4519 24.3489C29.6112 24.361 29.7305 24.5001 29.7184 24.6593L29.6197 25.9508C29.6076 26.1101 29.4686 26.2293 29.3093 26.2173L28.0178 26.1186C27.8584 26.1065 27.7392 25.9675 27.7513 25.8082Z" fill="#F8ACCC"/>
<path d="M29.6488 24.4484C29.6007 24.3926 29.5313 24.355 29.4519 24.3489L28.1604 24.2503C28.0012 24.2381 27.8622 24.3574 27.85 24.5168L27.7513 25.8082C27.7392 25.9675 27.8584 26.1065 28.0178 26.1187L28.4397 26.1509C28.8888 25.6056 29.2918 25.0366 29.6488 24.4484Z" fill="#EFA8C9"/>
<path d="M30.4301 19.2757L30.5287 17.9842C30.5409 17.825 30.6799 17.7057 30.8391 17.7178L32.1306 17.8164C32.2899 17.8286 32.4092 17.9676 32.3971 18.1269L32.2984 19.4184C32.2863 19.5776 32.1473 19.6969 31.988 19.6848L30.6965 19.5862C30.5372 19.574 30.4179 19.435 30.4301 19.2757Z" fill="#F8ACCC"/>
<path d="M30.8391 17.7179C30.6799 17.7057 30.5409 17.825 30.5287 17.9843L30.4301 19.2758C30.4179 19.4351 30.5372 19.5741 30.6965 19.5862L31.4917 19.647C31.6086 19.0306 31.685 18.4087 31.7215 17.7853L30.8391 17.7179Z" fill="#EFA8C9"/>
<path d="M18.8007 26.0643L18.8993 24.7728C18.9115 24.6135 19.0505 24.4943 19.2098 24.5064L20.5012 24.605C20.6605 24.6172 20.7799 24.7562 20.7677 24.9155L20.6691 26.2069C20.6569 26.3662 20.5179 26.4855 20.3586 26.4734L19.0671 26.3747C18.9078 26.3626 18.7885 26.2236 18.8007 26.0643Z" fill="#F8ACCC"/>
<path d="M23.7957 20.2385L24.7967 19.4166C24.9202 19.3152 25.1025 19.3331 25.2039 19.4566L26.0258 20.4576C26.1272 20.5811 26.1093 20.7634 25.9858 20.8648L24.9847 21.6867C24.8612 21.7881 24.6789 21.7702 24.5776 21.6467L23.7557 20.6456C23.6543 20.5221 23.6722 20.3399 23.7957 20.2385Z" fill="#F8ACCC"/>
<path d="M20.0437 14.2243C19.8629 13.7694 19.5236 13.4249 19.1146 13.2284C19.3736 12.7558 19.4277 12.1755 19.2131 11.6357L18.8198 10.646C18.7946 10.5827 18.723 10.5518 18.6597 10.5769L17.429 11.0661C16.8908 11.28 16.507 11.7155 16.3402 12.2261C15.966 12.1271 15.5579 12.1426 15.1706 12.2966L13.9398 12.7858C13.8766 12.8109 13.8457 12.8825 13.8708 12.9458L14.2641 13.9355C14.6462 14.8968 15.7352 15.3663 16.6965 14.9842L16.7684 14.9556C17.1968 15.8206 18.2244 16.2261 19.1373 15.8632L20.4826 15.3285L20.0437 14.2243Z" fill="#49BC6E"/>
<path d="M17.879 12.8684L16.0841 12.9316C15.3446 12.9576 14.6817 13.2653 14.194 13.7475C14.1914 13.7446 14.1886 13.7419 14.186 13.739L14.2641 13.9354C14.6462 14.8967 15.7352 15.3662 16.6965 14.9841L16.7683 14.9555C16.997 15.4171 17.3963 15.7477 17.8577 15.9007C17.931 15.632 17.9663 15.3481 17.956 15.0551L17.879 12.8684Z" fill="#3DA55D"/>
<path d="M15.4588 14.0542C14.7194 14.0802 14.0564 14.3879 13.5687 14.8701C13.0277 14.2611 12.2294 13.8891 11.3517 13.9199L9.74289 13.9766C9.64009 13.9802 9.55971 14.0664 9.56335 14.1692L9.63378 16.1699C9.66458 17.0447 10.0893 17.8126 10.7313 18.3096C10.4 18.7919 10.2145 19.3805 10.2367 20.0102L10.3071 22.0108C10.3107 22.1136 10.397 22.194 10.4998 22.1904L12.1085 22.1338C13.6711 22.0788 14.8932 20.7675 14.8382 19.205L14.8341 19.0882C16.2831 18.9182 17.383 17.6618 17.3307 16.178L17.2538 13.9912L15.4588 14.0542Z" fill="#49BC6E"/>
<path d="M32.4348 5.56544C30.0835 3.21404 27.153 1.51643 23.9604 0.656238C23.6609 0.575489 23.3522 0.752946 23.2713 1.05279C23.1906 1.35256 23.3681 1.66101 23.6679 1.74184C26.6708 2.55097 29.4275 4.14808 31.6398 6.36039C35.0161 9.73661 36.8755 14.2256 36.8755 19.0003C36.8755 23.775 35.0161 28.2639 31.6398 31.6402C28.2636 35.0164 23.7747 36.8758 18.9999 36.8758C14.2252 36.8758 9.73626 35.0164 6.36005 31.6402C2.98384 28.264 1.12444 23.7749 1.12444 19.0003C1.12444 14.2257 2.98384 9.73661 6.36012 6.36032C10.1236 2.59684 15.3256 0.715242 20.6313 1.19885C20.9397 1.22668 21.214 0.999203 21.2421 0.690008C21.2703 0.380813 21.0425 0.107391 20.7333 0.0791876C15.0936 -0.434184 9.56541 1.5652 5.56509 5.56544C1.97654 9.15399 0.000244141 13.9252 0.000244141 19.0002C0.000244141 24.0752 1.97654 28.8465 5.56509 32.4351C9.15379 36.0236 13.925 38 19 38C24.075 38 28.8463 36.0236 32.435 32.4351C36.0235 28.8465 37.9998 24.0753 37.9998 19.0002C37.9998 13.9251 36.0234 9.15399 32.4348 5.56544Z" fill="black"/>
<path d="M7.8938 18.7133C8.22172 18.7133 8.48755 18.4475 8.48755 18.1195C8.48755 17.7916 8.22172 17.5258 7.8938 17.5258C7.56588 17.5258 7.30005 17.7916 7.30005 18.1195C7.30005 18.4475 7.56588 18.7133 7.8938 18.7133Z" fill="black"/>
<path d="M14.8464 9.83761C15.1744 9.83761 15.4402 9.57178 15.4402 9.24386C15.4402 8.91595 15.1744 8.65012 14.8464 8.65012C14.5185 8.65012 14.2527 8.91595 14.2527 9.24386C14.2527 9.57178 14.5185 9.83761 14.8464 9.83761Z" fill="black"/>
<path d="M21.7227 11.3613C22.0506 11.3613 22.3164 11.0955 22.3164 10.7676C22.3164 10.4397 22.0506 10.1738 21.7227 10.1738C21.3947 10.1738 21.1289 10.4397 21.1289 10.7676C21.1289 11.0955 21.3947 11.3613 21.7227 11.3613Z" fill="black"/>
<path d="M21.7227 13.7363C22.0506 13.7363 22.3164 13.4704 22.3164 13.1425C22.3164 12.8146 22.0506 12.5488 21.7227 12.5488C21.3947 12.5488 21.1289 12.8146 21.1289 13.1425C21.1289 13.4704 21.3947 13.7363 21.7227 13.7363Z" fill="black"/>
<path d="M5.7348 27.497C5.90002 27.645 6.0682 27.7886 6.23868 27.9285L9.09558 30.487C11.9348 33.0297 15.5358 34.4032 19.3174 34.4029C19.6042 34.4029 19.8927 34.395 20.1814 34.3791C24.2755 34.1535 28.0369 32.3469 30.7723 29.2924C33.5078 26.2379 34.89 22.3009 34.6644 18.2067C34.4388 14.1125 32.6323 10.3512 29.5778 7.61575L26.3454 4.72099C26.2781 4.66073 26.2071 4.60633 26.133 4.55771C25.8234 4.31487 25.4417 4.19226 25.045 4.21438C24.6121 4.2382 24.2145 4.42924 23.9252 4.75224L23.3053 5.4444C21.7528 4.17682 19.8191 3.48444 17.7991 3.48444C13.7747 3.48444 10.3792 6.22689 9.38199 9.94095C7.14659 10.5352 5.22099 12.0102 4.06087 14.0318C3.90635 14.3011 3.99942 14.6446 4.26869 14.7992C4.35686 14.8498 4.45297 14.8738 4.5479 14.8738C4.74265 14.8738 4.93213 14.7724 5.03596 14.5913C5.95434 12.9909 7.42291 11.7839 9.1436 11.1883C9.10864 11.4894 9.08919 11.7952 9.08586 12.1046C6.64547 13.144 5.03121 15.5594 5.03121 18.2359C5.03121 20.1765 5.88295 22.0163 7.33689 23.2755L6.62291 24.0727C4.97198 22.6292 4.03401 20.5744 4.03401 18.3631C4.03401 17.7747 4.10147 17.1888 4.23462 16.6217C4.30557 16.3195 4.1181 16.017 3.8158 15.946C3.51403 15.8749 3.21107 16.0625 3.14004 16.3647C2.98723 17.0159 2.90967 17.6881 2.90967 18.3631C2.90967 20.8979 3.98302 23.2535 5.8727 24.9101L5.60834 25.2053C5.01147 25.8719 5.06817 26.9 5.7348 27.497ZM11.3646 14.4817C12.0434 14.4583 12.6903 14.7356 13.1417 15.2435C13.2442 15.3588 13.3895 15.427 13.5437 15.4319C13.7006 15.4366 13.8476 15.3783 13.9572 15.2698C14.1442 15.0848 14.3592 14.9351 14.5964 14.8248C14.8712 14.697 15.1657 14.6267 15.4717 14.6159L16.7049 14.5725L16.742 15.6297C16.7421 15.6327 16.7422 15.6358 16.7423 15.6387L16.762 16.1975C16.8032 17.3689 15.9246 18.3933 14.7617 18.5298C14.471 18.5638 14.2552 18.8153 14.2654 19.1078L14.2695 19.2246C14.3135 20.475 13.3321 21.528 12.0818 21.572L10.8487 21.6153L10.8264 20.9829C10.848 20.8881 10.8442 20.7892 10.8163 20.6962L10.7915 19.9904C10.7743 19.5013 10.9113 19.0301 11.1876 18.6279C11.3564 18.3822 11.304 18.0476 11.0684 17.8651C10.533 17.4505 10.2123 16.8255 10.1886 16.1501L10.1314 14.5251L11.3646 14.4817ZM12.3303 12.0714C12.3303 9.64088 13.911 7.52134 16.1743 6.79637V9.80238C15.7322 10.2829 15.4445 10.9419 15.3623 11.6524C15.2248 11.6811 15.0888 11.7214 14.9557 11.7742L14.6592 11.8921C14.6277 11.5937 14.3755 11.3613 14.0688 11.3613C13.7409 11.3613 13.475 11.6271 13.475 11.9551C13.475 12.0953 13.5239 12.2239 13.6051 12.3255C13.3368 12.4996 13.2188 12.8449 13.3413 13.1535L13.6951 14.0435C13.6584 14.0676 13.622 14.0919 13.5863 14.1173C13.2689 13.8586 12.9098 13.6611 12.5259 13.5322C12.3967 13.0583 12.3303 12.5684 12.3303 12.0714ZM19.3281 9.57253V6.72438C20.0382 6.91661 20.6992 7.24844 21.2812 7.70444L20.8069 8.23399C20.7254 8.19191 20.6332 8.16771 20.5351 8.16771C20.2071 8.16771 19.9412 8.43357 19.9412 8.76154C19.9412 8.88296 19.9778 8.99577 20.0405 9.08988L19.4818 9.71376C19.4319 9.66448 19.3809 9.61713 19.3281 9.57253ZM18.4524 11.2615L18.6836 11.8433C18.8284 12.2076 18.8032 12.6141 18.6146 12.9584C18.5404 13.0937 18.5251 13.2535 18.5723 13.4004C18.6195 13.5473 18.725 13.6684 18.864 13.7352C19.1614 13.8781 19.3923 14.1256 19.5142 14.4321L19.7454 15.014L18.9224 15.3411C18.5699 15.4812 18.1857 15.4625 17.8551 15.297L17.8085 13.9715C17.8033 13.8225 17.739 13.6816 17.63 13.58C17.521 13.4784 17.3752 13.4241 17.227 13.4295L15.4321 13.4926C15.4321 13.4926 15.4321 13.4926 15.432 13.4926C15.1913 13.5011 14.9553 13.535 14.7255 13.5925L14.5481 13.1462L15.371 12.8191C15.6337 12.7147 15.9165 12.6976 16.1891 12.7697C16.4769 12.8458 16.7748 12.6841 16.8672 12.4009C16.9888 12.0289 17.2666 11.7329 17.6294 11.5887L18.4524 11.2615ZM33.542 18.2684C33.7511 22.0628 32.47 25.7115 29.9349 28.5423C27.3997 31.3732 23.9139 33.0474 20.1196 33.2565C16.8062 33.4389 13.6026 32.4847 10.9584 30.5508C12.5036 31.0744 14.1315 31.3457 15.7839 31.3457C16.5457 31.3457 17.3133 31.2881 18.0795 31.1713C18.3864 31.1245 18.5973 30.8378 18.5505 30.5309C18.5038 30.224 18.2166 30.0132 17.9102 30.0599C13.972 30.6604 10.0147 29.5686 6.95466 27.0604L6.61318 26.7545C6.34978 26.5187 6.32737 26.1124 6.56323 25.8489L8.53589 23.6462C8.57107 23.6163 8.60321 23.5818 8.63112 23.5424C8.63305 23.5396 8.63453 23.5367 8.63646 23.534L9.78151 22.2554C9.82114 22.367 9.88697 22.4685 9.97618 22.5516C10.1158 22.6818 10.2958 22.7526 10.4857 22.7526C10.4947 22.7526 10.5037 22.7524 10.5127 22.7521L12.1215 22.6955C12.9642 22.6658 13.7245 22.3292 14.3003 21.7977C14.5383 21.8218 14.7772 21.7005 14.891 21.474C14.9639 21.3291 14.9716 21.1685 14.9255 21.0254C15.1333 20.6737 15.2793 20.2821 15.349 19.8661C15.6273 19.9656 15.9426 19.8446 16.0787 19.5737C16.1323 19.4671 16.1504 19.352 16.138 19.2417C16.3275 19.1357 16.5054 19.0121 16.67 18.8733C16.6731 18.8788 16.6755 18.8845 16.6786 18.8899L17.3261 20.0116C17.3261 20.0116 17.3261 20.0117 17.3262 20.0117C17.4838 20.2845 17.7705 20.4371 18.065 20.4371C18.2093 20.4371 18.3555 20.4004 18.4892 20.3232L19.611 19.6756C20.0174 19.4408 20.1572 18.9191 19.9225 18.5125L19.275 17.391C19.1613 17.194 18.9777 17.0531 18.758 16.9942C18.5381 16.9354 18.3089 16.9655 18.1119 17.0792L17.7269 17.3015C17.8104 17.0419 17.8626 16.7697 17.8805 16.4899C18.0649 16.5331 18.2539 16.5559 18.4434 16.5559C18.7463 16.5559 19.0503 16.4999 19.3381 16.3855L20.6834 15.8508C20.8927 15.7676 21.0237 15.5726 21.0364 15.3617C21.047 15.345 21.057 15.3276 21.066 15.3096C21.2133 15.0165 21.0951 14.6596 20.8021 14.5123C20.7838 14.5031 20.7653 14.495 20.7466 14.4878L20.5593 14.0165C20.3995 13.6147 20.1388 13.2674 19.8051 13.0045C19.9547 12.4897 19.9308 11.9367 19.7286 11.4278L19.6516 11.2341L24.6901 5.60806C24.8043 5.48047 24.9615 5.40492 25.1326 5.39557C25.2569 5.38837 25.3775 5.41754 25.4832 5.47765C28.2514 7.96413 29.8884 11.3785 30.0932 15.0945C30.1439 16.0146 30.105 16.9257 29.9806 17.8183C29.9715 17.8584 29.9642 17.8992 29.9609 17.9414L29.9595 17.9601C29.6394 20.0964 28.8269 22.1218 27.57 23.8998C27.4763 23.982 27.401 24.0849 27.3504 24.2017C27.1005 24.536 26.8354 24.8614 26.5536 25.1761L26.198 25.5732C24.6119 27.3444 22.5931 28.6873 20.3595 29.4568C20.066 29.558 19.9101 29.878 20.0112 30.1714C20.0915 30.4043 20.3094 30.5505 20.5427 30.5505C20.6034 30.5505 20.6652 30.5406 20.7258 30.5197C20.8044 30.4926 20.8821 30.4631 20.9602 30.4347L20.8702 31.6124V31.6125C20.8345 32.0805 21.1863 32.4905 21.6544 32.5262L22.9457 32.6248C22.9679 32.6265 22.99 32.6274 23.012 32.6274C23.215 32.6274 23.4093 32.5557 23.5651 32.422C23.7377 32.2739 23.8423 32.0674 23.8595 31.8407L23.9042 31.2557C24.0071 31.3698 24.1556 31.442 24.3214 31.442C24.6319 31.442 24.8835 31.1903 24.8835 30.8798C24.8835 30.5694 24.6319 30.3177 24.3214 30.3177C24.1835 30.3177 24.0573 30.3676 23.9595 30.45C23.9425 30.0246 23.6086 29.6687 23.1741 29.6356L22.8252 29.609C24.4042 28.7763 25.835 27.6638 27.0354 26.3233L27.2283 26.1081C27.336 26.4188 27.6196 26.6527 27.9678 26.6793L29.2592 26.7779C29.2814 26.7796 29.3035 26.7805 29.3255 26.7805C29.5285 26.7805 29.7228 26.7088 29.8785 26.5752C30.0512 26.427 30.1557 26.2206 30.173 25.9939L30.2715 24.7026C30.289 24.4758 30.217 24.2558 30.0688 24.0831C29.9207 23.9105 29.7142 23.8059 29.4876 23.7887L29.0121 23.7524C29.7145 22.6088 30.2484 21.3942 30.6166 20.1431C30.6265 20.1442 30.6362 20.1462 30.6463 20.1469L31.9376 20.2455C31.9598 20.2472 31.9819 20.2481 32.0039 20.2481C32.2069 20.2481 32.4012 20.1764 32.5569 20.0428C32.7295 19.8946 32.8341 19.6882 32.8514 19.4614L32.95 18.17C32.9673 17.9432 32.8952 17.7233 32.7472 17.5507C32.5991 17.3781 32.3926 17.2735 32.1659 17.2562L31.1746 17.1805C31.4043 14.5243 30.9325 11.8256 29.776 9.3852C32.031 11.8116 33.3574 14.9197 33.542 18.2684ZM18.163 19.2132L17.7884 18.5641L18.4375 18.1894L18.8122 18.8385L18.163 19.2132ZM31.0609 18.2991L31.8083 18.3562L31.7512 19.1035L31.0038 19.0464L31.0609 18.2991ZM28.3824 24.8316L29.1297 24.8887L29.0727 25.636L28.3254 25.5789L28.3824 24.8316ZM22.8162 30.7358L22.7591 31.4831L22.0118 31.426L22.0689 30.6787L22.8162 30.7358ZM17.7992 4.60848C19.5409 4.60848 21.2082 5.20097 22.5533 6.28397L22.0321 6.86592C21.1117 6.12796 20.022 5.65088 18.8478 5.47825C18.6857 5.45457 18.5221 5.50222 18.3986 5.60902C18.275 5.71582 18.2039 5.87109 18.2039 6.03444V9.85404C18.2039 9.94963 18.2282 10.0419 18.2726 10.1232L17.2142 10.5439C17.0987 10.5898 16.9888 10.6453 16.8833 10.707C16.9519 10.6148 17.0275 10.5305 17.1103 10.4568C17.2301 10.3501 17.2986 10.1973 17.2986 10.0369V6.07541C17.2986 5.90812 17.2241 5.74952 17.0953 5.64272C16.9665 5.53592 16.797 5.49198 16.6325 5.523C13.4883 6.11453 11.2061 8.86849 11.2061 12.0714C11.2061 12.506 11.2484 12.9363 11.331 13.3581C11.329 13.3582 11.3271 13.3581 11.3251 13.3582L10.3032 13.3942C10.241 13.0003 10.2091 12.6 10.2091 12.1987C10.2091 11.6527 10.2675 11.1202 10.3776 10.6066C10.3974 10.5553 10.4098 10.5009 10.414 10.4448C11.2075 7.10238 14.2175 4.60848 17.7992 4.60848ZM6.15548 18.2357C6.15548 16.1489 7.336 14.2531 9.15614 13.3126C9.17024 13.4233 9.18598 13.5337 9.20423 13.6436C9.20127 13.6467 9.198 13.6494 9.19503 13.6526C9.05869 13.7988 8.98752 13.9894 8.99464 14.1891L9.02069 14.9287C8.92257 14.857 8.80204 14.8142 8.6712 14.8142C8.34322 14.8142 8.07737 15.0801 8.07737 15.408C8.07737 15.736 8.34322 16.0019 8.6712 16.0019C8.81689 16.0019 8.95018 15.9492 9.0535 15.8621L9.065 16.1897C9.09454 17.0325 9.43313 17.8228 10.0093 18.4214C9.76525 18.9187 9.64799 19.4665 9.6678 20.0302L9.68955 20.6482L9.26227 21.1253C9.26376 21.108 9.26495 21.0905 9.26495 21.0728C9.26495 20.7448 8.99909 20.479 8.67112 20.479C8.34315 20.479 8.0773 20.7448 8.0773 21.0728C8.0773 21.4008 8.34315 21.6666 8.67112 21.6666C8.71105 21.6666 8.75009 21.6625 8.78787 21.655L8.08665 22.438C6.86916 21.3905 6.15548 19.8552 6.15548 18.2357Z" fill="black"/>
<path d="M23.2989 16.7503H24.5941C25.0636 16.7503 25.4455 16.3684 25.4455 15.8989V14.6037C25.4455 14.1343 25.0636 13.7523 24.5941 13.7523H23.2989C22.8294 13.7523 22.4475 14.1342 22.4475 14.6037V15.8989C22.4475 16.3684 22.8294 16.7503 23.2989 16.7503ZM23.5718 14.8766H24.3213V15.6261H23.5718V14.8766Z" fill="black"/>
<path d="M20.374 27.0364C20.8141 27.0364 21.1881 26.696 21.2224 26.2498L21.3209 24.9583C21.3565 24.4903 21.0049 24.0804 20.5368 24.0446L19.2455 23.946C18.7773 23.91 18.3676 24.2618 18.3315 24.7301L18.233 26.0216C18.1973 26.4896 18.549 26.8995 19.0171 26.9353L20.3086 27.034C20.3304 27.0355 20.3523 27.0364 20.374 27.0364ZM20.1221 25.8921L19.3747 25.835L19.4318 25.0877L20.1792 25.1448L20.1221 25.8921Z" fill="black"/>
<path d="M24.4327 18.9821L23.4317 19.8039C23.0688 20.1019 23.016 20.6393 23.3139 21.0023L24.1358 22.0033C24.2801 22.1791 24.4842 22.2881 24.7106 22.3104C24.739 22.3131 24.7672 22.3145 24.7953 22.3145C24.9917 22.3145 25.1803 22.2473 25.334 22.1211L26.3352 21.2992C26.6979 21.0012 26.7507 20.4637 26.4529 20.1009L25.631 19.1C25.4866 18.9242 25.2826 18.8151 25.0562 18.7929C24.8299 18.7702 24.6085 18.8378 24.4327 18.9821ZM24.145 20.673L24.1456 20.6725C24.1454 20.6727 24.1453 20.6728 24.145 20.673ZM24.8316 21.0791L24.356 20.4998L24.9353 20.0242L25.4108 20.6035L24.8316 21.0791Z" fill="black"/>
<path d="M14.6283 23.4153C14.9388 23.4153 15.1904 23.1636 15.1904 22.8531C15.1904 22.5427 14.9388 22.291 14.6283 22.291C14.3178 22.291 14.0662 22.5427 14.0662 22.8531C14.0662 23.1636 14.3178 23.4153 14.6283 23.4153Z" fill="black"/>
<path d="M21.0968 22.2286C21.4073 22.2286 21.6589 21.9769 21.6589 21.6664C21.6589 21.356 21.4073 21.1043 21.0968 21.1043C20.7863 21.1043 20.5347 21.356 20.5347 21.6664C20.5347 21.9769 20.7863 22.2286 21.0968 22.2286Z" fill="black"/>
<path d="M26.6925 30.5803C27.003 30.5803 27.2546 30.3286 27.2546 30.0182C27.2546 29.7077 27.003 29.456 26.6925 29.456C26.382 29.456 26.1304 29.7077 26.1304 30.0182C26.1304 30.3286 26.382 30.5803 26.6925 30.5803Z" fill="black"/>
<path d="M28.8756 28.6639C29.1861 28.6639 29.4377 28.4123 29.4377 28.1018C29.4377 27.7913 29.1861 27.5397 28.8756 27.5397C28.5652 27.5397 28.3135 27.7913 28.3135 28.1018C28.3135 28.4123 28.5652 28.6639 28.8756 28.6639Z" fill="black"/>
<path d="M17.9882 32.5663C18.2986 32.5663 18.5503 32.3147 18.5503 32.0042C18.5503 31.6938 18.2986 31.4421 17.9882 31.4421C17.6777 31.4421 17.426 31.6938 17.426 32.0042C17.426 32.3147 17.6777 32.5663 17.9882 32.5663Z" fill="black"/>
<path d="M26.6925 28.6639C27.003 28.6639 27.2546 28.4123 27.2546 28.1018C27.2546 27.7913 27.003 27.5397 26.6925 27.5397C26.382 27.5397 26.1304 27.7913 26.1304 28.1018C26.1304 28.4123 26.382 28.6639 26.6925 28.6639Z" fill="black"/>
<path d="M31.2145 21.7699C31.5249 21.7699 31.7766 21.5183 31.7766 21.2078C31.7766 20.8973 31.5249 20.6457 31.2145 20.6457C30.904 20.6457 30.6523 20.8973 30.6523 21.2078C30.6523 21.5183 30.904 21.7699 31.2145 21.7699Z" fill="black"/>
<path d="M32.339 16.3379C32.6494 16.3379 32.9011 16.0862 32.9011 15.7758C32.9011 15.4653 32.6494 15.2137 32.339 15.2137C32.0285 15.2137 31.7769 15.4653 31.7769 15.7758C31.7769 16.0862 32.0285 16.3379 32.339 16.3379Z" fill="black"/>
<path d="M31.2145 24.5389C31.5249 24.5389 31.7766 24.2873 31.7766 23.9768C31.7766 23.6663 31.5249 23.4147 31.2145 23.4147C30.904 23.4147 30.6523 23.6663 30.6523 23.9768C30.6523 24.2873 30.904 24.5389 31.2145 24.5389Z" fill="black"/>
<path d="M27.6178 18.056C27.9283 18.056 28.1799 17.8043 28.1799 17.4939C28.1799 17.1834 27.9283 16.9317 27.6178 16.9317C27.3073 16.9317 27.0557 17.1834 27.0557 17.4939C27.0557 17.8043 27.3073 18.056 27.6178 18.056Z" fill="black"/>
<path d="M23.9464 12.8022C24.2569 12.8022 24.5085 12.5505 24.5085 12.24C24.5085 11.9296 24.2569 11.6779 23.9464 11.6779C23.636 11.6779 23.3843 11.9296 23.3843 12.24C23.3843 12.5505 23.636 12.8022 23.9464 12.8022Z" fill="black"/>
</g>
<defs>
<clipPath id="clip0">
<rect width="38" height="38" fill="white"/>
</clipPath>
</defs>
</svg>
