<svg width="20" height="20" viewBox="0 0 20 20" fill="none" xmlns="http://www.w3.org/2000/svg">
<path d="M16.7211 7.19892C16.1238 5.91642 15.2896 4.66549 14.2417 3.48092C14.0221 3.2326 13.6432 3.21756 13.4041 3.44076L10.6468 6.01416V0.624943C10.6468 0.173811 10.1029 -0.163259 9.69555 0.0831466C7.45621 1.43768 4.73609 4.15471 3.34305 7.05592C2.55164 8.70408 2.15039 10.4122 2.15039 12.133C2.15035 16.4709 5.67094 20 9.99832 20C15.4355 20 20.0643 14.3784 16.7211 7.19892ZM8.18777 17.0103C8.18777 15.4945 9.40816 14.3819 9.99926 13.932C10.5877 14.4099 11.8088 15.5747 11.8088 17.0103C11.8088 18.0111 10.9966 18.8252 9.99828 18.8252C8.99992 18.8252 8.18777 18.0111 8.18777 17.0103ZM12.7127 18.2466C13.6086 16.2779 12.1261 13.8986 10.3345 12.7171C10.1468 12.5934 9.90523 12.5881 9.71223 12.7035C7.84547 13.82 6.38625 16.274 7.28391 18.2466C4.95168 17.202 3.32223 14.8548 3.32223 12.133C3.32223 7.87377 6.09605 4.16435 9.47496 1.65916V7.36365C9.47496 7.87552 10.086 8.14271 10.4602 7.79353L13.7557 4.71771C15.693 7.06709 16.6744 9.55916 16.6744 12.1331C16.6744 14.8548 15.0449 17.202 12.7127 18.2466Z" fill="#1D1816"/>
</svg>
