<svg width="42" height="36" viewBox="0 0 42 36" fill="none" xmlns="http://www.w3.org/2000/svg">
<path d="M30.625 35.875H29.25C23.1749 35.875 18.25 30.9502 18.25 24.875C18.25 18.7999 23.1748 13.875 29.25 13.875H30.625C36.7001 13.875 41.625 18.7998 41.625 24.875C41.625 30.9502 36.7002 35.875 30.625 35.875Z" fill="#D7322D"/>
<path d="M29.25 35.875C35.3251 35.875 40.25 30.9501 40.25 24.875C40.25 18.7999 35.3251 13.875 29.25 13.875C23.1749 13.875 18.25 18.7999 18.25 24.875C18.25 30.9501 23.1749 35.875 29.25 35.875Z" fill="#F04B37"/>
<path d="M21 22.125H19.625C13.5499 22.125 8.625 17.2002 8.625 11.125C8.625 5.04991 13.5498 0.125 19.625 0.125H21C27.0751 0.125 32 5.04982 32 11.125C32 17.2002 27.0752 22.125 21 22.125Z" fill="#D7322D"/>
<path d="M19.625 22.125C25.7001 22.125 30.625 17.2001 30.625 11.125C30.625 5.04987 25.7001 0.125 19.625 0.125C13.5499 0.125 8.625 5.04987 8.625 11.125C8.625 17.2001 13.5499 22.125 19.625 22.125Z" fill="#F04B37"/>
<path d="M12.75 35.875H11.375C5.29991 35.875 0.375 30.9502 0.375 24.875C0.375 18.7999 5.29982 13.875 11.375 13.875H12.75C18.8251 13.875 23.75 18.7998 23.75 24.875C23.75 30.9502 18.8252 35.875 12.75 35.875Z" fill="#D7322D"/>
<path d="M11.375 35.875C17.4501 35.875 22.375 30.9501 22.375 24.875C22.375 18.7999 17.4501 13.875 11.375 13.875C5.29987 13.875 0.375 18.7999 0.375 24.875C0.375 30.9501 5.29987 35.875 11.375 35.875Z" fill="#F04B37"/>
<path d="M19.166 28.0833C19.9254 28.0833 20.541 27.4676 20.541 26.7083C20.541 25.9489 19.9254 25.3333 19.166 25.3333C18.4066 25.3333 17.791 25.9489 17.791 26.7083C17.791 27.4676 18.4066 28.0833 19.166 28.0833Z" fill="#FF8773"/>
<path d="M28.334 32.8958C29.0934 32.8958 29.709 32.2801 29.709 31.5208C29.709 30.7614 29.0934 30.1458 28.334 30.1458C27.5746 30.1458 26.959 30.7614 26.959 31.5208C26.959 32.2801 27.5746 32.8958 28.334 32.8958Z" fill="#FF8773"/>
<path d="M3.8125 26.0208C4.57189 26.0208 5.1875 25.4051 5.1875 24.6458C5.1875 23.8864 4.57189 23.2708 3.8125 23.2708C3.05311 23.2708 2.4375 23.8864 2.4375 24.6458C2.4375 25.4051 3.05311 26.0208 3.8125 26.0208Z" fill="#FF8773"/>
<path d="M23.75 13.1875C24.5094 13.1875 25.125 12.5719 25.125 11.8125C25.125 11.0531 24.5094 10.4375 23.75 10.4375C22.9906 10.4375 22.375 11.0531 22.375 11.8125C22.375 12.5719 22.9906 13.1875 23.75 13.1875Z" fill="#FF8773"/>
<path d="M17.4473 23.2708C17.6371 23.2708 17.791 23.1168 17.791 22.927C17.791 22.7372 17.6371 22.5833 17.4473 22.5833C17.2574 22.5833 17.1035 22.7372 17.1035 22.927C17.1035 23.1168 17.2574 23.2708 17.4473 23.2708Z" fill="#FF8773"/>
<path d="M28.1035 23.7292C28.2934 23.7292 28.4473 23.5753 28.4473 23.3855C28.4473 23.1957 28.2934 23.0417 28.1035 23.0417C27.9137 23.0417 27.7598 23.1957 27.7598 23.3855C27.7598 23.5753 27.9137 23.7292 28.1035 23.7292Z" fill="#FF8773"/>
<path d="M18.0215 13.073C18.2113 13.073 18.3652 12.9191 18.3652 12.7292C18.3652 12.5394 18.2113 12.3855 18.0215 12.3855C17.8316 12.3855 17.6777 12.5394 17.6777 12.7292C17.6777 12.9191 17.8316 13.073 18.0215 13.073Z" fill="#FF8773"/>
<path d="M8.50977 31.0625C8.69961 31.0625 8.85352 30.9086 8.85352 30.7188C8.85352 30.5289 8.69961 30.375 8.50977 30.375C8.31992 30.375 8.16602 30.5289 8.16602 30.7188C8.16602 30.9086 8.31992 31.0625 8.50977 31.0625Z" fill="#FF8773"/>
<path d="M10.3431 25.3334C10.786 25.3334 11.1451 24.9743 11.1451 24.5313C11.1451 24.0883 10.786 23.7292 10.3431 23.7292C9.90011 23.7292 9.54102 24.0883 9.54102 24.5313C9.54102 24.9743 9.90011 25.3334 10.3431 25.3334Z" fill="#FF8773"/>
<path d="M37.9583 28.4271C38.4013 28.4271 38.7604 28.068 38.7604 27.6251C38.7604 27.1821 38.4013 26.823 37.9583 26.823C37.5153 26.823 37.1562 27.1821 37.1562 27.6251C37.1562 28.068 37.5153 28.4271 37.9583 28.4271Z" fill="#FF8773"/>
<path d="M33.261 21.8959C33.704 21.8959 34.0631 21.5368 34.0631 21.0938C34.0631 20.6508 33.704 20.2917 33.261 20.2917C32.8181 20.2917 32.459 20.6508 32.459 21.0938C32.459 21.5368 32.8181 21.8959 33.261 21.8959Z" fill="#FF8773"/>
<path d="M16.8743 6.19786C17.3173 6.19786 17.6764 5.83877 17.6764 5.3958C17.6764 4.95284 17.3173 4.59375 16.8743 4.59375C16.4314 4.59375 16.0723 4.95284 16.0723 5.3958C16.0723 5.83877 16.4314 6.19786 16.8743 6.19786Z" fill="#FF8773"/>
<path d="M13.0931 18.6873C13.536 18.6873 13.8951 18.3283 13.8951 17.8853C13.8951 17.4423 13.536 17.0833 13.0931 17.0833C12.6501 17.0833 12.291 17.4423 12.291 17.8853C12.291 18.3283 12.6501 18.6873 13.0931 18.6873Z" fill="#FF8773"/>
</svg>
