<svg width="40" height="40" viewBox="0 0 40 40" fill="none" xmlns="http://www.w3.org/2000/svg">
<path d="M18.125 28.0938V20.625C18.125 20.4592 18.0592 20.3003 17.942 20.1831C17.8248 20.0658 17.6658 20 17.5 20C13.6828 20 13.1477 26.5495 13.1268 26.8281C13.1175 26.9518 13.1452 27.0755 13.2064 27.1833C13.2676 27.2912 13.3596 27.3784 13.4705 27.4339L14.375 27.8863V28.0941L13.8907 32.9384C13.8646 33.1991 13.8934 33.4623 13.9753 33.7111C14.0572 33.96 14.1903 34.1889 14.3661 34.3831C14.5419 34.5773 14.7564 34.7326 14.9958 34.8388C15.2353 34.9451 15.4943 35 15.7563 35H16.7438C17.0057 35 17.2648 34.9451 17.5042 34.8388C17.7437 34.7326 17.9582 34.5773 18.134 34.3831C18.3097 34.1889 18.4428 33.96 18.5247 33.7111C18.6066 33.4623 18.6355 33.1991 18.6094 32.9384L18.125 28.0938ZM14.4179 26.5102C14.5263 25.6338 14.7189 24.7699 14.9933 23.9305C15.4736 22.5172 16.1047 21.6571 16.875 21.3639V27.5H15.625C15.625 27.3839 15.5927 27.2702 15.5317 27.1714C15.4707 27.0727 15.3834 26.9929 15.2796 26.941L14.4179 26.5102ZM17.207 33.5444C17.1487 33.6094 17.0773 33.6614 16.9974 33.6969C16.9176 33.7323 16.8311 33.7504 16.7438 33.75H15.7563C15.6689 33.75 15.5825 33.7317 15.5027 33.6963C15.4228 33.6609 15.3513 33.6091 15.2927 33.5443C15.2341 33.4795 15.1897 33.4032 15.1625 33.3202C15.1352 33.2372 15.1256 33.1494 15.1343 33.0625L15.5657 28.75H16.9344L17.3657 33.0625C17.3749 33.1495 17.3655 33.2374 17.3382 33.3205C17.3109 33.4035 17.2662 33.4798 17.2072 33.5444H17.207Z" fill="#523429"/>
<path d="M38.125 0.625H33.125C32.9592 0.625 32.8003 0.690848 32.6831 0.808058C32.5658 0.925268 32.5 1.08424 32.5 1.25V1.875H19.4517C18.8867 1.8754 18.3308 2.01715 17.8345 2.28734L11.7155 5.625H4.375C3.32359 5.625 2.5 6.72312 2.5 8.125C2.5 9.43344 3.21758 10.4766 4.16805 10.6102L1.35023 20.1493C1.34773 20.1578 1.34539 20.1664 1.3432 20.1749C1.28133 20.4228 1.25003 20.6773 1.25 20.9327V38.75C1.25 38.9158 1.31585 39.0747 1.43306 39.1919C1.55027 39.3092 1.70924 39.375 1.875 39.375H30C30.1658 39.375 30.3247 39.3092 30.4419 39.1919C30.5592 39.0747 30.625 38.9158 30.625 38.75V20.985C30.6251 20.6865 30.5823 20.3895 30.498 20.1032L27.8939 11.2495C28.7419 11.2432 29.5567 10.9186 30.1766 10.3399C30.7965 9.76115 31.1763 8.97061 31.2407 8.125H32.5V9.375C32.5 9.54076 32.5658 9.69973 32.6831 9.81694C32.8003 9.93415 32.9592 10 33.125 10H38.125C38.2908 10 38.4497 9.93415 38.5669 9.81694C38.6842 9.69973 38.75 9.54076 38.75 9.375V1.25C38.75 1.08424 38.6842 0.925268 38.5669 0.808058C38.4497 0.690848 38.2908 0.625 38.125 0.625ZM3.75 8.125C3.75 7.36195 4.12016 6.875 4.375 6.875H22.2412L19.7412 9.375H4.375C4.12016 9.375 3.75 8.88805 3.75 8.125ZM23.2182 20.175C23.1563 20.4229 23.125 20.6774 23.125 20.9328V38.125H2.5V20.9327C2.50006 20.7835 2.51787 20.6349 2.55305 20.4899L5.46703 10.625H18.6104C18.2841 11.1762 18.1603 11.824 18.2601 12.4567C18.36 13.0895 18.6773 13.6676 19.1575 14.0915C19.6376 14.5155 20.2506 14.7588 20.8908 14.7796C21.5311 14.8003 22.1585 14.5972 22.6651 14.2052L25.6719 11.8663L23.2252 20.1494C23.2227 20.1579 23.2204 20.1665 23.2182 20.175ZM26.875 36.5089L28.4911 38.125H25.2589L26.875 36.5089ZM29.2988 20.4562C29.3494 20.6279 29.375 20.806 29.375 20.985V37.2411L27.5 35.3661V21.875C27.5 21.7092 27.4342 21.5503 27.3169 21.4331C27.1997 21.3158 27.0408 21.25 26.875 21.25C26.7092 21.25 26.5503 21.3158 26.4331 21.4331C26.3158 21.5503 26.25 21.7092 26.25 21.875V35.3662L24.375 37.2412V20.9327C24.3751 20.7835 24.3929 20.6349 24.428 20.4899L26.8734 12.2105L29.2988 20.4562ZM32.5 6.875H30.9979C30.7333 6.87531 30.4797 6.98054 30.2926 7.16762C30.1055 7.35469 30.0003 7.60833 30 7.87289C29.9994 8.43684 29.775 8.9775 29.3763 9.37628C28.9775 9.77505 28.4368 9.99936 27.8729 10H26.3365C26.1415 10.0003 25.9522 10.0653 25.798 10.1848L21.8975 13.2188C21.5958 13.4536 21.2159 13.5646 20.8353 13.5291C20.4546 13.4936 20.1018 13.3143 19.8488 13.0276C19.5957 12.741 19.4615 12.3687 19.4735 11.9866C19.4854 11.6044 19.6427 11.2412 19.9131 10.971L24.1919 6.69219C24.2794 6.6048 24.339 6.49342 24.3631 6.37214C24.3873 6.25087 24.3749 6.12515 24.3276 6.0109C24.2803 5.89665 24.2002 5.799 24.0974 5.73031C23.9945 5.66161 23.8737 5.62496 23.75 5.625H14.3261L18.4332 3.38469C18.7457 3.21451 19.0959 3.12524 19.4517 3.125H32.5V6.875ZM37.5 8.75H33.75V1.875H37.5V8.75Z" fill="#523429"/>
<path d="M12.5 20.625C12.5 20.4592 12.4342 20.3003 12.3169 20.1831C12.1997 20.0658 12.0408 20 11.875 20C11.7092 20 11.5503 20.0658 11.4331 20.1831C11.3158 20.3003 11.25 20.4592 11.25 20.625V22.5H10V20.625C10 20.4592 9.93415 20.3003 9.81694 20.1831C9.69973 20.0658 9.54076 20 9.375 20C9.20924 20 9.05027 20.0658 8.93306 20.1831C8.81585 20.3003 8.75 20.4592 8.75 20.625V22.5H7.5V20.625C7.5 20.4592 7.43415 20.3003 7.31694 20.1831C7.19973 20.0658 7.04076 20 6.875 20C6.70924 20 6.55027 20.0658 6.43306 20.1831C6.31585 20.3003 6.25 20.4592 6.25 20.625V23.125H6.25117C6.25074 23.222 6.27294 23.3177 6.31602 23.4045L7.48937 25.7513L6.97227 32.9914C6.95392 33.2482 6.98867 33.5061 7.07435 33.7489C7.16002 33.9917 7.29479 34.2143 7.47025 34.4027C7.64572 34.5912 7.85811 34.7414 8.0942 34.8442C8.33029 34.947 8.58502 35 8.8425 35H9.9075C10.165 35 10.4197 34.947 10.6558 34.8442C10.8919 34.7414 11.1043 34.5912 11.2797 34.4027C11.4552 34.2143 11.59 33.9917 11.6757 33.7489C11.7613 33.5061 11.7961 33.2482 11.7777 32.9914L11.2606 25.7513L12.434 23.4045C12.4771 23.3177 12.4993 23.222 12.4988 23.125H12.5V20.625ZM10.8637 23.75L10.2387 25H8.51125L7.88625 23.75H10.8637ZM10.365 33.5509C10.3067 33.614 10.236 33.6643 10.1572 33.6986C10.0784 33.7329 9.9934 33.7504 9.9075 33.75H8.8425C8.75668 33.75 8.67177 33.7323 8.59308 33.6981C8.51438 33.6638 8.44359 33.6137 8.3851 33.5509C8.32661 33.4881 8.28168 33.414 8.25312 33.333C8.22455 33.2521 8.21296 33.1662 8.21906 33.0805L8.70695 26.25H10.0429L10.5308 33.0805C10.5373 33.1662 10.5259 33.2522 10.4974 33.3331C10.4688 33.4141 10.4238 33.4883 10.365 33.5509Z" fill="#523429"/>
</svg>
