<svg width="150" height="150" viewBox="0 0 150 150" fill="none" xmlns="http://www.w3.org/2000/svg">
<path d="M99.7629 84.2448V117.234C99.7629 120.285 102.236 122.758 105.287 122.758C108.338 122.758 110.811 120.285 110.811 117.234V76.559L99.7629 84.2448Z" fill="#FFEBA1"/>
<path d="M75.2219 101.316V112.569C75.2219 115.62 77.695 118.093 80.746 118.093C83.797 118.093 86.2701 115.62 86.2701 112.569V93.6301L75.2219 101.316Z" fill="#FFEBA1"/>
<path d="M34.2097 129.844V142.277C34.2097 145.328 36.6828 147.801 39.7338 147.801C42.7848 147.801 45.2579 145.328 45.2579 142.277V122.159L34.2097 129.844Z" fill="#FFEBA1"/>
<path d="M105.533 80.2314V117.234C105.533 119.329 104.367 121.151 102.648 122.088C103.432 122.515 104.331 122.758 105.287 122.758C108.338 122.758 110.811 120.285 110.811 117.234V76.559L105.533 80.2314Z" fill="#F7D36F"/>
<path d="M80.9911 97.3015V112.569C80.9911 114.665 79.8249 116.486 78.1072 117.423C78.8911 117.851 79.7895 118.093 80.7462 118.093C83.7972 118.093 86.2703 115.62 86.2703 112.569V93.6302L80.9911 97.3015Z" fill="#F7D36F"/>
<path d="M39.9786 125.831V142.277C39.9786 144.372 38.8125 146.194 37.0947 147.13C37.8786 147.558 38.777 147.801 39.7337 147.801C42.7847 147.801 45.2578 145.328 45.2578 142.277V122.159L39.9786 125.831Z" fill="#F7D36F"/>
<path d="M25.5247 17.3081C25.5762 17.292 30.9126 15.6281 40.1744 15.8695C49.2187 16.1053 63.6154 18.2865 80.8434 27.3343C98.0726 36.382 108.039 46.9976 113.367 54.3093C118.823 61.7972 120.482 67.1347 120.497 67.1862C120.71 67.9129 121.038 68.5721 121.447 69.1603L22.8594 137.739L23.3583 17.6468C24.0759 17.6502 24.806 17.5449 25.5247 17.3081V17.3081Z" fill="#FFDB57"/>
<path d="M117.752 61.1736L22.9029 127.152L22.8594 137.739L121.447 69.1605C121.038 68.5722 120.71 67.913 120.497 67.1863C120.487 67.1531 119.773 64.8552 117.752 61.1736Z" fill="#F6C134"/>
<path d="M87.2005 15.2345C87.2005 15.2345 87.2005 15.2345 87.1983 15.2334C87.1983 15.2334 87.1983 15.2334 87.2005 15.2345C49.4623 -4.58444 22.3878 3.95175 21.2537 4.32597C17.6682 5.50472 15.7182 9.36711 16.898 12.9526C18.0768 16.538 21.9392 18.4881 25.5246 17.3082C25.5761 17.2922 30.9125 15.6282 40.1743 15.8697C49.2186 16.1054 63.6153 18.2855 80.8433 27.3344C98.0725 36.3822 108.039 46.9977 113.366 54.3094C118.823 61.7973 120.482 67.1348 120.497 67.1863C121.562 70.8073 125.36 72.881 128.981 71.8166C132.602 70.7535 134.674 66.9552 133.611 63.3342C133.275 62.1875 124.935 35.0523 87.1971 15.2322C87.1983 15.2334 87.1983 15.2334 87.1983 15.2334C87.1971 15.2322 87.1971 15.2322 87.1971 15.2322C87.196 15.2322 87.196 15.2322 87.196 15.2322L87.2005 15.2345Z" fill="#FF9F34"/>
<path d="M128.268 66.3257C128.251 66.2685 126.383 60.2603 120.242 51.8317C114.247 43.6022 103.028 31.6545 83.6369 21.4704C64.2448 11.2862 48.041 8.83261 37.8615 8.56711C27.437 8.29474 21.43 10.167 21.3728 10.1865C19.7546 10.7186 18.0872 10.6831 16.5834 10.1922C16.4999 11.0974 16.5948 12.0347 16.8981 12.9525C18.0769 16.538 21.9393 18.488 25.5247 17.3081C25.5762 17.2921 30.9126 15.6281 40.1743 15.8696C49.2187 16.1054 63.6154 18.2866 80.8434 27.3344C98.0725 36.3821 108.039 46.9977 113.366 54.3094C118.823 61.7973 120.482 67.1348 120.497 67.1874C121.562 70.8084 125.36 72.882 128.981 71.8177C129.884 71.5522 130.692 71.1162 131.378 70.5555C129.928 69.5884 128.798 68.1282 128.268 66.3257Z" fill="#FB8F2D"/>
<path d="M70.1352 60.6333C70.1352 67.0363 64.9453 72.2274 58.5423 72.2274C52.1393 72.2274 46.9482 67.0363 46.9482 60.6333C46.9482 54.2303 52.1393 49.0404 58.5423 49.0404C64.9453 49.0404 70.1352 54.2303 70.1352 60.6333Z" fill="#F2433B"/>
<path d="M58.5423 64.3092C53.5298 64.3092 49.2611 61.1277 47.6429 56.6748C47.1943 57.9096 46.9482 59.2429 46.9482 60.6333C46.9482 67.0363 52.1393 72.2274 58.5423 72.2274C64.9453 72.2274 70.1352 67.0363 70.1352 60.6333C70.1352 59.2429 69.8903 57.9096 69.4417 56.6748C67.8235 61.1277 63.5548 64.3092 58.5423 64.3092Z" fill="#D83636"/>
<path d="M23.0552 90.5884C29.3666 90.4831 34.4524 85.3367 34.4524 79.0001C34.4524 72.6955 29.4181 67.5697 23.1513 67.4141L23.0552 90.5884Z" fill="#F2433B"/>
<path d="M23.0884 82.669L23.0552 90.5883C29.3678 90.4831 34.4524 85.3366 34.4524 79C34.4524 77.6096 34.2075 76.2775 33.7577 75.0415C32.1647 79.4257 28.0002 82.574 23.0884 82.669Z" fill="#D83636"/>
<path d="M90.6349 71.3726C84.2319 71.3726 79.042 76.5625 79.042 82.9655C79.042 87.7972 81.998 91.9377 86.2003 93.6795L102.218 82.5375C101.992 76.3336 96.8937 71.3726 90.6349 71.3726Z" fill="#F2433B"/>
<path d="M98.5692 74.5173L79.9507 87.4687C81.134 90.2725 83.3874 92.5132 86.2003 93.6782L102.218 82.5362C102.103 79.3765 100.722 76.5418 98.5692 74.5173Z" fill="#D83636"/>
<path d="M95.5846 57.3019C101.607 57.3019 106.555 52.7094 107.123 46.8374C103.427 42.9338 98.6803 38.68 92.6583 34.488C87.6721 35.7847 83.9917 40.3165 83.9917 45.7079C83.9917 52.1109 89.1816 57.3019 95.5846 57.3019Z" fill="#F2433B"/>
<path d="M104.947 44.6229C102.839 47.508 99.4321 49.3837 95.5846 49.3837C90.5732 49.3837 86.3046 46.2034 84.6864 41.7516C84.2377 42.9864 83.9917 44.3185 83.9917 45.7078C83.9917 52.1108 89.1816 57.3019 95.5846 57.3019C101.607 57.3019 106.555 52.7094 107.123 46.8374C106.435 46.1095 105.709 45.3714 104.947 44.6229Z" fill="#D83636"/>
<path d="M48.6876 33.5702C55.0906 33.5702 60.2817 28.3792 60.2817 21.9762C60.2817 20.9245 60.1386 19.9059 59.8754 18.9378C51.9343 16.7394 45.2212 16.0012 40.1743 15.8696C39.7223 15.8582 39.2817 15.8513 38.8468 15.849C37.7379 17.6263 37.0947 19.7263 37.0947 21.9762C37.0947 28.3792 42.2846 33.5702 48.6876 33.5702Z" fill="#F2433B"/>
<path d="M59.2769 18.7775C57.4699 22.8276 53.4095 25.652 48.6876 25.652C43.6763 25.652 39.4087 22.4728 37.7894 18.0222C37.3408 19.2559 37.0947 20.5868 37.0947 21.9773C37.0947 28.3792 42.2846 33.5702 48.6876 33.5702C55.0906 33.5702 60.2806 28.3803 60.2806 21.9773C60.2806 20.9245 60.1387 19.9071 59.8754 18.9377C59.674 18.8817 59.4772 18.8313 59.2769 18.7775Z" fill="#D83636"/>
<path d="M55.0141 100.752C48.6122 100.752 43.4211 105.943 43.4211 112.346C43.4211 115.707 44.8528 118.733 47.1382 120.85L65.7304 107.918C63.9908 103.713 59.8492 100.752 55.0141 100.752Z" fill="#F2433B"/>
<path d="M59.5367 101.67L43.4348 112.87C43.5756 116.021 44.9729 118.844 47.1393 120.85L65.7303 107.918C64.5687 105.109 62.3337 102.856 59.5367 101.67Z" fill="#D83636"/>
<path d="M135.722 62.715C135.375 61.5328 126.781 33.5496 88.2478 13.3003C88.2329 13.2923 88.2192 13.2843 88.2043 13.2774C49.6547 -6.96039 21.7356 1.85159 20.566 2.23612C15.8339 3.79252 13.2521 8.9092 14.8085 13.6402C15.5615 15.9325 17.1637 17.7933 19.3175 18.8805C19.9091 19.1792 20.5248 19.408 21.1508 19.5694L21.0741 38.1501C21.0684 39.3655 22.0492 40.3543 23.2645 40.3588H23.2737C24.4833 40.3588 25.4675 39.3804 25.4721 38.1684L25.5499 19.5866C25.7628 19.5339 25.9757 19.4756 26.1862 19.4058C26.2263 19.3932 29.56 18.3838 35.4468 18.1114C35.0829 19.36 34.8952 20.66 34.8952 21.9761C34.8952 29.5819 41.0819 35.7697 48.6877 35.7697C56.2843 35.7697 62.4664 29.5956 62.4802 22.0013C67.7994 23.679 73.6188 26.0239 79.8215 29.2809C82.8095 30.851 85.5699 32.4681 88.1242 34.1046C84.2607 36.5914 81.791 40.9185 81.791 45.7078C81.791 53.3136 87.9789 59.5003 95.5846 59.5003C101.201 59.5003 106.05 56.1861 108.197 51.3155C109.496 52.8364 110.622 54.2761 111.589 55.6036C116.754 62.6932 118.379 67.7824 118.387 67.8065C118.451 68.0273 118.527 68.2436 118.607 68.4565L103.779 78.7711C102.012 73.1715 96.8057 69.1729 90.635 69.1729C83.0293 69.1729 76.8426 75.3596 76.8426 82.9654C76.8426 87.2901 78.8384 91.2589 82.132 93.8293L66.4994 104.704C63.9759 100.899 59.705 98.5523 55.014 98.5523C47.4082 98.5523 41.2215 104.74 41.2215 112.345C41.2215 115.269 42.1645 118.109 43.8628 120.45L32.9795 128.02L25.075 133.518L25.2455 92.5773C31.7012 91.4352 36.6507 85.744 36.6507 78.9988C36.6507 75.3756 35.2557 71.9538 32.7243 69.3629C30.7067 67.2995 28.1455 65.9468 25.3577 65.4387L25.4355 46.9655C25.4401 45.7502 24.4593 44.7625 23.2451 44.7568C23.2416 44.7568 23.2394 44.7568 23.2359 44.7568C22.0251 44.7568 21.0421 45.7364 21.0364 46.9472L20.6587 137.73C20.6518 139.472 22.6775 140.544 24.1137 139.545L32.009 134.053V142.277C32.009 146.535 35.4743 149.999 39.7327 149.999C43.9922 149.999 47.4563 146.535 47.4563 142.277V123.308L73.0214 105.524V112.568C73.0214 116.827 76.4867 120.292 80.745 120.292C85.0045 120.292 88.4687 116.827 88.4687 112.568V94.7792L97.5633 88.4528V117.234C97.5633 121.492 101.027 124.957 105.287 124.957C109.545 124.957 113.011 121.492 113.011 117.234V109.471C113.011 108.257 112.025 107.273 110.811 107.273C109.596 107.273 108.611 108.257 108.611 109.471V117.234C108.611 119.067 107.12 120.558 105.287 120.558C103.454 120.558 101.961 119.067 101.961 117.234V85.3938L108.611 80.7681V100.675C108.611 101.873 109.612 102.875 110.811 102.875C112.009 102.875 113.011 101.873 113.011 100.675V77.7079L121.117 72.0694C121.606 72.494 122.143 72.8716 122.726 73.1886C124.821 74.3319 127.31 74.5997 129.6 73.9268C131.915 73.247 133.826 71.7066 134.983 69.5883C136.139 67.47 136.401 65.029 135.722 62.715ZM32.2528 79C32.2528 83.3178 29.275 87.0017 25.265 88.074L25.3405 69.9362C29.3551 71.0131 32.2528 74.6409 32.2528 79ZM58.0822 21.9761C58.0822 27.1569 53.8673 31.3706 48.6877 31.3706C43.5081 31.3706 39.2943 27.1569 39.2943 21.9761C39.2943 20.62 39.5885 19.2902 40.1481 18.0691C44.7749 18.1915 50.8415 18.8416 57.9952 20.7081C58.0524 21.1292 58.0822 21.5527 58.0822 21.9761ZM95.5846 55.1023C90.405 55.1023 86.1901 50.8886 86.1901 45.7078C86.1901 41.7596 88.6529 38.2714 92.283 36.913C97.3699 40.5339 101.488 44.1823 104.791 47.5824C103.922 51.9311 100.121 55.1023 95.5846 55.1023ZM90.635 73.572C95.3214 73.572 99.1907 76.9572 99.9059 81.4662L86.0059 91.1353C83.0796 89.4805 81.2405 86.3895 81.2405 82.9654C81.2417 77.7858 85.4554 73.572 90.635 73.572ZM55.0152 102.951C58.2401 102.951 61.171 104.584 62.8819 107.22L47.47 117.941C46.2695 116.335 45.6207 114.4 45.6207 112.346C45.6207 107.165 49.8344 102.951 55.0152 102.951ZM43.0583 142.277C43.0583 144.11 41.5671 145.601 39.7338 145.601C37.9004 145.601 36.4081 144.11 36.4081 142.277V130.994L43.0583 126.368V142.277ZM84.0707 112.569C84.0707 114.402 82.5795 115.894 80.7462 115.894C78.9128 115.894 77.4205 114.402 77.4205 112.569V102.465L84.0707 97.8393V112.569ZM131.122 67.4803C130.267 69.047 128.541 70.0003 126.758 69.8881C124.839 69.7668 123.15 68.4119 122.608 66.5682C122.592 66.5133 120.92 60.9411 115.145 53.0138C111.075 47.429 104.373 39.9697 93.9504 32.7084C78.0099 21.5504 57.9883 13.6459 38.3285 13.6459C29.7179 13.6459 24.8873 15.2023 24.837 15.2195C22.4371 16.008 19.7741 14.661 18.9867 12.2658C18.1879 9.83731 19.5131 7.21317 21.9404 6.41437C23.0379 6.05274 49.2382 -2.21107 86.157 17.1707C86.1581 17.1719 86.1604 17.173 86.1627 17.1742C86.1718 17.1787 86.181 17.1833 86.1913 17.189C123.101 36.5811 131.175 62.8454 131.501 63.9544C131.85 65.1423 131.715 66.3943 131.122 67.4803Z" fill="black"/>
<path d="M65.1397 70.4169C65.9946 71.2798 67.3862 71.2866 68.2491 70.4318C70.8835 67.8214 72.3346 64.3412 72.3346 60.6333C72.3346 53.0287 66.1468 46.8408 58.5422 46.8408C50.9364 46.8408 44.7485 53.0287 44.7485 60.6333C44.7485 68.2391 50.9364 74.4258 58.5422 74.4258C59.7564 74.4258 60.7406 73.4416 60.7406 72.2274C60.7406 71.012 59.7564 70.0278 58.5422 70.0278C53.3614 70.0278 49.1477 65.8129 49.1477 60.6333C49.1477 55.4537 53.3614 51.2399 58.5422 51.2399C63.7218 51.2399 67.9355 55.4537 67.9355 60.6333C67.9355 63.159 66.9479 65.5291 65.1534 67.3075C64.2906 68.1624 64.2837 69.5551 65.1397 70.4169Z" fill="black"/>
</svg>
