<svg width="38" height="38" viewBox="0 0 38 38" fill="none" xmlns="http://www.w3.org/2000/svg">
<g clip-path="url(#clip0)">
<path d="M28.661 17.5991L25.749 14.6872L34.485 5.95139C35.289 5.14731 36.5928 5.14731 37.3969 5.95139C38.201 6.75548 38.201 8.0592 37.3969 8.86336L28.661 17.5991Z" fill="#FC445F"/>
<path d="M2.32861 9.112H5.56871C8.68345 9.112 11.2175 11.646 11.2175 14.7608V15.8754H7.97741C4.86267 15.8754 2.32861 13.3414 2.32861 10.2266V9.112Z" fill="#92E170"/>
<path d="M2.32861 9.112H5.56871C8.68345 9.112 11.2175 11.646 11.2175 14.7608V15.8754L2.32861 9.112Z" fill="#1FC979"/>
<path d="M17.4385 12.7613C16.5006 12.5876 15.4376 12.3908 14.389 12.6687C13.2991 12.9577 12.4621 13.6713 11.7236 14.3009C11.3084 14.655 10.9161 14.9894 10.5275 15.2123C10.1267 15.4422 9.63177 15.6153 9.10779 15.7985C8.19912 16.1163 7.16912 16.4766 6.38195 17.2548C5.59464 18.0332 5.22251 19.0589 4.89416 19.964C4.70491 20.4857 4.52611 20.9785 4.29173 21.3765C4.06418 21.7629 3.725 22.1516 3.36593 22.5629C2.77693 23.2377 2.11616 24.7885 1.78076 25.7555H18.9999L21.2791 20.951L18.9999 12.9618C18.5198 12.9615 17.9945 12.8643 17.4385 12.7613Z" fill="#FFF5F5"/>
<path d="M34.6382 22.5622C34.2791 22.1508 33.9399 21.7622 33.7125 21.3758C33.4781 20.978 33.2994 20.4851 33.1101 19.9633C32.7818 19.0583 32.4097 18.0325 31.6224 17.2541C30.8352 16.476 29.8053 16.1157 28.8966 15.7979C28.3726 15.6146 27.8776 15.4415 27.4768 15.2117C27.0881 14.9888 26.6958 14.6544 26.2806 14.3003C25.5421 13.6707 24.7051 12.9571 23.6151 12.668C22.5668 12.39 21.5036 12.5869 20.5657 12.7606C20.0089 12.8638 19.4828 12.9612 19.0022 12.9612C19.0014 12.9612 19.0007 12.9611 19 12.9611V25.7548H36.2234C35.888 24.7878 35.2272 23.2369 34.6382 22.5622Z" fill="#EBEBF0"/>
<path d="M0 25.4011V27.2837C0 30.2436 2.40803 32.6517 5.36802 32.6517H19L21.2058 29.2601L19 25.4011H0Z" fill="#C29578"/>
<path d="M19 25.4011V32.6517H32.6785C34.1127 32.6517 35.4546 32.0912 36.457 31.0735C37.452 30.0631 38 28.7173 38 27.2837V25.4011H19Z" fill="#A97450"/>
<path d="M24.3467 19.632H26.576V21.8614H24.3467V19.632Z" fill="#C6D0D8"/>
<path d="M12.356 17.9549H14.5853V20.1843H12.356V17.9549Z" fill="#EBEBF0"/>
<path d="M10.124 20.1806H12.3533V22.4101H10.124V20.1806Z" fill="#EBEBF0"/>
</g>
<defs>
<clipPath id="clip0">
<rect width="38" height="38" fill="white"/>
</clipPath>
</defs>
</svg>
