<svg width="50" height="50" viewBox="0 0 50 50" fill="none" xmlns="http://www.w3.org/2000/svg">
<path d="M29.6875 35.9375C37.454 35.9375 42.1875 29.6415 42.1875 21.875C42.1875 14.1085 37.454 7.8125 29.6875 7.8125H25.7812V35.9375H29.6875Z" fill="#ED8989"/>
<path d="M26.5625 35.9375C34.329 35.9375 39.0625 29.6415 39.0625 21.875C39.0625 14.1085 34.329 7.8125 26.5625 7.8125H22.6562V35.9375H26.5625Z" fill="#FFC9C9"/>
<path d="M23.4375 35.9375C31.204 35.9375 35.9375 29.6415 35.9375 21.875C35.9375 14.1085 31.204 7.8125 23.4375 7.8125H18.75V35.9375H23.4375Z" fill="#ED8989"/>
<path d="M18.75 35.9375C26.5165 35.9375 32.8125 29.6415 32.8125 21.875C32.8125 14.1085 26.5165 7.8125 18.75 7.8125C10.9835 7.8125 4.6875 14.1085 4.6875 21.875C4.6875 29.6415 10.9835 35.9375 18.75 35.9375Z" fill="#FFC9C9"/>
<path d="M19.9219 24.2185C19.7674 24.2185 19.6163 24.1727 19.4878 24.0869C19.3594 24.001 19.2592 23.879 19.2001 23.7363C19.141 23.5935 19.1255 23.4364 19.1556 23.2849C19.1858 23.1333 19.2602 22.9941 19.3695 22.8848L22.4945 19.7598C22.641 19.6133 22.8397 19.531 23.0469 19.531C23.2541 19.531 23.4528 19.6133 23.5994 19.7598C23.7459 19.9064 23.8282 20.1051 23.8282 20.3123C23.8282 20.5195 23.7459 20.7182 23.5994 20.8647L20.4743 23.9897C20.4019 24.0624 20.3158 24.12 20.221 24.1593C20.1262 24.1985 20.0245 24.2187 19.9219 24.2185Z" fill="#ED8989"/>
<path d="M12.5 24.2185C12.3455 24.2185 12.1945 24.1727 12.066 24.0869C11.9375 24.001 11.8374 23.879 11.7782 23.7363C11.7191 23.5935 11.7036 23.4364 11.7338 23.2849C11.7639 23.1333 11.8383 22.9941 11.9476 22.8848L20.5413 14.2911C20.6878 14.1446 20.8866 14.0623 21.0938 14.0623C21.301 14.0623 21.4997 14.1446 21.6462 14.2911C21.7927 14.4376 21.875 14.6363 21.875 14.8435C21.875 15.0507 21.7927 15.2495 21.6462 15.396L13.0525 23.9897C12.98 24.0624 12.8939 24.12 12.7991 24.1593C12.7043 24.1985 12.6026 24.2187 12.5 24.2185Z" fill="#ED8989"/>
<path d="M47.6562 38.2812L42.9688 37.5V32.8125L47.6562 32.0312L46.875 35.1562L47.6562 38.2812Z" fill="#D46360"/>
<path d="M37.5 42.1875C40.9518 42.1875 43.75 39.0396 43.75 35.1562C43.75 31.2729 40.9518 28.125 37.5 28.125H9.375V42.1875H37.5Z" fill="#ED6F6D"/>
<path d="M9.375 42.1875C13.2583 42.1875 16.4062 39.0395 16.4062 35.1562C16.4062 31.273 13.2583 28.125 9.375 28.125C5.49175 28.125 2.34375 31.273 2.34375 35.1562C2.34375 39.0395 5.49175 42.1875 9.375 42.1875Z" fill="#FF9494"/>
<path d="M23.4375 34.375C23.4375 34.5822 23.3552 34.7809 23.2087 34.9274C23.0622 35.0739 22.8635 35.1562 22.6562 35.1562C22.449 35.1562 22.2503 35.0739 22.1038 34.9274C21.9573 34.7809 21.875 34.5822 21.875 34.375C21.8731 32.718 21.2141 31.1293 20.0424 29.9576C18.8707 28.7859 17.282 28.1269 15.625 28.125H20.3086C21.2799 28.852 22.0684 29.7954 22.6115 30.8803C23.1546 31.9652 23.4374 33.1617 23.4375 34.375Z" fill="#FF9494"/>
<path d="M31.25 34.375C31.25 34.5822 31.1677 34.7809 31.0212 34.9274C30.8747 35.0739 30.676 35.1562 30.4688 35.1562C30.2615 35.1562 30.0628 35.0739 29.9163 34.9274C29.7698 34.7809 29.6875 34.5822 29.6875 34.375C29.6856 32.718 29.0266 31.1293 27.8549 29.9576C26.6832 28.7859 25.0945 28.1269 23.4375 28.125H28.1211C29.0924 28.852 29.8809 29.7954 30.424 30.8803C30.9671 31.9652 31.2499 33.1617 31.25 34.375Z" fill="#FF9494"/>
<path d="M38.2812 34.375C38.2812 34.5822 38.1989 34.7809 38.0524 34.9274C37.9059 35.0739 37.7072 35.1562 37.5 35.1562C37.2928 35.1562 37.0941 35.0739 36.9476 34.9274C36.8011 34.7809 36.7188 34.5822 36.7188 34.375C36.7169 32.718 36.0578 31.1293 34.8861 29.9576C33.7144 28.7859 32.1258 28.1269 30.4688 28.125H35.1523C36.1236 28.852 36.9121 29.7954 37.4553 30.8803C37.9984 31.9652 38.2812 33.1617 38.2812 34.375Z" fill="#FF9494"/>
<path d="M7.8125 38.2812C8.67545 38.2812 9.375 37.5817 9.375 36.7188C9.375 35.8558 8.67545 35.1562 7.8125 35.1562C6.94956 35.1562 6.25 35.8558 6.25 36.7188C6.25 37.5817 6.94956 38.2812 7.8125 38.2812Z" fill="#ED6F6D"/>
<path d="M11.7188 33.5938C12.1502 33.5938 12.5 33.244 12.5 32.8125C12.5 32.381 12.1502 32.0312 11.7188 32.0312C11.2873 32.0312 10.9375 32.381 10.9375 32.8125C10.9375 33.244 11.2873 33.5938 11.7188 33.5938Z" fill="#ED6F6D"/>
</svg>
