<svg width="32" height="32" viewBox="0 0 32 32" fill="none" xmlns="http://www.w3.org/2000/svg">
<g clip-path="url(#clip0)">
<path d="M25.7978 4.63883L23.8463 1.79292C23.6837 1.54898 23.6837 1.22374 23.8057 0.9798C23.9683 0.735865 24.2122 0.573242 24.4968 0.573242L30.148 0.857833C30.4326 0.857833 30.7172 1.06111 30.7985 1.30505C30.9204 1.58964 30.8798 1.87423 30.6765 2.11816L28.3591 4.80145L25.7978 4.63883Z" fill="#EB573B"/>
<path d="M27.588 4.31358L25.6365 1.46767C25.4739 1.22374 25.4739 0.898489 25.5959 0.654554C25.5959 0.654554 25.5959 0.654554 25.6365 0.613898L24.5388 0.573242C24.2542 0.573242 23.9696 0.69521 23.8477 0.979801C23.685 1.22374 23.7257 1.54898 23.8883 1.79292L25.8398 4.63883L28.4418 4.84211L28.8077 4.43555L27.588 4.31358Z" fill="#F1705A"/>
<path d="M9.17073 31.3087C7.99171 31.3087 6.894 30.8615 6.04023 30.0483C5.1458 29.1946 4.61728 28.0562 4.57662 26.8365C4.49531 24.3159 6.48745 22.2018 9.00811 22.0798H9.13007C11.1222 22.0392 15.0252 21.5106 18.359 18.2582C21.7334 14.7618 22.1399 10.6555 22.1806 9.02928V8.90732C22.2619 6.42731 24.3354 4.47583 26.7747 4.47583C26.8154 4.47583 26.856 4.47583 26.9373 4.47583C28.157 4.51649 29.2954 5.04501 30.1491 5.93944C31.0029 6.83387 31.4095 8.01289 31.4095 9.23256C31.2468 13.9486 30.637 18.6647 24.7013 24.6005C18.7655 30.5362 14.0494 31.1461 9.33335 31.3087C9.25204 31.3087 9.21139 31.3087 9.17073 31.3087Z" fill="#EB573B"/>
<path d="M6.36548 28.4221C6.28417 25.9015 8.2763 23.7873 10.797 23.6654H10.9189C12.9111 23.6247 16.814 23.0962 20.1478 19.8437C23.5222 16.3473 23.9288 12.2411 23.9695 10.6149V10.4929C24.0508 8.01289 26.1242 6.06141 28.5636 6.06141C28.6042 6.06141 28.6449 6.06141 28.7262 6.06141C29.3767 6.10206 30.0272 6.22403 30.5964 6.50862C30.4744 6.30534 30.3118 6.10206 30.1491 5.93944C29.2954 5.04501 28.157 4.51649 26.9373 4.47583C26.8967 4.47583 26.856 4.47583 26.7747 4.47583C24.3354 4.47583 22.2619 6.42731 22.1806 8.90732V9.02928C22.1399 10.6555 21.7334 14.7618 18.359 18.2582C14.9845 21.5106 11.1222 22.0798 9.13007 22.0798H9.00811C6.48745 22.1611 4.49531 24.3159 4.57662 26.8365C4.61728 28.0562 5.1458 29.1946 6.04023 30.0483C6.36548 30.3736 6.77204 30.6175 7.1786 30.8208C6.69073 30.1297 6.40613 29.3165 6.36548 28.4221Z" fill="#F1705A"/>
<path d="M4.86102 28.3408L2.17773 30.6582C2.05577 30.7802 1.85249 30.8615 1.68986 30.8615C1.5679 30.8615 1.48658 30.8615 1.40527 30.8208C1.12068 30.6989 0.958059 30.4549 0.958059 30.1703L0.632812 24.4785C0.632812 24.1939 0.75478 23.9093 1.03937 23.7874C1.28331 23.6247 1.60855 23.6654 1.85249 23.828L4.6984 25.7795L4.86102 28.3408Z" fill="#EB573B"/>
<path d="M0.998355 25.6171C1.24229 25.4545 1.56754 25.4952 1.81147 25.6578L4.65738 27.6093L4.73869 28.5037L4.86066 28.3817L4.65738 25.7798L1.81147 23.8283C1.56754 23.6657 1.24229 23.6657 0.998355 23.7876C0.75442 23.9502 0.591797 24.1942 0.591797 24.4788L0.673109 25.9424C0.75442 25.8204 0.876388 25.6984 0.998355 25.6171Z" fill="#F1705A"/>
<path d="M1.16175 31.3902C1.32437 31.4715 1.52765 31.5121 1.69027 31.5121C2.01552 31.5121 2.34077 31.3902 2.62536 31.1869L4.65815 29.398C4.90208 29.8046 5.22733 30.2111 5.59323 30.577C6.56897 31.4715 7.8293 32 9.17094 32H9.33357C14.1716 31.8374 19.0097 31.1869 25.108 25.0885C31.2064 18.9901 31.8569 14.1521 31.9789 9.31404C32.0195 7.93174 31.5316 6.5901 30.5559 5.5737C30.19 5.2078 29.8241 4.88255 29.3769 4.63862L31.1657 2.60583C31.5316 2.19927 31.613 1.63009 31.4097 1.14222C31.2064 0.654345 30.7185 0.329099 30.19 0.288443L24.5388 0.00385215C24.0103 -0.0368037 23.5225 0.247787 23.2379 0.695001C22.9939 1.14222 22.9939 1.7114 23.2785 2.15861L24.7421 4.31337C22.9126 5.04518 21.571 6.83403 21.4897 8.94814V9.0701C21.449 10.615 21.0831 14.5586 17.8713 17.8518C14.6595 20.9823 10.9598 21.4701 9.04898 21.5108H8.92701C6.81291 21.5921 5.06471 22.9337 4.29225 24.7633L2.17814 23.2996C1.73093 23.0151 1.16175 22.9744 0.714532 23.259C0.267318 23.5029 -0.0172724 24.0314 0.0233834 24.56L0.307974 30.1705C0.34863 30.699 0.673877 31.1869 1.16175 31.3902ZM24.3762 1.42681C24.3356 1.38615 24.3356 1.34549 24.3762 1.26418C24.4169 1.22353 24.4575 1.18287 24.4982 1.18287L30.1494 1.46746C30.19 1.46746 30.2307 1.50812 30.2713 1.54877C30.312 1.58943 30.2713 1.67074 30.2307 1.7114L28.1979 4.06944C27.7913 3.94747 27.3848 3.86616 26.9375 3.86616H26.7749C26.531 3.86616 26.3277 3.90681 26.0838 3.90681L24.3762 1.42681ZM9.00832 22.7711H9.13029C11.2444 22.7305 15.2693 22.1613 18.8064 18.7462C22.3434 15.0872 22.7906 10.7776 22.7906 9.0701V8.94814C22.872 6.83403 24.6608 5.12649 26.7343 5.12649H26.8562C27.3034 5.12649 27.7507 5.24845 28.1572 5.37042C28.7264 5.5737 29.2143 5.89895 29.6208 6.34616C30.3526 7.11862 30.7185 8.13502 30.6779 9.19207C30.5153 13.7862 29.9054 18.3803 24.1729 24.1128C18.3998 29.8859 13.8057 30.4957 9.25226 30.6177H9.13029C8.11389 30.6177 7.13815 30.2518 6.40635 29.5606C5.63389 28.8288 5.18667 27.8531 5.14602 26.796C5.14602 24.6819 6.85356 22.8524 9.00832 22.7711ZM1.32437 24.316C1.36503 24.2754 1.44634 24.2754 1.48699 24.316L4.00765 26.0236C3.967 26.3082 3.967 26.5928 3.967 26.8774C3.967 27.3246 4.04831 27.7311 4.17028 28.1377L1.77158 30.2111C1.73093 30.2518 1.73093 30.2518 1.60896 30.2518C1.5683 30.2111 1.52765 30.1705 1.52765 30.1298L1.24306 24.4787C1.24306 24.3974 1.28371 24.3567 1.32437 24.316Z" fill="#561900"/>
<path d="M21.6927 24.1533C21.8553 24.1533 22.0179 24.072 22.1399 23.9501C27.8317 18.2582 28.4415 13.7455 28.5635 9.192C28.5635 8.82609 28.3196 8.5415 27.9536 8.5415C27.6284 8.5415 27.3032 8.78544 27.3032 9.15134C27.1812 13.4202 26.612 17.6891 21.2455 23.0556C21.0015 23.2996 21.0015 23.7061 21.2455 23.9501C21.3674 24.072 21.53 24.1533 21.6927 24.1533Z" fill="#F1705A"/>
</g>
<defs>
<clipPath id="clip0">
<rect width="32" height="32" fill="white"/>
</clipPath>
</defs>
</svg>
