<svg width="100" height="100" viewBox="0 0 100 100" fill="none" xmlns="http://www.w3.org/2000/svg">
<rect width="100" height="100" rx="50" fill="#EDDAD4"/>
<path d="M59.3333 57V36C59.3333 35.3811 59.0875 34.7876 58.6499 34.35C58.2123 33.9125 57.6188 33.6666 57 33.6666H31.3333C30.7145 33.6666 30.121 33.9125 29.6834 34.35C29.2458 34.7876 29 35.3811 29 36V59.3333C29 59.9521 29.2458 60.5456 29.6834 60.9832C30.121 61.4208 30.7145 61.6666 31.3333 61.6666H36" stroke="#3E180A" stroke-width="3.5" stroke-linecap="round" stroke-linejoin="round"/>
<path d="M54.6667 61.6666H45.3334" stroke="#3E180A" stroke-width="3.5" stroke-linecap="round" stroke-linejoin="round"/>
<path d="M40.6667 66.3333C43.244 66.3333 45.3333 64.244 45.3333 61.6667C45.3333 59.0893 43.244 57 40.6667 57C38.0893 57 36 59.0893 36 61.6667C36 64.244 38.0893 66.3333 40.6667 66.3333Z" stroke="#3E180A" stroke-width="3.5" stroke-linecap="round" stroke-linejoin="round"/>
<path d="M59.3333 66.3333C61.9106 66.3333 64 64.244 64 61.6667C64 59.0893 61.9106 57 59.3333 57C56.756 57 54.6666 59.0893 54.6666 61.6667C54.6666 64.244 56.756 66.3333 59.3333 66.3333Z" stroke="#3E180A" stroke-width="3.5" stroke-linecap="round" stroke-linejoin="round"/>
<path d="M64 61.6667H68.6667C69.2855 61.6667 69.879 61.4208 70.3166 60.9833C70.7542 60.5457 71 59.9522 71 59.3333V50L66.9867 41.95C66.791 41.5617 66.4907 41.2357 66.1196 41.009C65.7486 40.7822 65.3215 40.6637 64.8867 40.6667H59.3334" stroke="#3E180A" stroke-width="3.5" stroke-linecap="round" stroke-linejoin="round"/>
</svg>
