<svg width="38" height="38" viewBox="0 0 38 38" fill="none" xmlns="http://www.w3.org/2000/svg">
<path d="M26.1096 1.40643C29.6661 5.58272 29.056 10.8871 29.0345 11.0638C28.6011 11.0138 28.1631 11.0173 27.7305 11.0742L26.2936 11.256C26.3144 11.1484 27.0358 7.1658 23.8711 3.24186C23.6648 2.98751 23.5523 2.66985 23.5527 2.34233C23.552 2.04494 23.6429 1.75455 23.8129 1.51059C23.983 1.26663 24.224 1.08092 24.5033 0.978701C24.7826 0.876479 25.0865 0.862694 25.3739 0.939217C25.6613 1.01574 25.9181 1.17886 26.1096 1.40643Z" fill="#F6C3BA"/>
<path d="M20.0397 2.33566C23.6564 6.58319 22.8979 11.6805 22.8979 11.6805L22.8986 11.6872L20.2572 12.0219V12.019C20.2572 12.019 21.0098 8.14921 17.8013 4.17034C17.5949 3.91606 17.4824 3.59836 17.4829 3.27081C17.4824 2.97349 17.5733 2.6832 17.7434 2.43936C17.9136 2.19552 18.1546 2.00993 18.4338 1.9078C18.7131 1.80567 19.017 1.79195 19.3043 1.86849C19.5916 1.94504 19.8483 2.10814 20.0397 2.33566Z" fill="#F6C3BA"/>
<path d="M13.9436 3.16098C17.4556 7.28605 16.8418 12.1793 16.8032 12.4598L14.167 12.7946C14.2137 12.5274 14.7956 8.82832 11.7051 4.9964C11.4987 4.74212 11.3862 4.42442 11.3867 4.09687C11.3862 3.79957 11.4771 3.50929 11.6472 3.26544C11.8173 3.0216 12.0583 2.83598 12.3375 2.73378C12.6167 2.63159 12.9205 2.61777 13.2079 2.69419C13.4952 2.77061 13.752 2.93358 13.9436 3.16098Z" fill="#F6C3BA"/>
<path d="M34.1229 18.7046C33.7384 13.2844 31.4221 11.2679 29.0345 10.9896C28.601 10.9396 28.163 10.943 27.7304 11L9.93945 13.2562V13.2584C10.2346 13.2335 10.5312 13.2332 10.8264 13.2577C14.9336 13.5301 20.1972 19.0156 20.2165 25.2106C20.2329 30.233 16.8017 35.9271 12.6677 37.0032L22.6004 34.8509C30.0275 33.2418 34.6602 26.2853 34.1229 18.7046Z" fill="#F2795C"/>
<path d="M20.2165 25.2106C20.2329 30.233 16.8017 35.9271 12.6677 37.0033C12.0678 37.1626 11.4448 37.2168 10.8264 37.1636C7.24012 36.8444 3.83496 32.7891 3.83496 29.2133C3.83496 24.5501 6.11941 25.9038 6.98555 21.1041C7.62828 17.5416 6.80816 14.9736 8.51965 13.7602C8.94053 13.4709 9.43028 13.2978 9.93945 13.2584C10.2346 13.2335 10.5312 13.2332 10.8264 13.2577C14.9336 13.5301 20.1972 19.0156 20.2165 25.2106Z" fill="#FF8F80"/>
<path d="M18.1614 25.2114C18.0613 22.6567 16.7298 19.8349 15.0903 17.8585L13.761 16.5048C12.9416 15.8168 12.1067 15.3811 11.3541 15.3158C11.0097 15.2853 10.3581 15.2401 9.79848 15.7292C8.64141 16.7408 9.18395 18.8931 8.73864 21.8737C8.13746 25.8897 5.85598 25.2848 5.83891 29.1895C5.82926 31.4628 7.48285 33.6426 9.42664 34.551L14.0868 33.9402C16.4017 32.228 18.2973 28.6855 18.1614 25.2114Z" fill="#DD494C"/>
<path d="M15.0902 17.8585C15.2147 18.0532 15.2822 18.2789 15.2852 18.5099C15.2882 18.741 15.2266 18.9683 15.1073 19.1662C14.593 19.9982 13.5123 20.287 12.6336 19.8557C12.2076 19.6472 11.9768 19.3243 12.5282 18.8397C13.044 18.3862 13.761 16.5048 13.761 16.5048C14.2427 16.915 14.6871 17.3673 15.0887 17.8563C15.0895 17.857 15.0895 17.8578 15.0902 17.8585Z" fill="#FF808C"/>
<path d="M8.06547 29.1895C8.08254 25.2848 10.364 25.8897 10.9652 21.8737C11.4105 18.8931 10.868 16.7408 12.025 15.7292C12.0998 15.664 12.1801 15.6055 12.2651 15.5542C11.9755 15.4282 11.6682 15.3478 11.3541 15.3158C11.0097 15.2853 10.3581 15.2401 9.79848 15.7292C8.64141 16.7408 9.18395 18.8931 8.73864 21.8737C8.13746 25.8897 5.85598 25.2848 5.83891 29.1895C5.82926 31.4628 7.48285 33.6426 9.42664 34.551L11.2089 34.3174C9.4642 33.3044 8.05657 31.2872 8.06547 29.1895Z" fill="#B24449"/>
<path d="M13.4858 29.6504C13.5793 31.0487 15.224 32.3148 14.087 33.9402C14.0868 33.9402 14.0866 33.9403 14.0864 33.9404C14.0863 33.9406 14.0862 33.9408 14.0862 33.941C13.1941 34.6 12.2404 34.9874 11.3164 34.9941C10.6614 34.9886 10.0159 34.8372 9.42676 34.551C9.42676 34.551 12.3369 32.3846 11.1256 30.7073C9.91437 29.0299 13.393 28.2528 13.4858 29.6504Z" fill="#FF808C"/>
<path d="M18.6063 25.1938C18.522 23.0429 17.606 20.5802 16.0933 18.437C14.6069 16.3315 12.85 14.9986 11.3925 14.8719C11.0415 14.8414 10.2194 14.7698 9.50514 15.3942C8.61452 16.173 8.56998 17.424 8.51462 19.0079C8.4856 19.8355 8.45264 20.7735 8.29797 21.8077C8.02841 23.6102 7.4069 24.4117 6.80618 25.1869C6.11661 26.0762 5.40344 26.9958 5.39409 29.1873C5.38734 30.7533 6.10555 32.3713 7.3646 33.6263C8.52196 34.7801 9.95082 35.4397 11.2899 35.4397H11.3202C12.6925 35.4295 14.1666 34.6713 15.4708 33.3048C17.5168 31.161 18.7181 28.0531 18.6063 25.1938ZM14.7236 18.1133C14.7991 18.2363 14.8396 18.3776 14.8405 18.5219C14.8414 18.6663 14.8027 18.8081 14.7287 18.932C14.3416 19.558 13.5076 19.7884 12.8299 19.4559C12.7694 19.4285 12.713 19.3929 12.6623 19.3501C12.7064 19.2839 12.7602 19.2247 12.8219 19.1745C13.2206 18.8243 13.6622 17.8994 13.9352 17.2608C14.2129 17.5308 14.4761 17.8155 14.7236 18.1135V18.1133ZM13.7594 33.629C12.9381 34.2228 12.0969 34.5432 11.3133 34.5493C10.9667 34.5488 10.6219 34.4983 10.2896 34.3995C11.159 33.5815 12.5517 31.9219 11.4862 30.4465C11.2098 30.0637 11.3384 29.879 11.3868 29.8094C11.6162 29.4798 12.2956 29.2825 12.7582 29.4107C13.0287 29.4857 13.0379 29.6223 13.0417 29.6806C13.0803 30.2595 13.3307 30.7865 13.5728 31.2965C14.0183 32.2348 14.268 32.8573 13.7594 33.629ZM14.9231 32.5856C14.8781 31.9704 14.6121 31.4089 14.3773 30.9142C14.1616 30.4597 13.9577 30.0304 13.9304 29.621C13.8959 29.1045 13.5468 28.7049 12.9964 28.5522C12.2598 28.3478 11.1435 28.5997 10.6558 29.3004C10.3143 29.7914 10.3535 30.3989 10.7642 30.9677C11.5276 32.0249 9.95773 33.5202 9.37014 34.0222C8.86359 33.7491 8.39979 33.4031 7.99353 32.9955C6.90192 31.9072 6.27907 30.5207 6.28486 29.1911C6.29303 27.3024 6.85709 26.5749 7.51014 25.7325C8.14998 24.9073 8.87517 23.9719 9.17917 21.9394C9.34134 20.8551 9.37518 19.8903 9.40509 19.039C9.45504 17.6171 9.49111 16.5898 10.0917 16.0646C10.3524 15.8453 10.6854 15.7308 11.0258 15.7435C11.1371 15.7435 11.2361 15.7521 11.3157 15.7591C11.8886 15.809 12.5489 16.1228 13.2271 16.6454C12.9328 17.3648 12.4952 18.2765 12.2347 18.5053C11.8798 18.817 11.722 19.1417 11.7658 19.4708C11.8088 19.7939 12.035 20.058 12.4381 20.2556C12.9627 20.5115 13.5629 20.5658 14.1249 20.4082C14.6868 20.2506 15.1713 19.8921 15.4863 19.4008C15.5165 19.3512 15.544 19.3001 15.5687 19.2475C16.8457 21.1595 17.6435 23.3714 17.7163 25.229C17.8159 27.7701 16.7222 30.6407 14.9231 32.5856Z" fill="#264160"/>
<path d="M31.7492 11.6726C31.1035 11.1387 30.3348 10.7743 29.5127 10.6124C29.563 9.63618 29.5146 8.65738 29.3685 7.69085C29.1053 5.9139 28.3851 3.3181 26.4483 1.04352C26.2181 0.770367 25.9154 0.567924 25.575 0.459593C25.2346 0.351262 24.8706 0.341464 24.5248 0.431333C24.1791 0.521202 23.8659 0.707068 23.6214 0.967447C23.3769 1.22783 23.211 1.55209 23.143 1.90275C23.0898 2.17235 23.0964 2.45033 23.1622 2.71712C23.2281 2.98391 23.3517 3.23301 23.5242 3.44687C26.0532 6.58247 25.9903 9.78708 25.8961 10.7835L23.3907 11.1013C23.437 10.2198 23.3951 9.33599 23.2657 8.46287C23.0179 6.75777 22.3157 4.24762 20.3786 1.97259C20.1485 1.69942 19.8457 1.49695 19.5053 1.3886C19.1649 1.28025 18.8009 1.27044 18.4551 1.36031C18.1094 1.45017 17.7962 1.63603 17.5517 1.89642C17.3071 2.1568 17.1413 2.48107 17.0733 2.83175C17.0201 3.10135 17.0266 3.37935 17.0925 3.64616C17.1583 3.91296 17.2819 4.16207 17.4545 4.37594C19.9754 7.50166 19.9434 10.5827 19.8578 11.5493L17.2957 11.8743C17.34 11.0045 17.2977 10.1326 17.1695 9.27119C16.9216 7.57403 16.2195 5.0733 14.2824 2.79842C14.0522 2.5254 13.7494 2.32307 13.4091 2.21481C13.0687 2.10656 12.7047 2.09679 12.3591 2.18663C12.0134 2.27648 11.7002 2.46227 11.4557 2.72256C11.2111 2.98284 11.0452 3.30699 10.977 3.65758C10.9238 3.92719 10.9304 4.20519 10.9963 4.47199C11.0622 4.73879 11.1857 4.9879 11.3583 5.20177C13.8607 8.30412 13.8494 11.3404 13.7662 12.3219L9.88386 12.8142V12.8168C9.30198 12.8658 8.74292 13.0657 8.26181 13.3966C6.97983 14.3061 6.92283 15.7957 6.85069 17.6817C6.81284 18.6697 6.77002 19.7895 6.54721 21.0249C6.15868 23.1789 5.49531 23.997 4.85384 24.7878C4.10089 25.7168 3.38965 26.5943 3.38965 29.2135C3.38965 33.1175 7.0539 37.275 10.7873 37.6068C10.9549 37.6216 11.1227 37.6291 11.2907 37.6291C11.8014 37.6279 12.3099 37.5608 12.8035 37.4293L22.6947 35.2865C30.1422 33.673 35.1352 26.6859 34.5672 18.6728C34.3328 15.3677 33.3847 13.0125 31.7492 11.6726ZM24.2177 2.88778C24.1267 2.775 24.0617 2.64364 24.0271 2.50298C23.9924 2.36232 23.9891 2.21577 24.0173 2.07368C24.0531 1.88747 24.141 1.71525 24.2708 1.57703C24.4007 1.43881 24.567 1.34027 24.7506 1.29286C24.9342 1.24544 25.1275 1.2511 25.308 1.30918C25.4886 1.36726 25.6489 1.47536 25.7704 1.62094C28.6389 4.98988 28.6904 9.18109 28.6245 10.5119C28.3071 10.5022 27.9894 10.5176 27.6745 10.5581L26.8035 10.6686C26.9019 9.3581 26.8213 6.11615 24.2177 2.88778ZM18.148 3.81685C18.0571 3.70405 17.992 3.57268 17.9574 3.43201C17.9228 3.29133 17.9194 3.14478 17.9476 3.00267C17.9835 2.81654 18.0715 2.64441 18.2014 2.50628C18.3312 2.36814 18.4976 2.26966 18.6811 2.22226C18.8647 2.17486 19.0579 2.18049 19.2384 2.23849C19.4189 2.29649 19.5792 2.40448 19.7008 2.54994C22.6255 5.985 22.573 10.0518 22.4888 11.2157L20.7641 11.4344C20.8514 10.1588 20.7401 7.03082 18.148 3.81685ZM12.0514 4.64268C11.9605 4.52988 11.8955 4.39851 11.8609 4.25784C11.8262 4.11716 11.8229 3.97061 11.851 3.8285C11.887 3.64237 11.975 3.47024 12.1048 3.33211C12.2347 3.19397 12.401 3.09549 12.5846 3.04809C12.7681 3.00069 12.9613 3.00632 13.1418 3.06432C13.3223 3.12232 13.4826 3.23031 13.6042 3.37577C16.5115 6.79035 16.4778 10.8055 16.3943 11.9886L14.6716 12.2071C14.7548 10.926 14.6275 7.83676 12.0514 4.64268ZM12.5876 36.5648L12.5727 36.5679V36.5685C12.0169 36.7179 11.4392 36.769 10.8657 36.7197C7.60401 36.4298 4.28027 32.6414 4.28027 29.2135C4.28027 26.91 4.83877 26.2212 5.54578 25.3491C6.22495 24.5115 6.99468 23.5621 7.42351 21.1831C7.65745 19.8862 7.70161 18.733 7.7405 17.7157C7.80819 15.947 7.85287 14.7786 8.77704 14.123C9.29657 13.7541 9.90353 13.684 10.3588 13.684C10.5307 13.684 10.681 13.694 10.7967 13.7017C12.7152 13.8292 14.927 15.1743 16.713 17.2997C18.6478 19.6021 19.7624 22.4859 19.7708 25.2114C19.7818 28.6542 18.1054 32.5129 15.5997 34.8133C14.8654 35.4882 13.827 36.2345 12.5876 36.5648ZM30.3866 29.548C31.3031 25.7518 30.5079 22.1795 30.4683 22.0062C30.4419 21.891 30.3708 21.7911 30.2708 21.7283C30.1707 21.6655 30.0498 21.6451 29.9346 21.6715C29.8195 21.6979 29.7195 21.7689 29.6567 21.869C29.594 21.9691 29.5735 22.09 29.5999 22.2051C29.6105 22.2518 30.648 26.9084 28.9778 31.0446C28.9764 31.0482 28.9754 31.052 28.9741 31.0554C27.6167 32.3097 26.0213 33.2788 24.2825 33.9054C25.8532 30.2741 25.9268 26.8202 25.689 24.4929C25.4112 21.774 24.6788 20.0009 24.6478 19.9268C24.6021 19.8178 24.5151 19.7315 24.4058 19.6867C24.2965 19.6419 24.1739 19.6424 24.065 19.688C23.956 19.7336 23.8696 19.8206 23.8249 19.9299C23.7801 20.0392 23.7805 20.1618 23.8262 20.2708C23.8547 20.3388 26.6207 27.1268 23.1378 34.2634C22.9293 34.3187 22.7186 34.3695 22.5057 34.4158L15.7201 35.8859C15.882 35.7542 16.0429 35.6154 16.2025 35.4695C18.8818 33.0101 20.6738 28.8863 20.6621 25.2088C20.6527 22.2347 19.4925 19.2223 17.3954 16.7266C16.0651 15.1434 14.4967 13.9583 12.9469 13.3234L24.779 11.8231C25.2614 12.5376 27.3348 15.8148 27.0636 18.9618C27.0585 19.02 27.065 19.0787 27.0827 19.1345C27.1003 19.1902 27.1288 19.242 27.1664 19.2867C27.2041 19.3315 27.2502 19.3684 27.3021 19.3953C27.354 19.4223 27.4107 19.4387 27.469 19.4438C27.482 19.4449 27.4949 19.4454 27.5077 19.4454C27.6191 19.4453 27.7264 19.4034 27.8085 19.3281C27.8905 19.2527 27.9414 19.1494 27.9509 19.0384C28.2153 15.9705 26.53 12.9128 25.7627 11.6981L27.7868 11.4414C28.6843 11.3265 30.0026 11.393 31.1848 12.3617C32.603 13.5236 33.4655 15.7278 33.6785 18.736C33.97 22.8462 32.7164 26.6693 30.3869 29.548H30.3866Z" fill="#264160"/>
<path d="M19.4171 16.0208C19.342 15.9296 19.2337 15.872 19.1162 15.8606C18.9986 15.8492 18.8813 15.885 18.7902 15.9601C18.699 16.0352 18.6414 16.1434 18.63 16.261C18.6186 16.3786 18.6544 16.4958 18.7295 16.587C20.1066 18.2592 21.0537 20.1987 21.4682 22.1959C21.4889 22.2961 21.5436 22.386 21.6229 22.4507C21.7022 22.5153 21.8014 22.5507 21.9037 22.5508C21.9343 22.5508 21.9648 22.5476 21.9948 22.5414C22.052 22.5295 22.1064 22.5065 22.1548 22.4735C22.2032 22.4406 22.2446 22.3985 22.2767 22.3495C22.3088 22.3006 22.3309 22.2458 22.3418 22.1883C22.3527 22.1308 22.3521 22.0718 22.3402 22.0145C21.8964 19.8768 20.8853 17.8041 19.4171 16.0208Z" fill="#264160"/>
<path d="M17.9412 14.4811C17.8976 14.4422 17.8467 14.4122 17.7915 14.3929C17.7363 14.3736 17.6778 14.3653 17.6195 14.3686C17.5611 14.3719 17.5039 14.3867 17.4512 14.4121C17.3985 14.4375 17.3514 14.473 17.3124 14.5166C17.2735 14.5602 17.2435 14.6111 17.2242 14.6663C17.2049 14.7215 17.1966 14.7799 17.1999 14.8383C17.2032 14.8967 17.218 14.9539 17.2434 15.0066C17.2688 15.0593 17.3043 15.1064 17.3479 15.1454C17.4859 15.2686 17.6234 15.3971 17.7567 15.5273C17.8412 15.6098 17.955 15.6554 18.0731 15.654C18.1912 15.6526 18.3039 15.6043 18.3864 15.5198C18.469 15.4353 18.5145 15.3215 18.5131 15.2034C18.5117 15.0853 18.4634 14.9726 18.3789 14.8901C18.2362 14.7507 18.089 14.6131 17.9412 14.4811Z" fill="#264160"/>
</svg>
