<svg width="38" height="38" viewBox="0 0 38 38" fill="none" xmlns="http://www.w3.org/2000/svg">
<path d="M34.4374 9.43669C33.3018 9.92653 32.0661 10.2791 30.7932 10.4164C32.1148 9.63127 33.1044 8.39094 33.5764 6.92809C32.3364 7.66579 30.9779 8.18307 29.5612 8.457C28.9691 7.82401 28.253 7.31974 27.4575 6.97562C26.662 6.6315 25.8041 6.45489 24.9374 6.4568C21.4306 6.4568 18.6102 9.29938 18.6102 12.7877C18.6102 13.2775 18.6696 13.7673 18.7661 14.2386C13.5151 13.964 8.83193 11.4554 5.71845 7.61461C5.15114 8.5836 4.85385 9.6869 4.85751 10.8097C4.85751 13.0066 5.9745 14.9437 7.67782 16.083C6.67403 16.0434 5.69375 15.7675 4.81669 15.2777V15.3556C4.81669 18.432 6.9913 20.9814 9.88954 21.5677C9.34537 21.7091 8.78557 21.7814 8.22333 21.783C7.81142 21.783 7.42177 21.7422 7.02841 21.6865C7.82997 24.1951 10.1642 26.0172 12.9436 26.0765C10.769 27.7798 8.04521 28.7818 5.08759 28.7818C4.55693 28.7818 4.06708 28.7632 3.55869 28.7039C6.36415 30.5037 9.69286 31.5427 13.2776 31.5427C24.9151 31.5427 31.2831 21.9017 31.2831 13.5336C31.2831 13.259 31.2831 12.9843 31.2645 12.7097C32.4966 11.808 33.5764 10.691 34.4374 9.43669Z" fill="white"/>
</svg>
