<svg width="220" height="220" viewBox="0 0 220 220" fill="none" xmlns="http://www.w3.org/2000/svg">
<g clip-path="url(#clip0)">
<path d="M186.066 220H34.7026C22.8136 219.998 11.7724 213.842 5.51966 203.728C-0.731432 193.615 -1.30108 180.985 4.01344 170.349L79.6884 18.9795C85.4972 7.34851 97.3828 0 110.384 0C123.386 0 135.271 7.34851 141.08 18.9795L216.755 170.349C222.07 180.985 221.5 193.615 215.249 203.728C208.998 213.842 197.955 219.998 186.066 220Z" fill="#FFD764"/>
<path d="M110.386 54.9882C114.176 54.9882 117.249 58.0609 117.249 61.8508V144.202C117.249 147.992 114.176 151.065 110.386 151.065C106.596 151.065 103.523 147.992 103.523 144.202V61.8508C103.523 58.0609 106.596 54.9882 110.386 54.9882Z" fill="white"/>
<path d="M103.523 164.79H117.249V178.516H103.523V164.79Z" fill="white"/>
</g>
<defs>
<clipPath id="clip0">
<rect width="220" height="220" fill="white"/>
</clipPath>
</defs>
</svg>
